Hack-Bold.ufo
<glyph name="dollar" format="1">
  <advance width="1233"/>
  <unicode hex="0024"/>
  <note>
	dollar
  </note>
  <outline>
    <contour>
      <point x="552" y="0" type="line"/>
      <point x="439" y="4"/>
      <point x="309" y="33"/>
      <point x="172" y="92" type="curve"/>
      <point x="172" y="354" type="line"/>
      <point x="241" y="313"/>
      <point x="307" y="282"/>
      <point x="372" y="260" type="curve" smooth="yes"/>
      <point x="440" y="237"/>
      <point x="497" y="227"/>
      <point x="553" y="226" type="curve"/>
      <point x="553" y="555" type="line"/>
      <point x="290" y="607"/>
      <point x="164" y="731"/>
      <point x="164" y="943" type="curve" smooth="yes"/>
      <point x="164" y="1164"/>
      <point x="306" y="1303"/>
      <point x="553" y="1319" type="curve"/>
      <point x="553" y="1556" type="line"/>
      <point x="694" y="1556" type="line"/>
      <point x="695" y="1319" type="line"/>
      <point x="743" y="1316"/>
      <point x="792" y="1310"/>
      <point x="843" y="1301" type="curve" smooth="yes"/>
      <point x="888" y="1293"/>
      <point x="939" y="1281"/>
      <point x="999" y="1262" type="curve"/>
      <point x="999" y="1006" type="line"/>
      <point x="955" y="1035"/>
      <point x="906" y="1055"/>
      <point x="861" y="1070" type="curve" smooth="yes"/>
      <point x="809" y="1086"/>
      <point x="755" y="1096"/>
      <point x="694" y="1100" type="curve"/>
      <point x="694" y="793" type="line"/>
      <point x="827" y="772"/>
      <point x="926" y="727"/>
      <point x="992" y="659" type="curve" smooth="yes"/>
      <point x="1060" y="590"/>
      <point x="1092" y="497"/>
      <point x="1092" y="386" type="curve" smooth="yes"/>
      <point x="1092" y="271"/>
      <point x="1056" y="185"/>
      <point x="984" y="114" type="curve" smooth="yes"/>
      <point x="903" y="35"/>
      <point x="803" y="7"/>
      <point x="695" y="0" type="curve"/>
      <point x="694" y="-301" type="line"/>
      <point x="553" y="-301" type="line"/>
    </contour>
    <contour>
      <point x="553" y="1100" type="line"/>
      <point x="512" y="1095"/>
      <point x="481" y="1082"/>
      <point x="460" y="1059" type="curve"/>
      <point x="441" y="1040"/>
      <point x="428" y="1010"/>
      <point x="428" y="967" type="curve" smooth="yes"/>
      <point x="428" y="891"/>
      <point x="473" y="838"/>
      <point x="553" y="817" type="curve"/>
    </contour>
    <contour>
      <point x="694" y="226" type="line"/>
      <point x="742" y="233"/>
      <point x="771" y="251"/>
      <point x="792" y="275" type="curve" smooth="yes"/>
      <point x="815" y="302"/>
      <point x="827" y="335"/>
      <point x="827" y="376" type="curve" smooth="yes"/>
      <point x="827" y="417"/>
      <point x="816" y="450"/>
      <point x="793" y="477" type="curve" smooth="yes"/>
      <point x="772" y="501"/>
      <point x="741" y="519"/>
      <point x="694" y="528" type="curve"/>
    </contour>
  </outline>
</glyph>
<glyph name="parenleft" format="1">
  <advance width="1233"/>
  <unicode hex="0028"/>
  <note>
	parenleft
  </note>
  <outline>
    <contour>
      <point x="497" y="-127"/>
      <point x="416" y="23"/>
      <point x="360" y="186" type="curve" smooth="yes"/>
      <point x="309" y="336"/>
      <point x="283" y="488"/>
      <point x="283" y="643" type="curve" smooth="yes"/>
      <point x="283" y="797"/>
      <point x="309" y="950"/>
      <point x="361" y="1101" type="curve" smooth="yes"/>
      <point x="412" y="1248"/>
      <point x="484" y="1393"/>
      <point x="596" y="1554" type="curve"/>
      <point x="824" y="1554" type="line"/>
      <point x="739" y="1399"/>
      <point x="672" y="1244"/>
      <point x="628" y="1091" type="curve" smooth="yes"/>
      <point x="585" y="943"/>
      <point x="564" y="794"/>
      <point x="564" y="643" type="curve" smooth="yes"/>
      <point x="564" y="344"/>
      <point x="649" y="49"/>
      <point x="824" y="-270" type="curve"/>
      <point x="596" y="-270" type="line"/>
    </contour>
  </outline>
</glyph>
<glyph name="asterisk" format="1">
  <advance width="1233"/>
  <unicode hex="002A"/>
  <note>
	asterisk
  </note>
  <outline>
    <contour>
      <point x="216" y="455" type="line"/>
      <point x="455" y="821" type="line"/>
      <point x="97" y="976" type="line"/>
      <point x="148" y="1124" type="line"/>
      <point x="517" y="1004" type="line"/>
      <point x="536" y="1420" type="line"/>
      <point x="692" y="1420" type="line"/>
      <point x="711" y="1004" type="line"/>
      <point x="1080" y="1124" type="line"/>
      <point x="1131" y="976" type="line"/>
      <point x="773" y="821" type="line"/>
      <point x="1012" y="455" type="line"/>
      <point x="879" y="360" type="line"/>
      <point x="614" y="710" type="line"/>
      <point x="349" y="360" type="line"/>
    </contour>
  </outline>
</glyph>
<glyph name="five" format="1">
  <advance width="1233"/>
  <unicode hex="0035"/>
  <note>
	five
  </note>
  <outline>
    <contour>
      <point x="476" y="-29"/>
      <point x="408" y="-24"/>
      <point x="343" y="-13" type="curve" smooth="yes"/>
      <point x="276" y="-2"/>
      <point x="208" y="15"/>
      <point x="143" y="35" type="curve"/>
      <point x="143" y="301" type="line"/>
      <point x="203" y="272"/>
      <point x="253" y="255"/>
      <point x="314" y="240" type="curve" smooth="yes"/>
      <point x="374" y="225"/>
      <point x="428" y="219"/>
      <point x="488" y="219" type="curve" smooth="yes"/>
      <point x="699" y="219"/>
      <point x="807" y="312"/>
      <point x="807" y="475" type="curve" smooth="yes"/>
      <point x="807" y="563"/>
      <point x="775" y="625"/>
      <point x="727" y="668" type="curve" smooth="yes"/>
      <point x="679" y="711"/>
      <point x="607" y="737"/>
      <point x="508" y="737" type="curve" smooth="yes"/>
      <point x="461" y="737"/>
      <point x="407" y="731"/>
      <point x="354" y="718" type="curve" smooth="yes"/>
      <point x="299" y="705"/>
      <point x="240" y="682"/>
      <point x="193" y="659" type="curve"/>
      <point x="193" y="1493" type="line"/>
      <point x="1004" y="1493" type="line"/>
      <point x="1004" y="1233" type="line"/>
      <point x="432" y="1233" type="line"/>
      <point x="432" y="956" type="line"/>
      <point x="445" y="961"/>
      <point x="478" y="972"/>
      <point x="509" y="977" type="curve" smooth="yes"/>
      <point x="533" y="981"/>
      <point x="570" y="983"/>
      <point x="598" y="983" type="curve" smooth="yes"/>
      <point x="739" y="983"/>
      <point x="868" y="935"/>
      <point x="957" y="844" type="curve" smooth="yes"/>
      <point x="1044" y="756"/>
      <point x="1094" y="630"/>
      <point x="1094" y="477" type="curve" smooth="yes"/>
      <point x="1094" y="318"/>
      <point x="1040" y="194"/>
      <point x="945" y="107" type="curve" smooth="yes"/>
      <point x="850" y="20"/>
      <point x="716" y="-29"/>
      <point x="533" y="-29" type="curve" smooth="yes"/>
    </contour>
  </outline>
</glyph>
<glyph name="colon" format="1">
  <advance width="1233"/>
  <unicode hex="003A"/>
  <note>
	colon
  </note>
  <outline>
    <contour>
      <point x="567" y="752"/>
      <point x="524" y="774"/>
      <point x="495" y="803" type="curve" smooth="yes"/>
      <point x="459" y="839"/>
      <point x="443" y="885"/>
      <point x="443" y="936" type="curve" smooth="yes"/>
      <point x="443" y="993"/>
      <point x="463" y="1038"/>
      <point x="494" y="1069" type="curve" smooth="yes"/>
      <point x="529" y="1104"/>
      <point x="574" y="1120"/>
      <point x="621" y="1120" type="curve" smooth="yes"/>
      <point x="668" y="1120"/>
      <point x="711" y="1104"/>
      <point x="746" y="1069" type="curve" smooth="yes"/>
      <point x="777" y="1038"/>
      <point x="797" y="993"/>
      <point x="797" y="937" type="curve" smooth="yes"/>
      <point x="797" y="881"/>
      <point x="777" y="834"/>
      <point x="746" y="803" type="curve" smooth="yes"/>
      <point x="715" y="772"/>
      <point x="670" y="752"/>
      <point x="619" y="752" type="curve" smooth="yes"/>
    </contour>
    <contour>
      <point x="521" y="36"/>
      <point x="443" y="112"/>
      <point x="443" y="220" type="curve" smooth="yes"/>
      <point x="443" y="328"/>
      <point x="521" y="404"/>
      <point x="620" y="404" type="curve" smooth="yes"/>
      <point x="668" y="404"/>
      <point x="711" y="388"/>
      <point x="746" y="353" type="curve" smooth="yes"/>
      <point x="777" y="322"/>
      <point x="797" y="277"/>
      <point x="797" y="220" type="curve" smooth="yes"/>
      <point x="797" y="164"/>
      <point x="778" y="119"/>
      <point x="746" y="87" type="curve" smooth="yes"/>
      <point x="711" y="52"/>
      <point x="668" y="36"/>
      <point x="620" y="36" type="curve" smooth="yes"/>
    </contour>
  </outline>
</glyph>
<glyph name="B" format="1">
  <advance width="1233"/>
  <unicode hex="0042"/>
  <note>
	B
  </note>
  <outline>
    <contour>
      <point x="125" y="1495" type="line"/>
      <point x="606" y="1495" type="line" smooth="yes"/>
      <point x="939" y="1495"/>
      <point x="1106" y="1369"/>
      <point x="1106" y="1118" type="curve" smooth="yes"/>
      <point x="1106" y="927"/>
      <point x="1007" y="818"/>
      <point x="815" y="799" type="curve"/>
      <point x="932" y="788"/>
      <point x="1017" y="748"/>
      <point x="1073" y="684" type="curve" smooth="yes"/>
      <point x="1130" y="619"/>
      <point x="1159" y="527"/>
      <point x="1159" y="409" type="curve" smooth="yes"/>
      <point x="1159" y="122"/>
      <point x="997" y="0"/>
      <point x="606" y="0" type="curve" smooth="yes"/>
      <point x="125" y="0" type="line"/>
    </contour>
    <contour>
      <point x="606" y="913" type="line" smooth="yes"/>
      <point x="686" y="913"/>
      <point x="734" y="926"/>
      <point x="766" y="954" type="curve" smooth="yes"/>
      <point x="797" y="981"/>
      <point x="813" y="1018"/>
      <point x="813" y="1085" type="curve" smooth="yes"/>
      <point x="813" y="1144"/>
      <point x="800" y="1187"/>
      <point x="765" y="1218" type="curve" smooth="yes"/>
      <point x="737" y="1242"/>
      <point x="693" y="1260"/>
      <point x="606" y="1260" type="curve" smooth="yes"/>
      <point x="410" y="1260" type="line"/>
      <point x="410" y="913" type="line"/>
    </contour>
    <contour>
      <point x="606" y="236" type="line" smooth="yes"/>
      <point x="794" y="236"/>
      <point x="860" y="292"/>
      <point x="860" y="451" type="curve" smooth="yes"/>
      <point x="860" y="612"/>
      <point x="787" y="678"/>
      <point x="606" y="678" type="curve" smooth="yes"/>
      <point x="410" y="678" type="line"/>
      <point x="410" y="236" type="line"/>
    </contour>
  </outline>
</glyph>
<glyph name="P" format="1">
  <advance width="1233"/>
  <unicode hex="0050"/>
  <note>
	P
  </note>
  <outline>
    <contour>
      <point x="166" y="1493" type="line"/>
      <point x="571" y="1493" type="line" smooth="yes"/>
      <point x="982" y="1493"/>
      <point x="1151" y="1355"/>
      <point x="1151" y="1026" type="curve" smooth="yes"/>
      <point x="1151" y="695"/>
      <point x="982" y="559"/>
      <point x="571" y="559" type="curve" smooth="yes"/>
      <point x="461" y="559" type="line"/>
      <point x="461" y="0" type="line"/>
      <point x="166" y="0" type="line"/>
    </contour>
    <contour>
      <point x="582" y="807" type="line" smooth="yes"/>
      <point x="777" y="807"/>
      <point x="844" y="865"/>
      <point x="844" y="1026" type="curve" smooth="yes"/>
      <point x="844" y="1187"/>
      <point x="777" y="1245"/>
      <point x="582" y="1245" type="curve" smooth="yes"/>
      <point x="461" y="1245" type="line"/>
      <point x="461" y="807" type="line"/>
    </contour>
  </outline>
</glyph>
<glyph name="c" format="1">
  <advance width="1233"/>
  <unicode hex="0063"/>
  <note>
	c
  </note>
  <outline>
    <contour>
      <point x="351" y="-29"/>
      <point x="148" y="192"/>
      <point x="148" y="559" type="curve" smooth="yes"/>
      <point x="148" y="927"/>
      <point x="356" y="1149"/>
      <point x="699" y="1149" type="curve" smooth="yes"/>
      <point x="822" y="1149"/>
      <point x="930" y="1122"/>
      <point x="1041" y="1063" type="curve"/>
      <point x="1041" y="795" type="line"/>
      <point x="998" y="832"/>
      <point x="948" y="861"/>
      <point x="901" y="880" type="curve" smooth="yes"/>
      <point x="854" y="899"/>
      <point x="798" y="909"/>
      <point x="741" y="909" type="curve" smooth="yes"/>
      <point x="641" y="909"/>
      <point x="571" y="877"/>
      <point x="522" y="818" type="curve" smooth="yes"/>
      <point x="471" y="757"/>
      <point x="445" y="670"/>
      <point x="445" y="559" type="curve" smooth="yes"/>
      <point x="445" y="336"/>
      <point x="550" y="211"/>
      <point x="742" y="211" type="curve" smooth="yes"/>
      <point x="798" y="211"/>
      <point x="851" y="221"/>
      <point x="901" y="240" type="curve" smooth="yes"/>
      <point x="944" y="256"/>
      <point x="994" y="283"/>
      <point x="1041" y="326" type="curve"/>
      <point x="1041" y="57" type="line"/>
      <point x="988" y="26"/>
      <point x="938" y="8"/>
      <point x="882" y="-7" type="curve" smooth="yes"/>
      <point x="826" y="-22"/>
      <point x="771" y="-29"/>
      <point x="702" y="-29" type="curve" smooth="yes"/>
    </contour>
  </outline>
</glyph>
<glyph name="s" format="1">
  <advance width="1233"/>
  <unicode hex="0073"/>
  <note>
	s
  </note>
  <outline>
    <contour>
      <point x="548" y="-29"/>
      <point x="473" y="-23"/>
      <point x="405" y="-12" type="curve" smooth="yes"/>
      <point x="337" y="-1"/>
      <point x="263" y="18"/>
      <point x="190" y="41" type="curve"/>
      <point x="190" y="297" type="line"/>
      <point x="255" y="260"/>
      <point x="321" y="232"/>
      <point x="388" y="213" type="curve" smooth="yes"/>
      <point x="456" y="194"/>
      <point x="517" y="184"/>
      <point x="585" y="184" type="curve" smooth="yes"/>
      <point x="651" y="184"/>
      <point x="702" y="194"/>
      <point x="738" y="214" type="curve" smooth="yes"/>
      <point x="773" y="234"/>
      <point x="791" y="260"/>
      <point x="791" y="307" type="curve" smooth="yes"/>
      <point x="791" y="338"/>
      <point x="784" y="362"/>
      <point x="752" y="386" type="curve" smooth="yes"/>
      <point x="720" y="410"/>
      <point x="666" y="431"/>
      <point x="575" y="451" type="curve" smooth="yes"/>
      <point x="494" y="469" type="line" smooth="yes"/>
      <point x="270" y="520"/>
      <point x="172" y="626"/>
      <point x="172" y="803" type="curve" smooth="yes"/>
      <point x="172" y="1022"/>
      <point x="335" y="1147"/>
      <point x="619" y="1147" type="curve" smooth="yes"/>
      <point x="683" y="1147"/>
      <point x="753" y="1141"/>
      <point x="808" y="1132" type="curve" smooth="yes"/>
      <point x="863" y="1123"/>
      <point x="935" y="1105"/>
      <point x="991" y="1085" type="curve"/>
      <point x="991" y="829" type="line"/>
      <point x="936" y="864"/>
      <point x="876" y="892"/>
      <point x="823" y="908" type="curve" smooth="yes"/>
      <point x="770" y="924"/>
      <point x="708" y="934"/>
      <point x="643" y="934" type="curve" smooth="yes"/>
      <point x="583" y="934"/>
      <point x="535" y="926"/>
      <point x="500" y="906" type="curve" smooth="yes"/>
      <point x="465" y="887"/>
      <point x="449" y="857"/>
      <point x="449" y="826" type="curve" smooth="yes"/>
      <point x="449" y="796"/>
      <point x="466" y="770"/>
      <point x="500" y="749" type="curve" smooth="yes"/>
      <point x="534" y="728"/>
      <point x="588" y="708"/>
      <point x="663" y="691" type="curve"/>
      <point x="674" y="688" type="line"/>
      <point x="758" y="668" type="line" smooth="yes"/>
      <point x="863" y="643"/>
      <point x="942" y="603"/>
      <point x="993" y="546" type="curve" smooth="yes"/>
      <point x="1044" y="489"/>
      <point x="1067" y="409"/>
      <point x="1067" y="317" type="curve" smooth="yes"/>
      <point x="1067" y="202"/>
      <point x="1029" y="115"/>
      <point x="954" y="58" type="curve" smooth="yes"/>
      <point x="878" y="-1"/>
      <point x="763" y="-29"/>
      <point x="616" y="-29" type="curve" smooth="yes"/>
    </contour>
  </outline>
</glyph>
<glyph name="z" format="1">
  <advance width="1233"/>
  <unicode hex="007A"/>
  <note>
	z
  </note>
  <outline>
    <contour>
      <point x="162" y="229" type="line"/>
      <point x="752" y="901" type="line"/>
      <point x="186" y="901" type="line"/>
      <point x="186" y="1120" type="line"/>
      <point x="1081" y="1120" type="line"/>
      <point x="1081" y="891" type="line"/>
      <point x="492" y="219" type="line"/>
      <point x="1081" y="219" type="line"/>
      <point x="1081" y="0" type="line"/>
      <point x="162" y="0" type="line"/>
    </contour>
  </outline>
</glyph>
<glyph name="braceright" format="1">
  <advance width="1233"/>
  <unicode hex="007D"/>
  <note>
	braceright
  </note>
  <outline>
    <contour>
      <point x="230" y="-143" type="line"/>
      <point x="351" y="-143" type="line" smooth="yes"/>
      <point x="490" y="-143"/>
      <point x="527" y="-105"/>
      <point x="527" y="86" type="curve" smooth="yes"/>
      <point x="527" y="291" type="line" smooth="yes"/>
      <point x="527" y="401"/>
      <point x="543" y="478"/>
      <point x="576" y="523" type="curve" smooth="yes"/>
      <point x="611" y="570"/>
      <point x="671" y="599"/>
      <point x="750" y="612" type="curve"/>
      <point x="581" y="639"/>
      <point x="527" y="710"/>
      <point x="527" y="930" type="curve" smooth="yes"/>
      <point x="527" y="1139" type="line" smooth="yes"/>
      <point x="527" y="1232"/>
      <point x="515" y="1294"/>
      <point x="492" y="1323" type="curve" smooth="yes"/>
      <point x="467" y="1354"/>
      <point x="415" y="1366"/>
      <point x="351" y="1366" type="curve" smooth="yes"/>
      <point x="230" y="1366" type="line"/>
      <point x="230" y="1556" type="line"/>
      <point x="380" y="1556" type="line" smooth="yes"/>
      <point x="712" y="1556"/>
      <point x="795" y="1483"/>
      <point x="795" y="1188" type="curve" smooth="yes"/>
      <point x="795" y="973" type="line" smooth="yes"/>
      <point x="795" y="865"/>
      <point x="815" y="802"/>
      <point x="850" y="765" type="curve" smooth="yes"/>
      <point x="885" y="728"/>
      <point x="945" y="707"/>
      <point x="1045" y="707" type="curve" smooth="yes"/>
      <point x="1137" y="707" type="line"/>
      <point x="1137" y="516" type="line"/>
      <point x="1045" y="516" type="line" smooth="yes"/>
      <point x="857" y="516"/>
      <point x="795" y="450"/>
      <point x="795" y="250" type="curve" smooth="yes"/>
      <point x="795" y="35" type="line" smooth="yes"/>
      <point x="795" y="-260"/>
      <point x="709" y="-334"/>
      <point x="380" y="-334" type="curve" smooth="yes"/>
      <point x="230" y="-334" type="line"/>
    </contour>
  </outline>
</glyph>
<glyph name="section" format="1">
  <advance width="1233"/>
  <unicode hex="00A7"/>
  <note>
	section
  </note>
  <outline>
    <contour>
      <point x="550" y="-195"/>
      <point x="484" y="-190"/>
      <point x="429" y="-181" type="curve" smooth="yes"/>
      <point x="374" y="-172"/>
      <point x="313" y="-156"/>
      <point x="258" y="-137" type="curve"/>
      <point x="258" y="92" type="line"/>
      <point x="318" y="71"/>
      <point x="369" y="58"/>
      <point x="424" y="47" type="curve" smooth="yes"/>
      <point x="476" y="36"/>
      <point x="524" y="31"/>
      <point x="571" y="31" type="curve" smooth="yes"/>
      <point x="632" y="31"/>
      <point x="669" y="41"/>
      <point x="696" y="60" type="curve" smooth="yes"/>
      <point x="723" y="79"/>
      <point x="737" y="107"/>
      <point x="737" y="134" type="curve" smooth="yes"/>
      <point x="737" y="162"/>
      <point x="722" y="188"/>
      <point x="688" y="219" type="curve" smooth="yes"/>
      <point x="654" y="250"/>
      <point x="600" y="283"/>
      <point x="523" y="326" type="curve" smooth="yes"/>
      <point x="486" y="346" type="line" smooth="yes"/>
      <point x="375" y="406"/>
      <point x="297" y="463"/>
      <point x="246" y="520" type="curve" smooth="yes"/>
      <point x="194" y="577"/>
      <point x="170" y="635"/>
      <point x="170" y="696" type="curve" smooth="yes"/>
      <point x="170" y="747"/>
      <point x="187" y="805"/>
      <point x="222" y="852" type="curve" smooth="yes"/>
      <point x="254" y="895"/>
      <point x="304" y="931"/>
      <point x="371" y="954" type="curve"/>
      <point x="275" y="1021"/>
      <point x="236" y="1098"/>
      <point x="236" y="1205" type="curve" smooth="yes"/>
      <point x="236" y="1396"/>
      <point x="386" y="1520"/>
      <point x="617" y="1520" type="curve" smooth="yes"/>
      <point x="665" y="1520"/>
      <point x="716" y="1515"/>
      <point x="769" y="1505" type="curve" smooth="yes"/>
      <point x="826" y="1494"/>
      <point x="877" y="1479"/>
      <point x="930" y="1460" type="curve"/>
      <point x="930" y="1235" type="line"/>
      <point x="873" y="1255"/>
      <point x="822" y="1270"/>
      <point x="779" y="1280" type="curve" smooth="yes"/>
      <point x="738" y="1289"/>
      <point x="692" y="1294"/>
      <point x="657" y="1294" type="curve" smooth="yes"/>
      <point x="608" y="1294"/>
      <point x="570" y="1284"/>
      <point x="541" y="1265" type="curve" smooth="yes"/>
      <point x="510" y="1244"/>
      <point x="498" y="1215"/>
      <point x="498" y="1188" type="curve" smooth="yes"/>
      <point x="498" y="1157"/>
      <point x="515" y="1130"/>
      <point x="548" y="1102" type="curve" smooth="yes"/>
      <point x="581" y="1073"/>
      <point x="632" y="1041"/>
      <point x="701" y="1004" type="curve" smooth="yes"/>
      <point x="707" y="1001"/>
      <point x="711" y="998"/>
      <point x="714" y="997" type="curve" smooth="yes"/>
      <point x="717" y="996"/>
      <point x="719" y="995"/>
      <point x="720" y="994" type="curve" smooth="yes"/>
      <point x="721" y="993"/>
      <point x="722" y="993"/>
      <point x="723" y="993" type="curve"/>
      <point x="724" y="992"/>
      <point x="726" y="991"/>
      <point x="729" y="989" type="curve"/>
      <point x="805" y="948"/>
      <point x="861" y="917"/>
      <point x="905" y="890" type="curve" smooth="yes"/>
      <point x="948" y="862"/>
      <point x="978" y="837"/>
      <point x="1002" y="809" type="curve" smooth="yes"/>
      <point x="1041" y="762"/>
      <point x="1061" y="705"/>
      <point x="1061" y="638" type="curve" smooth="yes"/>
      <point x="1061" y="518"/>
      <point x="1001" y="436"/>
      <point x="864" y="373" type="curve"/>
      <point x="957" y="308"/>
      <point x="999" y="229"/>
      <point x="999" y="118" type="curve" smooth="yes"/>
      <point x="999" y="23"/>
      <point x="966" y="-56"/>
      <point x="895" y="-112" type="curve" smooth="yes"/>
      <point x="828" y="-165"/>
      <point x="731" y="-195"/>
      <point x="602" y="-195" type="curve" smooth="yes"/>
    </contour>
    <contour>
      <point x="747" y="496"/>
      <point x="776" y="524"/>
      <point x="791" y="544" type="curve"/>
      <point x="807" y="567"/>
      <point x="815" y="594"/>
      <point x="815" y="613" type="curve" smooth="yes"/>
      <point x="815" y="644"/>
      <point x="793" y="678"/>
      <point x="748" y="717" type="curve" smooth="yes"/>
      <point x="703" y="755"/>
      <point x="637" y="796"/>
      <point x="550" y="840" type="curve" smooth="yes"/>
      <point x="518" y="856" type="line"/>
      <point x="446" y="809"/>
      <point x="414" y="764"/>
      <point x="414" y="712" type="curve" smooth="yes"/>
      <point x="414" y="675"/>
      <point x="430" y="642"/>
      <point x="463" y="613" type="curve" smooth="yes"/>
      <point x="479" y="598"/>
      <point x="503" y="583"/>
      <point x="543" y="560" type="curve" smooth="yes"/>
      <point x="582" y="537"/>
      <point x="635" y="509"/>
      <point x="711" y="473" type="curve"/>
    </contour>
  </outline>
</glyph>
<glyph name="ordmasculine" format="1">
  <advance width="1233"/>
  <unicode hex="00BA"/>
  <note>
	ordmasculine
  </note>
  <outline>
    <contour>
      <point x="521" y="698"/>
      <point x="437" y="737"/>
      <point x="373" y="809" type="curve" smooth="yes"/>
      <point x="309" y="881"/>
      <point x="274" y="976"/>
      <point x="274" y="1107" type="curve" smooth="yes"/>
      <point x="274" y="1359"/>
      <point x="414" y="1520"/>
      <point x="637" y="1520" type="curve" smooth="yes"/>
      <point x="858" y="1520"/>
      <point x="999" y="1360"/>
      <point x="999" y="1107" type="curve" smooth="yes"/>
      <point x="999" y="982"/>
      <point x="969" y="885"/>
      <point x="902" y="809" type="curve" smooth="yes"/>
      <point x="837" y="735"/>
      <point x="748" y="698"/>
      <point x="637" y="698" type="curve" smooth="yes"/>
    </contour>
    <contour>
      <point x="684" y="874"/>
      <point x="724" y="894"/>
      <point x="753" y="937" type="curve" smooth="yes"/>
      <point x="781" y="978"/>
      <point x="795" y="1035"/>
      <point x="795" y="1108" type="curve" smooth="yes"/>
      <point x="795" y="1181"/>
      <point x="781" y="1238"/>
      <point x="753" y="1280" type="curve" smooth="yes"/>
      <point x="726" y="1320"/>
      <point x="688" y="1343"/>
      <point x="637" y="1343" type="curve" smooth="yes"/>
      <point x="582" y="1343"/>
      <point x="546" y="1316"/>
      <point x="522" y="1281" type="curve" smooth="yes"/>
      <point x="493" y="1238"/>
      <point x="479" y="1181"/>
      <point x="479" y="1108" type="curve" smooth="yes"/>
      <point x="479" y="1035"/>
      <point x="493" y="978"/>
      <point x="521" y="937" type="curve" smooth="yes"/>
      <point x="546" y="900"/>
      <point x="585" y="874"/>
      <point x="637" y="874" type="curve" smooth="yes"/>
    </contour>
    <contour>
      <point x="293" y="598" type="line"/>
      <point x="981" y="598" type="line"/>
      <point x="981" y="428" type="line"/>
      <point x="293" y="428" type="line"/>
    </contour>
  </outline>
</glyph>
<glyph name="onequarter" format="1">
  <advance width="1233"/>
  <unicode hex="00BC"/>
  <note>
	onequarter
  </note>
  <outline>
    <contour>
      <point x="55" y="969" type="line"/>
      <point x="281" y="969" type="line"/>
      <point x="281" y="1512" type="line"/>
      <point x="61" y="1469" type="line"/>
      <point x="61" y="1618" type="line"/>
      <point x="283" y="1659" type="line"/>
      <point x="477" y="1659" type="line"/>
      <point x="477" y="969" type="line"/>
      <point x="703" y="969" type="line"/>
      <point x="703" y="824" type="line"/>
      <point x="55" y="824" type="line"/>
    </contour>
    <contour>
      <point x="47" y="618" type="line"/>
      <point x="1106" y="881" type="line"/>
      <point x="1143" y="762" type="line"/>
      <point x="84" y="500" type="line"/>
    </contour>
    <contour>
      <point x="823" y="-90" type="line"/>
      <point x="430" y="-90" type="line"/>
      <point x="430" y="72" type="line"/>
      <point x="805" y="565" type="line"/>
      <point x="1009" y="565" type="line"/>
      <point x="1009" y="53" type="line"/>
      <point x="1118" y="53" type="line"/>
      <point x="1118" y="-90" type="line"/>
      <point x="1009" y="-90" type="line"/>
      <point x="1009" y="-270" type="line"/>
      <point x="823" y="-270" type="line"/>
    </contour>
    <contour>
      <point x="823" y="53" type="line"/>
      <point x="823" y="383" type="line"/>
      <point x="573" y="53" type="line"/>
    </contour>
  </outline>
</glyph>
<glyph name="onehalf" format="1">
  <advance width="1233"/>
  <unicode hex="00BD"/>
  <note>
	onehalf
  </note>
  <outline>
    <contour>
      <point x="55" y="969" type="line"/>
      <point x="281" y="969" type="line"/>
      <point x="281" y="1512" type="line"/>
      <point x="61" y="1469" type="line"/>
      <point x="61" y="1618" type="line"/>
      <point x="283" y="1659" type="line"/>
      <point x="477" y="1659" type="line"/>
      <point x="477" y="969" type="line"/>
      <point x="703" y="969" type="line"/>
      <point x="703" y="824" type="line"/>
      <point x="55" y="824" type="line"/>
    </contour>
    <contour>
      <point x="47" y="618" type="line"/>
      <point x="1106" y="881" type="line"/>
      <point x="1143" y="762" type="line"/>
      <point x="84" y="500" type="line"/>
    </contour>
    <contour>
      <point x="475" y="-129" type="line"/>
      <point x="492" y="-114"/>
      <point x="513" y="-97"/>
      <point x="536" y="-78" type="curve" smooth="yes"/>
      <point x="559" y="-59"/>
      <point x="586" y="-36"/>
      <point x="616" y="-11" type="curve" smooth="yes"/>
      <point x="722" y="78"/>
      <point x="801" y="150"/>
      <point x="853" y="206" type="curve" smooth="yes"/>
      <point x="904" y="262"/>
      <point x="930" y="306"/>
      <point x="930" y="337" type="curve" smooth="yes"/>
      <point x="930" y="360"/>
      <point x="918" y="391"/>
      <point x="887" y="412" type="curve" smooth="yes"/>
      <point x="858" y="432"/>
      <point x="819" y="442"/>
      <point x="770" y="442" type="curve" smooth="yes"/>
      <point x="730" y="442"/>
      <point x="684" y="436"/>
      <point x="645" y="425" type="curve" smooth="yes"/>
      <point x="606" y="414"/>
      <point x="548" y="396"/>
      <point x="500" y="373" type="curve"/>
      <point x="500" y="537" type="line"/>
      <point x="543" y="550"/>
      <point x="602" y="564"/>
      <point x="646" y="571" type="curve" smooth="yes"/>
      <point x="683" y="578"/>
      <point x="736" y="582"/>
      <point x="788" y="582" type="curve" smooth="yes"/>
      <point x="896" y="582"/>
      <point x="985" y="562"/>
      <point x="1046" y="519" type="curve" smooth="yes"/>
      <point x="1109" y="476"/>
      <point x="1139" y="416"/>
      <point x="1139" y="363" type="curve" smooth="yes"/>
      <point x="1139" y="315"/>
      <point x="1113" y="258"/>
      <point x="1057" y="189" type="curve" smooth="yes"/>
      <point x="1000" y="120"/>
      <point x="911" y="39"/>
      <point x="784" y="-60" type="curve" smooth="yes"/>
      <point x="765" y="-75"/>
      <point x="753" y="-84"/>
      <point x="748" y="-88" type="curve" smooth="yes"/>
      <point x="742" y="-93"/>
      <point x="738" y="-96"/>
      <point x="736" y="-97" type="curve" smooth="yes"/>
      <point x="734" y="-98"/>
      <point x="731" y="-100"/>
      <point x="728" y="-103" type="curve" smooth="yes"/>
      <point x="725" y="-106"/>
      <point x="716" y="-114"/>
      <point x="701" y="-125" type="curve"/>
      <point x="1141" y="-125" type="line"/>
      <point x="1141" y="-270" type="line"/>
      <point x="475" y="-270" type="line"/>
    </contour>
  </outline>
</glyph>
<glyph name="threequarters" format="1">
  <advance width="1233"/>
  <unicode hex="00BE"/>
  <note>
	threequarters
  </note>
  <outline>
    <contour>
      <point x="308" y="809"/>
      <point x="260" y="813"/>
      <point x="209" y="820" type="curve" smooth="yes"/>
      <point x="158" y="827"/>
      <point x="109" y="837"/>
      <point x="60" y="850" type="curve"/>
      <point x="60" y="1004" type="line"/>
      <point x="100" y="988"/>
      <point x="147" y="974"/>
      <point x="203" y="963" type="curve" smooth="yes"/>
      <point x="254" y="954"/>
      <point x="309" y="949"/>
      <point x="353" y="949" type="curve" smooth="yes"/>
      <point x="420" y="949"/>
      <point x="460" y="960"/>
      <point x="492" y="981" type="curve" smooth="yes"/>
      <point x="523" y="1002"/>
      <point x="539" y="1032"/>
      <point x="539" y="1070" type="curve" smooth="yes"/>
      <point x="539" y="1150"/>
      <point x="470" y="1198"/>
      <point x="355" y="1198" type="curve" smooth="yes"/>
      <point x="244" y="1198" type="line"/>
      <point x="244" y="1344" type="line"/>
      <point x="355" y="1344" type="line" smooth="yes"/>
      <point x="454" y="1344"/>
      <point x="514" y="1379"/>
      <point x="514" y="1439" type="curve" smooth="yes"/>
      <point x="514" y="1464"/>
      <point x="504" y="1490"/>
      <point x="475" y="1509" type="curve" smooth="yes"/>
      <point x="448" y="1526"/>
      <point x="414" y="1534"/>
      <point x="359" y="1534" type="curve" smooth="yes"/>
      <point x="320" y="1534"/>
      <point x="274" y="1530"/>
      <point x="227" y="1523" type="curve" smooth="yes"/>
      <point x="180" y="1516"/>
      <point x="135" y="1504"/>
      <point x="90" y="1489" type="curve"/>
      <point x="90" y="1641" type="line"/>
      <point x="133" y="1652"/>
      <point x="180" y="1660"/>
      <point x="229" y="1667" type="curve" smooth="yes"/>
      <point x="276" y="1674"/>
      <point x="321" y="1676"/>
      <point x="364" y="1676" type="curve" smooth="yes"/>
      <point x="465" y="1676"/>
      <point x="556" y="1659"/>
      <point x="620" y="1618" type="curve" smooth="yes"/>
      <point x="680" y="1579"/>
      <point x="711" y="1526"/>
      <point x="711" y="1458" type="curve" smooth="yes"/>
      <point x="711" y="1361"/>
      <point x="640" y="1299"/>
      <point x="508" y="1276" type="curve"/>
      <point x="656" y="1256"/>
      <point x="736" y="1181"/>
      <point x="736" y="1056" type="curve" smooth="yes"/>
      <point x="736" y="896"/>
      <point x="604" y="809"/>
      <point x="361" y="809" type="curve" smooth="yes"/>
    </contour>
    <contour>
      <point x="47" y="618" type="line"/>
      <point x="1106" y="881" type="line"/>
      <point x="1143" y="762" type="line"/>
      <point x="84" y="500" type="line"/>
    </contour>
    <contour>
      <point x="823" y="-90" type="line"/>
      <point x="430" y="-90" type="line"/>
      <point x="430" y="72" type="line"/>
      <point x="805" y="565" type="line"/>
      <point x="1009" y="565" type="line"/>
      <point x="1009" y="53" type="line"/>
      <point x="1118" y="53" type="line"/>
      <point x="1118" y="-90" type="line"/>
      <point x="1009" y="-90" type="line"/>
      <point x="1009" y="-270" type="line"/>
      <point x="823" y="-270" type="line"/>
    </contour>
    <contour>
      <point x="823" y="53" type="line"/>
      <point x="823" y="383" type="line"/>
      <point x="573" y="53" type="line"/>
    </contour>
  </outline>
</glyph>
<glyph name="Atilde" format="1">
  <advance width="1233"/>
  <unicode hex="00C3"/>
  <note>
	Atilde
  </note>
  <outline>
    <contour>
      <point x="268" y="1618" type="line" smooth="yes"/>
      <point x="268" y="1691"/>
      <point x="289" y="1750"/>
      <point x="322" y="1789" type="curve" smooth="yes"/>
      <point x="359" y="1833"/>
      <point x="411" y="1854"/>
      <point x="466" y="1854" type="curve" smooth="yes"/>
      <point x="491" y="1854"/>
      <point x="515" y="1850"/>
      <point x="539" y="1842" type="curve" smooth="yes"/>
      <point x="558" y="1835"/>
      <point x="590" y="1821"/>
      <point x="614" y="1805" type="curve" smooth="yes"/>
      <point x="674" y="1766" type="line" smooth="yes"/>
      <point x="682" y="1761"/>
      <point x="695" y="1753"/>
      <point x="715" y="1745" type="curve" smooth="yes"/>
      <point x="728" y="1740"/>
      <point x="738" y="1737"/>
      <point x="750" y="1737" type="curve" smooth="yes"/>
      <point x="798" y="1737"/>
      <point x="825" y="1777"/>
      <point x="825" y="1854" type="curve"/>
      <point x="965" y="1854" type="line"/>
      <point x="965" y="1853"/>
      <point x="965" y="1851"/>
      <point x="965" y="1848" type="curve" smooth="yes"/>
      <point x="965" y="1845"/>
      <point x="965" y="1842"/>
      <point x="964" y="1839" type="curve" smooth="yes"/>
      <point x="963" y="1836"/>
      <point x="963" y="1833"/>
      <point x="963" y="1831" type="curve" smooth="yes"/>
      <point x="963" y="1829"/>
      <point x="963" y="1827"/>
      <point x="963" y="1826" type="curve" smooth="yes"/>
      <point x="963" y="1754"/>
      <point x="945" y="1696"/>
      <point x="910" y="1653" type="curve" smooth="yes"/>
      <point x="871" y="1606"/>
      <point x="823" y="1588"/>
      <point x="768" y="1588" type="curve" smooth="yes"/>
      <point x="744" y="1588"/>
      <point x="720" y="1592"/>
      <point x="696" y="1599" type="curve" smooth="yes"/>
      <point x="669" y="1607"/>
      <point x="646" y="1618"/>
      <point x="618" y="1637" type="curve" smooth="yes"/>
      <point x="564" y="1671" type="line"/>
      <point x="563" y="1672"/>
      <point x="561" y="1673"/>
      <point x="560" y="1674" type="curve"/>
      <point x="558" y="1675"/>
      <point x="555" y="1677"/>
      <point x="552" y="1678" type="curve"/>
      <point x="524" y="1693"/>
      <point x="502" y="1704"/>
      <point x="479" y="1704" type="curve" smooth="yes"/>
      <point x="436" y="1704"/>
      <point x="408" y="1659"/>
      <point x="408" y="1594" type="curve" smooth="yes"/>
      <point x="408" y="1588" type="line"/>
      <point x="268" y="1588" type="line"/>
    </contour>
    <contour>
      <point x="436" y="1493" type="line"/>
      <point x="797" y="1493" type="line"/>
      <point x="1200" y="0" type="line"/>
      <point x="905" y="0" type="line"/>
      <point x="813" y="369" type="line"/>
      <point x="418" y="369" type="line"/>
      <point x="328" y="0" type="line"/>
      <point x="33" y="0" type="line"/>
    </contour>
    <contour>
      <point x="756" y="612" type="line"/>
      <point x="616" y="1223" type="line"/>
      <point x="477" y="612" type="line"/>
    </contour>
  </outline>
</glyph>
<glyph name="Ecircumflex" format="1">
  <advance width="1233"/>
  <unicode hex="00CA"/>
  <note>
	Ecircumflex
  </note>
  <outline>
    <contour>
      <point x="492" y="1852" type="line"/>
      <point x="801" y="1852" type="line"/>
      <point x="1024" y="1588" type="line"/>
      <point x="846" y="1588" type="line"/>
      <point x="647" y="1749" type="line"/>
      <point x="449" y="1588" type="line"/>
      <point x="271" y="1588" type="line"/>
    </contour>
    <contour>
      <point x="168" y="1493" type="line"/>
      <point x="1098" y="1493" type="line"/>
      <point x="1098" y="1233" type="line"/>
      <point x="463" y="1233" type="line"/>
      <point x="463" y="911" type="line"/>
      <point x="1038" y="911" type="line"/>
      <point x="1038" y="651" type="line"/>
      <point x="463" y="651" type="line"/>
      <point x="463" y="260" type="line"/>
      <point x="1098" y="260" type="line"/>
      <point x="1098" y="0" type="line"/>
      <point x="168" y="0" type="line"/>
    </contour>
  </outline>
</glyph>
<glyph name="ccedilla" format="1">
  <advance width="1233"/>
  <unicode hex="00E7"/>
  <note>
	ccedilla
  </note>
  <outline>
    <contour>
      <point x="661" y="909"/>
      <point x="591" y="877"/>
      <point x="542" y="818" type="curve" smooth="yes"/>
      <point x="491" y="757"/>
      <point x="465" y="670"/>
      <point x="465" y="559" type="curve" smooth="yes"/>
      <point x="465" y="336"/>
      <point x="570" y="211"/>
      <point x="762" y="211" type="curve" smooth="yes"/>
      <point x="818" y="211"/>
      <point x="871" y="221"/>
      <point x="921" y="240" type="curve" smooth="yes"/>
      <point x="964" y="256"/>
      <point x="1014" y="283"/>
      <point x="1061" y="326" type="curve"/>
      <point x="1061" y="57" type="line"/>
      <point x="1008" y="26"/>
      <point x="958" y="8"/>
      <point x="902" y="-7" type="curve" smooth="yes"/>
      <point x="869" y="-15"/>
      <point x="835" y="-21"/>
      <point x="801" y="-25" type="curve"/>
      <point x="830" y="-60"/>
      <point x="851" y="-91"/>
      <point x="864" y="-115" type="curve" smooth="yes"/>
      <point x="882" y="-149"/>
      <point x="891" y="-184"/>
      <point x="891" y="-221" type="curve" smooth="yes"/>
      <point x="891" y="-282"/>
      <point x="868" y="-327"/>
      <point x="829" y="-356" type="curve" smooth="yes"/>
      <point x="794" y="-383"/>
      <point x="740" y="-401"/>
      <point x="643" y="-401" type="curve" smooth="yes"/>
      <point x="611" y="-401"/>
      <point x="576" y="-399"/>
      <point x="543" y="-395" type="curve" smooth="yes"/>
      <point x="518" y="-392"/>
      <point x="498" y="-388"/>
      <point x="484" y="-385" type="curve" smooth="yes"/>
      <point x="469" y="-382"/>
      <point x="454" y="-378"/>
      <point x="439" y="-375" type="curve"/>
      <point x="439" y="-219" type="line"/>
      <point x="470" y="-230"/>
      <point x="498" y="-238"/>
      <point x="526" y="-245" type="curve" smooth="yes"/>
      <point x="554" y="-251"/>
      <point x="580" y="-254"/>
      <point x="604" y="-254" type="curve" smooth="yes"/>
      <point x="680" y="-254"/>
      <point x="727" y="-221"/>
      <point x="727" y="-170" type="curve" smooth="yes"/>
      <point x="727" y="-151"/>
      <point x="720" y="-128"/>
      <point x="706" y="-101" type="curve" smooth="yes"/>
      <point x="695" y="-80"/>
      <point x="680" y="-55"/>
      <point x="659" y="-27" type="curve"/>
      <point x="512" y="-16"/>
      <point x="399" y="35"/>
      <point x="314" y="127" type="curve" smooth="yes"/>
      <point x="217" y="232"/>
      <point x="168" y="376"/>
      <point x="168" y="559" type="curve" smooth="yes"/>
      <point x="168" y="927"/>
      <point x="376" y="1149"/>
      <point x="719" y="1149" type="curve" smooth="yes"/>
      <point x="842" y="1149"/>
      <point x="950" y="1122"/>
      <point x="1061" y="1063" type="curve"/>
      <point x="1061" y="795" type="line"/>
      <point x="1018" y="832"/>
      <point x="968" y="861"/>
      <point x="921" y="880" type="curve" smooth="yes"/>
      <point x="874" y="899"/>
      <point x="818" y="909"/>
      <point x="761" y="909" type="curve" smooth="yes"/>
    </contour>
  </outline>
</glyph>
<glyph name="icircumflex" format="1">
  <advance width="1233"/>
  <unicode hex="00EE"/>
  <note>
	icircumflex
  </note>
  <outline>
    <contour>
      <point x="440" y="1673" type="line"/>
      <point x="681" y="1673" type="line"/>
      <point x="937" y="1297" type="line"/>
      <point x="759" y="1297" type="line"/>
      <point x="560" y="1522" type="line"/>
      <point x="362" y="1297" type="line"/>
      <point x="184" y="1297" type="line"/>
    </contour>
    <contour>
      <point x="812" y="-12" type="line" smooth="yes"/>
      <point x="533" y="-12"/>
      <point x="421" y="119"/>
      <point x="421" y="455" type="curve" smooth="yes"/>
      <point x="421" y="895" type="line"/>
      <point x="184" y="895" type="line"/>
      <point x="184" y="1120" type="line"/>
      <point x="714" y="1120" type="line"/>
      <point x="714" y="455" type="line" smooth="yes"/>
      <point x="714" y="280"/>
      <point x="762" y="213"/>
      <point x="894" y="213" type="curve" smooth="yes"/>
      <point x="1128" y="213" type="line"/>
      <point x="1128" y="-12" type="line"/>
    </contour>
  </outline>
</glyph>
<glyph name="ntilde" format="1">
  <advance width="1233"/>
  <unicode hex="00F1"/>
  <note>
	ntilde
  </note>
  <outline>
    <contour>
      <point x="720" y="1297"/>
      <point x="682" y="1310"/>
      <point x="618" y="1354" type="curve" smooth="yes"/>
      <point x="551" y="1399" type="line" smooth="yes"/>
      <point x="522" y="1418"/>
      <point x="500" y="1428"/>
      <point x="479" y="1428" type="curve" smooth="yes"/>
      <point x="454" y="1428"/>
      <point x="438" y="1416"/>
      <point x="427" y="1397" type="curve" smooth="yes"/>
      <point x="414" y="1376"/>
      <point x="408" y="1346"/>
      <point x="408" y="1307" type="curve" smooth="yes"/>
      <point x="408" y="1299" type="line"/>
      <point x="268" y="1299" type="line"/>
      <point x="268" y="1394"/>
      <point x="287" y="1463"/>
      <point x="320" y="1510" type="curve" smooth="yes"/>
      <point x="351" y="1554"/>
      <point x="398" y="1583"/>
      <point x="465" y="1583" type="curve" smooth="yes"/>
      <point x="514" y="1583"/>
      <point x="551" y="1566"/>
      <point x="575" y="1552" type="curve" smooth="yes"/>
      <point x="587" y="1545"/>
      <point x="600" y="1536"/>
      <point x="614" y="1526" type="curve" smooth="yes"/>
      <point x="676" y="1483" type="line" smooth="yes"/>
      <point x="693" y="1471"/>
      <point x="701" y="1467"/>
      <point x="716" y="1460" type="curve"/>
      <point x="729" y="1455"/>
      <point x="740" y="1452"/>
      <point x="751" y="1452" type="curve" smooth="yes"/>
      <point x="798" y="1452"/>
      <point x="825" y="1496"/>
      <point x="825" y="1573" type="curve" smooth="yes"/>
      <point x="825" y="1581" type="line"/>
      <point x="965" y="1581" type="line"/>
      <point x="965" y="1490"/>
      <point x="948" y="1420"/>
      <point x="914" y="1371" type="curve" smooth="yes"/>
      <point x="882" y="1324"/>
      <point x="833" y="1297"/>
      <point x="768" y="1297" type="curve" smooth="yes"/>
    </contour>
    <contour>
      <point x="172" y="1120" type="line"/>
      <point x="434" y="1120" type="line"/>
      <point x="463" y="952" type="line"/>
      <point x="506" y="1076"/>
      <point x="608" y="1147"/>
      <point x="751" y="1147" type="curve" smooth="yes"/>
      <point x="962" y="1147"/>
      <point x="1071" y="1004"/>
      <point x="1071" y="727" type="curve" smooth="yes"/>
      <point x="1071" y="0" type="line"/>
      <point x="780" y="0" type="line"/>
      <point x="780" y="682" type="line" smooth="yes"/>
      <point x="780" y="764"/>
      <point x="769" y="822"/>
      <point x="746" y="857" type="curve" smooth="yes"/>
      <point x="723" y="892"/>
      <point x="684" y="909"/>
      <point x="636" y="909" type="curve" smooth="yes"/>
      <point x="579" y="909"/>
      <point x="540" y="885"/>
      <point x="509" y="838" type="curve" smooth="yes"/>
      <point x="480" y="793"/>
      <point x="463" y="733"/>
      <point x="463" y="641" type="curve" smooth="yes"/>
      <point x="463" y="0" type="line"/>
      <point x="172" y="0" type="line"/>
    </contour>
  </outline>
</glyph>
<glyph name="ocircumflex" format="1">
  <advance width="1233"/>
  <unicode hex="00F4"/>
  <note>
	ocircumflex
  </note>
  <outline>
    <contour>
      <point x="496" y="1596" type="line"/>
      <point x="737" y="1596" type="line"/>
      <point x="993" y="1297" type="line"/>
      <point x="815" y="1297" type="line"/>
      <point x="616" y="1444" type="line"/>
      <point x="418" y="1297" type="line"/>
      <point x="240" y="1297" type="line"/>
    </contour>
    <contour>
      <point x="446" y="-29"/>
      <point x="322" y="34"/>
      <point x="238" y="129" type="curve" smooth="yes"/>
      <point x="145" y="234"/>
      <point x="98" y="384"/>
      <point x="98" y="560" type="curve" smooth="yes"/>
      <point x="98" y="739"/>
      <point x="146" y="885"/>
      <point x="238" y="989" type="curve" smooth="yes"/>
      <point x="330" y="1093"/>
      <point x="459" y="1147"/>
      <point x="616" y="1147" type="curve" smooth="yes"/>
      <point x="780" y="1147"/>
      <point x="907" y="1089"/>
      <point x="995" y="990" type="curve" smooth="yes"/>
      <point x="1083" y="891"/>
      <point x="1135" y="748"/>
      <point x="1135" y="559" type="curve" smooth="yes"/>
      <point x="1135" y="380"/>
      <point x="1088" y="235"/>
      <point x="996" y="130" type="curve" smooth="yes"/>
      <point x="908" y="30"/>
      <point x="780" y="-29"/>
      <point x="617" y="-29" type="curve" smooth="yes"/>
    </contour>
    <contour>
      <point x="757" y="209"/>
      <point x="842" y="339"/>
      <point x="842" y="560" type="curve" smooth="yes"/>
      <point x="842" y="669"/>
      <point x="822" y="755"/>
      <point x="782" y="817" type="curve" smooth="yes"/>
      <point x="741" y="881"/>
      <point x="684" y="909"/>
      <point x="616" y="909" type="curve" smooth="yes"/>
      <point x="541" y="909"/>
      <point x="488" y="874"/>
      <point x="451" y="817" type="curve" smooth="yes"/>
      <point x="411" y="755"/>
      <point x="391" y="669"/>
      <point x="391" y="560" type="curve" smooth="yes"/>
      <point x="391" y="339"/>
      <point x="476" y="209"/>
      <point x="616" y="209" type="curve" smooth="yes"/>
    </contour>
  </outline>
</glyph>
<glyph name="odieresis" format="1">
  <advance width="1233"/>
  <unicode hex="00F6"/>
  <note>
	odieresis
  </note>
  <outline>
    <contour>
      <point x="331" y="1347" type="line" smooth="yes"/>
      <point x="311" y="1347"/>
      <point x="301" y="1357"/>
      <point x="301" y="1377" type="curve" smooth="yes"/>
      <point x="301" y="1563" type="line" smooth="yes"/>
      <point x="301" y="1583"/>
      <point x="311" y="1593"/>
      <point x="331" y="1593" type="curve" smooth="yes"/>
      <point x="507" y="1593" type="line" smooth="yes"/>
      <point x="527" y="1593"/>
      <point x="537" y="1583"/>
      <point x="537" y="1563" type="curve" smooth="yes"/>
      <point x="537" y="1377" type="line" smooth="yes"/>
      <point x="537" y="1357"/>
      <point x="527" y="1347"/>
      <point x="507" y="1347" type="curve" smooth="yes"/>
    </contour>
    <contour>
      <point x="726" y="1347" type="line" smooth="yes"/>
      <point x="706" y="1347"/>
      <point x="696" y="1357"/>
      <point x="696" y="1377" type="curve" smooth="yes"/>
      <point x="696" y="1563" type="line" smooth="yes"/>
      <point x="696" y="1583"/>
      <point x="706" y="1593"/>
      <point x="726" y="1593" type="curve" smooth="yes"/>
      <point x="902" y="1593" type="line" smooth="yes"/>
      <point x="922" y="1593"/>
      <point x="932" y="1583"/>
      <point x="932" y="1563" type="curve" smooth="yes"/>
      <point x="932" y="1377" type="line" smooth="yes"/>
      <point x="932" y="1357"/>
      <point x="922" y="1347"/>
      <point x="902" y="1347" type="curve" smooth="yes"/>
    </contour>
    <contour>
      <point x="446" y="-29"/>
      <point x="322" y="34"/>
      <point x="238" y="129" type="curve" smooth="yes"/>
      <point x="145" y="234"/>
      <point x="98" y="384"/>
      <point x="98" y="560" type="curve" smooth="yes"/>
      <point x="98" y="739"/>
      <point x="146" y="885"/>
      <point x="238" y="989" type="curve" smooth="yes"/>
      <point x="330" y="1093"/>
      <point x="459" y="1147"/>
      <point x="616" y="1147" type="curve" smooth="yes"/>
      <point x="780" y="1147"/>
      <point x="907" y="1089"/>
      <point x="995" y="990" type="curve" smooth="yes"/>
      <point x="1083" y="891"/>
      <point x="1135" y="748"/>
      <point x="1135" y="559" type="curve" smooth="yes"/>
      <point x="1135" y="380"/>
      <point x="1088" y="235"/>
      <point x="996" y="130" type="curve" smooth="yes"/>
      <point x="908" y="30"/>
      <point x="780" y="-29"/>
      <point x="617" y="-29" type="curve" smooth="yes"/>
    </contour>
    <contour>
      <point x="757" y="209"/>
      <point x="842" y="339"/>
      <point x="842" y="560" type="curve" smooth="yes"/>
      <point x="842" y="669"/>
      <point x="822" y="755"/>
      <point x="782" y="817" type="curve" smooth="yes"/>
      <point x="741" y="881"/>
      <point x="684" y="909"/>
      <point x="616" y="909" type="curve" smooth="yes"/>
      <point x="541" y="909"/>
      <point x="488" y="874"/>
      <point x="451" y="817" type="curve" smooth="yes"/>
      <point x="411" y="755"/>
      <point x="391" y="669"/>
      <point x="391" y="560" type="curve" smooth="yes"/>
      <point x="391" y="339"/>
      <point x="476" y="209"/>
      <point x="616" y="209" type="curve" smooth="yes"/>
    </contour>
  </outline>
</glyph>
<glyph name="Aogonek" format="1">
  <advance width="1233"/>
  <unicode hex="0104"/>
  <note>
	Aogonek
  </note>
  <outline>
    <contour>
      <point x="1122" y="-254"/>
      <point x="1176" y="-244"/>
      <point x="1229" y="-223" type="curve"/>
      <point x="1229" y="-379" type="line"/>
      <point x="1157" y="-394"/>
      <point x="1093" y="-401"/>
      <point x="1042" y="-401" type="curve" smooth="yes"/>
      <point x="886" y="-401"/>
      <point x="801" y="-339"/>
      <point x="801" y="-224" type="curve" smooth="yes"/>
      <point x="801" y="-151"/>
      <point x="836" y="-81"/>
      <point x="912" y="0" type="curve"/>
      <point x="905" y="0" type="line"/>
      <point x="813" y="369" type="line"/>
      <point x="418" y="369" type="line"/>
      <point x="328" y="0" type="line"/>
      <point x="33" y="0" type="line"/>
      <point x="436" y="1493" type="line"/>
      <point x="797" y="1493" type="line"/>
      <point x="1200" y="0" type="line"/>
      <point x="1053" y="0" type="line"/>
      <point x="1030" y="-31"/>
      <point x="1015" y="-53"/>
      <point x="1004" y="-69" type="curve"/>
      <point x="999" y="-77"/>
      <point x="994" y="-84"/>
      <point x="991" y="-90" type="curve" smooth="yes"/>
      <point x="988" y="-96"/>
      <point x="985" y="-101"/>
      <point x="982" y="-106" type="curve"/>
      <point x="969" y="-130"/>
      <point x="963" y="-147"/>
      <point x="963" y="-166" type="curve" smooth="yes"/>
      <point x="963" y="-213"/>
      <point x="998" y="-254"/>
      <point x="1081" y="-254" type="curve" smooth="yes"/>
    </contour>
    <contour>
      <point x="756" y="612" type="line"/>
      <point x="616" y="1223" type="line"/>
      <point x="477" y="612" type="line"/>
    </contour>
  </outline>
</glyph>
<glyph name="ccaron" format="1">
  <advance width="1233"/>
  <unicode hex="010D"/>
  <note>
	ccaron
  </note>
  <outline>
    <contour>
      <point x="342" y="1675" type="line"/>
      <point x="520" y="1675" type="line"/>
      <point x="718" y="1448" type="line"/>
      <point x="917" y="1675" type="line"/>
      <point x="1095" y="1675" type="line"/>
      <point x="839" y="1299" type="line"/>
      <point x="598" y="1299" type="line"/>
    </contour>
    <contour>
      <point x="371" y="-29"/>
      <point x="168" y="192"/>
      <point x="168" y="559" type="curve" smooth="yes"/>
      <point x="168" y="927"/>
      <point x="376" y="1149"/>
      <point x="719" y="1149" type="curve" smooth="yes"/>
      <point x="842" y="1149"/>
      <point x="950" y="1122"/>
      <point x="1061" y="1063" type="curve"/>
      <point x="1061" y="795" type="line"/>
      <point x="1018" y="832"/>
      <point x="968" y="861"/>
      <point x="921" y="880" type="curve" smooth="yes"/>
      <point x="874" y="899"/>
      <point x="818" y="909"/>
      <point x="761" y="909" type="curve" smooth="yes"/>
      <point x="661" y="909"/>
      <point x="591" y="877"/>
      <point x="542" y="818" type="curve" smooth="yes"/>
      <point x="491" y="757"/>
      <point x="465" y="670"/>
      <point x="465" y="559" type="curve" smooth="yes"/>
      <point x="465" y="336"/>
      <point x="570" y="211"/>
      <point x="762" y="211" type="curve" smooth="yes"/>
      <point x="818" y="211"/>
      <point x="871" y="221"/>
      <point x="921" y="240" type="curve" smooth="yes"/>
      <point x="964" y="256"/>
      <point x="1014" y="283"/>
      <point x="1061" y="326" type="curve"/>
      <point x="1061" y="57" type="line"/>
      <point x="1008" y="26"/>
      <point x="958" y="8"/>
      <point x="902" y="-7" type="curve" smooth="yes"/>
      <point x="846" y="-22"/>
      <point x="791" y="-29"/>
      <point x="722" y="-29" type="curve" smooth="yes"/>
    </contour>
  </outline>
</glyph>
<glyph name="Dcaron" format="1">
  <advance width="1233"/>
  <unicode hex="010E"/>
  <note>
	Dcaron
  </note>
  <outline>
    <contour>
      <point x="227" y="1860" type="line"/>
      <point x="405" y="1860" type="line"/>
      <point x="603" y="1698" type="line"/>
      <point x="802" y="1860" type="line"/>
      <point x="980" y="1860" type="line"/>
      <point x="757" y="1596" type="line"/>
      <point x="448" y="1596" type="line"/>
    </contour>
    <contour>
      <point x="137" y="1493" type="line"/>
      <point x="453" y="1493" type="line" smooth="yes"/>
      <point x="697" y="1493"/>
      <point x="869" y="1439"/>
      <point x="980" y="1319" type="curve" smooth="yes"/>
      <point x="1091" y="1198"/>
      <point x="1141" y="1012"/>
      <point x="1141" y="748" type="curve" smooth="yes"/>
      <point x="1141" y="484"/>
      <point x="1091" y="296"/>
      <point x="980" y="176" type="curve" smooth="yes"/>
      <point x="869" y="55"/>
      <point x="697" y="0"/>
      <point x="453" y="0" type="curve" smooth="yes"/>
      <point x="137" y="0" type="line"/>
    </contour>
    <contour>
      <point x="512" y="266" type="line" smooth="yes"/>
      <point x="628" y="266"/>
      <point x="708" y="299"/>
      <point x="760" y="376" type="curve" smooth="yes"/>
      <point x="812" y="452"/>
      <point x="834" y="572"/>
      <point x="834" y="747" type="curve" smooth="yes"/>
      <point x="834" y="922"/>
      <point x="812" y="1042"/>
      <point x="760" y="1118" type="curve" smooth="yes"/>
      <point x="708" y="1194"/>
      <point x="628" y="1227"/>
      <point x="512" y="1227" type="curve" smooth="yes"/>
      <point x="432" y="1227" type="line"/>
      <point x="432" y="266" type="line"/>
    </contour>
  </outline>
</glyph>
<glyph name="Dcroat" format="1">
  <advance width="1233"/>
  <unicode hex="0110"/>
  <note>
	Dcroat
  </note>
  <outline>
    <contour>
      <point x="137" y="664" type="line"/>
      <point x="0" y="664" type="line"/>
      <point x="0" y="901" type="line"/>
      <point x="137" y="901" type="line"/>
      <point x="137" y="1493" type="line"/>
      <point x="453" y="1493" type="line" smooth="yes"/>
      <point x="697" y="1493"/>
      <point x="869" y="1439"/>
      <point x="980" y="1319" type="curve" smooth="yes"/>
      <point x="1091" y="1198"/>
      <point x="1141" y="1012"/>
      <point x="1141" y="748" type="curve" smooth="yes"/>
      <point x="1141" y="484"/>
      <point x="1091" y="296"/>
      <point x="980" y="176" type="curve" smooth="yes"/>
      <point x="869" y="55"/>
      <point x="697" y="0"/>
      <point x="453" y="0" type="curve" smooth="yes"/>
      <point x="137" y="0" type="line"/>
    </contour>
    <contour>
      <point x="512" y="266" type="line" smooth="yes"/>
      <point x="628" y="266"/>
      <point x="708" y="299"/>
      <point x="760" y="376" type="curve" smooth="yes"/>
      <point x="812" y="452"/>
      <point x="834" y="572"/>
      <point x="834" y="747" type="curve" smooth="yes"/>
      <point x="834" y="922"/>
      <point x="812" y="1042"/>
      <point x="760" y="1118" type="curve" smooth="yes"/>
      <point x="708" y="1194"/>
      <point x="628" y="1227"/>
      <point x="512" y="1227" type="curve" smooth="yes"/>
      <point x="432" y="1227" type="line"/>
      <point x="432" y="901" type="line"/>
      <point x="643" y="901" type="line"/>
      <point x="643" y="664" type="line"/>
      <point x="432" y="664" type="line"/>
      <point x="432" y="266" type="line"/>
    </contour>
  </outline>
</glyph>
<glyph name="Emacron" format="1">
  <advance width="1233"/>
  <unicode hex="0112"/>
  <note>
	Emacron
  </note>
  <outline>
    <contour>
      <point x="332" y="1820" type="line"/>
      <point x="963" y="1820" type="line"/>
      <point x="963" y="1632" type="line"/>
      <point x="332" y="1632" type="line"/>
    </contour>
    <contour>
      <point x="168" y="1493" type="line"/>
      <point x="1098" y="1493" type="line"/>
      <point x="1098" y="1233" type="line"/>
      <point x="463" y="1233" type="line"/>
      <point x="463" y="911" type="line"/>
      <point x="1038" y="911" type="line"/>
      <point x="1038" y="651" type="line"/>
      <point x="463" y="651" type="line"/>
      <point x="463" y="260" type="line"/>
      <point x="1098" y="260" type="line"/>
      <point x="1098" y="0" type="line"/>
      <point x="168" y="0" type="line"/>
    </contour>
  </outline>
</glyph>
<glyph name="Eogonek" format="1">
  <advance width="1233"/>
  <unicode hex="0118"/>
  <note>
	Eogonek
  </note>
  <outline>
    <contour>
      <point x="992" y="-254"/>
      <point x="1046" y="-244"/>
      <point x="1099" y="-223" type="curve"/>
      <point x="1099" y="-379" type="line"/>
      <point x="1027" y="-394"/>
      <point x="963" y="-401"/>
      <point x="912" y="-401" type="curve" smooth="yes"/>
      <point x="756" y="-401"/>
      <point x="671" y="-339"/>
      <point x="671" y="-224" type="curve" smooth="yes"/>
      <point x="671" y="-151"/>
      <point x="706" y="-81"/>
      <point x="782" y="0" type="curve"/>
      <point x="168" y="0" type="line"/>
      <point x="168" y="1493" type="line"/>
      <point x="1098" y="1493" type="line"/>
      <point x="1098" y="1233" type="line"/>
      <point x="463" y="1233" type="line"/>
      <point x="463" y="911" type="line"/>
      <point x="1038" y="911" type="line"/>
      <point x="1038" y="651" type="line"/>
      <point x="463" y="651" type="line"/>
      <point x="463" y="260" type="line"/>
      <point x="1098" y="260" type="line"/>
      <point x="1098" y="0" type="line"/>
      <point x="923" y="0" type="line"/>
      <point x="900" y="-31"/>
      <point x="885" y="-53"/>
      <point x="874" y="-69" type="curve"/>
      <point x="869" y="-77"/>
      <point x="864" y="-84"/>
      <point x="861" y="-90" type="curve" smooth="yes"/>
      <point x="858" y="-96"/>
      <point x="855" y="-101"/>
      <point x="852" y="-106" type="curve"/>
      <point x="839" y="-130"/>
      <point x="833" y="-147"/>
      <point x="833" y="-166" type="curve" smooth="yes"/>
      <point x="833" y="-213"/>
      <point x="868" y="-254"/>
      <point x="951" y="-254" type="curve" smooth="yes"/>
    </contour>
  </outline>
</glyph>
<glyph name="eogonek" format="1">
  <advance width="1233"/>
  <unicode hex="0119"/>
  <note>
	eogonek
  </note>
  <outline>
    <contour>
      <point x="1139" y="465" type="line"/>
      <point x="380" y="465" type="line"/>
      <point x="381" y="290"/>
      <point x="483" y="203"/>
      <point x="688" y="203" type="curve" smooth="yes"/>
      <point x="824" y="203"/>
      <point x="948" y="240"/>
      <point x="1092" y="324" type="curve"/>
      <point x="1092" y="55" type="line"/>
      <point x="1036" y="32"/>
      <point x="979" y="13"/>
      <point x="919" y="0" type="curve"/>
      <point x="896" y="-31"/>
      <point x="881" y="-53"/>
      <point x="870" y="-69" type="curve"/>
      <point x="865" y="-77"/>
      <point x="860" y="-84"/>
      <point x="857" y="-90" type="curve" smooth="yes"/>
      <point x="854" y="-96"/>
      <point x="851" y="-101"/>
      <point x="848" y="-106" type="curve"/>
      <point x="835" y="-130"/>
      <point x="829" y="-147"/>
      <point x="829" y="-166" type="curve" smooth="yes"/>
      <point x="829" y="-213"/>
      <point x="864" y="-254"/>
      <point x="947" y="-254" type="curve" smooth="yes"/>
      <point x="988" y="-254"/>
      <point x="1042" y="-244"/>
      <point x="1095" y="-223" type="curve"/>
      <point x="1095" y="-379" type="line"/>
      <point x="1023" y="-394"/>
      <point x="959" y="-401"/>
      <point x="908" y="-401" type="curve" smooth="yes"/>
      <point x="752" y="-401"/>
      <point x="667" y="-339"/>
      <point x="667" y="-224" type="curve" smooth="yes"/>
      <point x="667" y="-159"/>
      <point x="695" y="-97"/>
      <point x="755" y="-26" type="curve"/>
      <point x="727" y="-28"/>
      <point x="698" y="-29"/>
      <point x="669" y="-29" type="curve" smooth="yes"/>
      <point x="476" y="-29"/>
      <point x="330" y="22"/>
      <point x="231" y="121" type="curve" smooth="yes"/>
      <point x="132" y="220"/>
      <point x="82" y="363"/>
      <point x="82" y="550" type="curve" smooth="yes"/>
      <point x="82" y="735"/>
      <point x="132" y="884"/>
      <point x="224" y="987" type="curve" smooth="yes"/>
      <point x="316" y="1090"/>
      <point x="450" y="1147"/>
      <point x="621" y="1147" type="curve" smooth="yes"/>
      <point x="782" y="1147"/>
      <point x="912" y="1095"/>
      <point x="1001" y="999" type="curve" smooth="yes"/>
      <point x="1090" y="903"/>
      <point x="1139" y="763"/>
      <point x="1139" y="584" type="curve" smooth="yes"/>
    </contour>
    <contour>
      <point x="844" y="685" type="line"/>
      <point x="841" y="840"/>
      <point x="761" y="920"/>
      <point x="620" y="920" type="curve" smooth="yes"/>
      <point x="476" y="920"/>
      <point x="399" y="837"/>
      <point x="383" y="684" type="curve"/>
    </contour>
  </outline>
</glyph>
<glyph name="iogonek" format="1">
  <advance width="1233"/>
  <unicode hex="012F"/>
  <note>
	iogonek
  </note>
  <outline>
    <contour>
      <point x="451" y="1323" type="line" smooth="yes"/>
      <point x="431" y="1323"/>
      <point x="421" y="1333"/>
      <point x="421" y="1353" type="curve" smooth="yes"/>
      <point x="421" y="1635" type="line" smooth="yes"/>
      <point x="421" y="1655"/>
      <point x="431" y="1665"/>
      <point x="451" y="1665" type="curve" smooth="yes"/>
      <point x="684" y="1665" type="line" smooth="yes"/>
      <point x="704" y="1665"/>
      <point x="714" y="1655"/>
      <point x="714" y="1635" type="curve" smooth="yes"/>
      <point x="714" y="1353" type="line" smooth="yes"/>
      <point x="714" y="1333"/>
      <point x="704" y="1323"/>
      <point x="684" y="1323" type="curve" smooth="yes"/>
    </contour>
    <contour>
      <point x="945" y="-12" type="line"/>
      <point x="924" y="-39"/>
      <point x="910" y="-60"/>
      <point x="901" y="-73" type="curve"/>
      <point x="884" y="-101"/>
      <point x="873" y="-121"/>
      <point x="867" y="-140" type="curve" smooth="yes"/>
      <point x="864" y="-149"/>
      <point x="862" y="-159"/>
      <point x="862" y="-168" type="curve" smooth="yes"/>
      <point x="862" y="-215"/>
      <point x="897" y="-256"/>
      <point x="980" y="-256" type="curve" smooth="yes"/>
      <point x="1021" y="-256"/>
      <point x="1075" y="-246"/>
      <point x="1128" y="-225" type="curve"/>
      <point x="1128" y="-381" type="line"/>
      <point x="1056" y="-396"/>
      <point x="992" y="-403"/>
      <point x="941" y="-403" type="curve" smooth="yes"/>
      <point x="785" y="-403"/>
      <point x="700" y="-341"/>
      <point x="700" y="-226" type="curve" smooth="yes"/>
      <point x="700" y="-155"/>
      <point x="733" y="-89"/>
      <point x="802" y="-12" type="curve"/>
      <point x="535" y="-8"/>
      <point x="421" y="119"/>
      <point x="421" y="455" type="curve" smooth="yes"/>
      <point x="421" y="895" type="line"/>
      <point x="184" y="895" type="line"/>
      <point x="184" y="1120" type="line"/>
      <point x="714" y="1120" type="line"/>
      <point x="714" y="455" type="line" smooth="yes"/>
      <point x="714" y="280"/>
      <point x="762" y="213"/>
      <point x="894" y="213" type="curve" smooth="yes"/>
      <point x="1128" y="213" type="line"/>
      <point x="1128" y="-12" type="line"/>
    </contour>
  </outline>
</glyph>
<glyph name="Eng" format="1">
  <advance width="1233"/>
  <unicode hex="014A"/>
  <note>
	Eng
  </note>
  <outline>
    <contour>
      <point x="612" y="-199" type="line"/>
      <point x="649" y="-199" type="line" smooth="yes"/>
      <point x="716" y="-199"/>
      <point x="761" y="-183"/>
      <point x="790" y="-144" type="curve" smooth="yes"/>
      <point x="819" y="-105"/>
      <point x="831" y="-44"/>
      <point x="831" y="44" type="curve" smooth="yes"/>
      <point x="831" y="1015" type="line" smooth="yes"/>
      <point x="831" y="1182"/>
      <point x="773" y="1255"/>
      <point x="641" y="1255" type="curve" smooth="yes"/>
      <point x="561" y="1255"/>
      <point x="501" y="1227"/>
      <point x="461" y="1179" type="curve" smooth="yes"/>
      <point x="421" y="1130"/>
      <point x="401" y="1059"/>
      <point x="401" y="972" type="curve" smooth="yes"/>
      <point x="401" y="0" type="line"/>
      <point x="106" y="0" type="line"/>
      <point x="106" y="1493" type="line"/>
      <point x="372" y="1493" type="line"/>
      <point x="401" y="1253" type="line"/>
      <point x="452" y="1426"/>
      <point x="572" y="1522"/>
      <point x="747" y="1522" type="curve" smooth="yes"/>
      <point x="992" y="1522"/>
      <point x="1125" y="1327"/>
      <point x="1125" y="942" type="curve" smooth="yes"/>
      <point x="1125" y="58" type="line" smooth="yes"/>
      <point x="1125" y="-119"/>
      <point x="1096" y="-241"/>
      <point x="1033" y="-317" type="curve" smooth="yes"/>
      <point x="969" y="-394"/>
      <point x="872" y="-426"/>
      <point x="733" y="-426" type="curve" smooth="yes"/>
      <point x="612" y="-426" type="line"/>
    </contour>
  </outline>
</glyph>
<glyph name="oe" format="1">
  <advance width="1233"/>
  <unicode hex="0153"/>
  <note>
	oe
  </note>
  <outline>
    <contour>
      <point x="239" y="-29"/>
      <point x="154" y="21"/>
      <point x="99" y="109" type="curve" smooth="yes"/>
      <point x="39" y="205"/>
      <point x="14" y="356"/>
      <point x="14" y="560" type="curve" smooth="yes"/>
      <point x="14" y="768"/>
      <point x="40" y="916"/>
      <point x="99" y="1011" type="curve" smooth="yes"/>
      <point x="155" y="1103"/>
      <point x="244" y="1147"/>
      <point x="377" y="1147" type="curve" smooth="yes"/>
      <point x="504" y="1147"/>
      <point x="581" y="1111"/>
      <point x="637" y="1022" type="curve"/>
      <point x="674" y="1102"/>
      <point x="763" y="1147"/>
      <point x="888" y="1147" type="curve" smooth="yes"/>
      <point x="1003" y="1147"/>
      <point x="1088" y="1108"/>
      <point x="1137" y="1028" type="curve" smooth="yes"/>
      <point x="1186" y="949"/>
      <point x="1210" y="809"/>
      <point x="1210" y="606" type="curve" smooth="yes"/>
      <point x="1210" y="479" type="line"/>
      <point x="760" y="479" type="line"/>
      <point x="760" y="288"/>
      <point x="827" y="184"/>
      <point x="955" y="184" type="curve" smooth="yes"/>
      <point x="999" y="184"/>
      <point x="1037" y="195"/>
      <point x="1074" y="214" type="curve" smooth="yes"/>
      <point x="1113" y="233"/>
      <point x="1151" y="258"/>
      <point x="1194" y="301" type="curve"/>
      <point x="1194" y="57" type="line"/>
      <point x="1127" y="-2"/>
      <point x="1048" y="-29"/>
      <point x="939" y="-29" type="curve" smooth="yes"/>
      <point x="803" y="-29"/>
      <point x="712" y="20"/>
      <point x="649" y="119" type="curve"/>
      <point x="621" y="70"/>
      <point x="587" y="32"/>
      <point x="540" y="7" type="curve" smooth="yes"/>
      <point x="495" y="-17"/>
      <point x="439" y="-29"/>
      <point x="374" y="-29" type="curve" smooth="yes"/>
    </contour>
    <contour>
      <point x="445" y="184"/>
      <point x="473" y="210"/>
      <point x="490" y="251" type="curve" smooth="yes"/>
      <point x="499" y="275"/>
      <point x="508" y="309"/>
      <point x="513" y="358" type="curve" smooth="yes"/>
      <point x="517" y="406"/>
      <point x="520" y="471"/>
      <point x="520" y="558" type="curve" smooth="yes"/>
      <point x="520" y="653"/>
      <point x="517" y="719"/>
      <point x="512" y="768" type="curve" smooth="yes"/>
      <point x="507" y="816"/>
      <point x="499" y="847"/>
      <point x="490" y="868" type="curve" smooth="yes"/>
      <point x="471" y="913"/>
      <point x="439" y="934"/>
      <point x="384" y="934" type="curve" smooth="yes"/>
      <point x="333" y="934"/>
      <point x="299" y="915"/>
      <point x="279" y="868" type="curve" smooth="yes"/>
      <point x="256" y="817"/>
      <point x="248" y="724"/>
      <point x="248" y="560" type="curve" smooth="yes"/>
      <point x="248" y="469"/>
      <point x="251" y="403"/>
      <point x="256" y="355" type="curve" smooth="yes"/>
      <point x="261" y="306"/>
      <point x="268" y="273"/>
      <point x="279" y="250" type="curve" smooth="yes"/>
      <point x="298" y="209"/>
      <point x="326" y="184"/>
      <point x="385" y="184" type="curve" smooth="yes"/>
    </contour>
    <contour>
      <point x="985" y="690" type="line"/>
      <point x="985" y="725" type="line" smooth="yes"/>
      <point x="985" y="801"/>
      <point x="979" y="854"/>
      <point x="960" y="887" type="curve" smooth="yes"/>
      <point x="943" y="918"/>
      <point x="914" y="934"/>
      <point x="873" y="934" type="curve" smooth="yes"/>
      <point x="828" y="934"/>
      <point x="801" y="917"/>
      <point x="785" y="886" type="curve"/>
      <point x="778" y="871"/>
      <point x="772" y="851"/>
      <point x="767" y="826" type="curve" smooth="yes"/>
      <point x="762" y="800"/>
      <point x="760" y="762"/>
      <point x="760" y="713" type="curve" smooth="yes"/>
      <point x="760" y="690" type="line"/>
    </contour>
  </outline>
</glyph>
<glyph name="uni0157" format="1">
  <advance width="1233"/>
  <unicode hex="0157"/>
  <note>
	uni0157
  </note>
  <outline>
    <contour>
      <point x="291" y="1120" type="line"/>
      <point x="555" y="1120" type="line"/>
      <point x="584" y="946" type="line"/>
      <point x="641" y="1075"/>
      <point x="766" y="1147"/>
      <point x="923" y="1147" type="curve" smooth="yes"/>
      <point x="1006" y="1147"/>
      <point x="1082" y="1127"/>
      <point x="1151" y="1090" type="curve"/>
      <point x="1151" y="811" type="line"/>
      <point x="1087" y="871"/>
      <point x="1001" y="899"/>
      <point x="897" y="899" type="curve" smooth="yes"/>
      <point x="766" y="899"/>
      <point x="678" y="852"/>
      <point x="627" y="772" type="curve" smooth="yes"/>
      <point x="611" y="747"/>
      <point x="601" y="719"/>
      <point x="594" y="680" type="curve" smooth="yes"/>
      <point x="586" y="641"/>
      <point x="584" y="589"/>
      <point x="584" y="516" type="curve" smooth="yes"/>
      <point x="584" y="0" type="line"/>
      <point x="291" y="0" type="line"/>
    </contour>
    <contour>
      <point x="341" y="-158" type="line"/>
      <point x="623" y="-158" type="line"/>
      <point x="446" y="-464" type="line"/>
      <point x="252" y="-464" type="line"/>
    </contour>
  </outline>
</glyph>
<glyph name="Utilde" format="1">
  <advance width="1233"/>
  <unicode hex="0168"/>
  <note>
	Utilde
  </note>
  <outline>
    <contour>
      <point x="268" y="1618" type="line" smooth="yes"/>
      <point x="268" y="1689"/>
      <point x="288" y="1748"/>
      <point x="323" y="1789" type="curve" smooth="yes"/>
      <point x="358" y="1830"/>
      <point x="406" y="1854"/>
      <point x="463" y="1854" type="curve" smooth="yes"/>
      <point x="514" y="1854"/>
      <point x="566" y="1836"/>
      <point x="614" y="1805" type="curve" smooth="yes"/>
      <point x="674" y="1766" type="line" smooth="yes"/>
      <point x="701" y="1749"/>
      <point x="724" y="1737"/>
      <point x="751" y="1737" type="curve" smooth="yes"/>
      <point x="798" y="1737"/>
      <point x="825" y="1778"/>
      <point x="825" y="1854" type="curve"/>
      <point x="965" y="1854" type="line"/>
      <point x="965" y="1853"/>
      <point x="965" y="1851"/>
      <point x="965" y="1848" type="curve" smooth="yes"/>
      <point x="965" y="1845"/>
      <point x="965" y="1842"/>
      <point x="964" y="1839" type="curve" smooth="yes"/>
      <point x="963" y="1836"/>
      <point x="963" y="1833"/>
      <point x="963" y="1831" type="curve" smooth="yes"/>
      <point x="963" y="1829"/>
      <point x="963" y="1827"/>
      <point x="963" y="1826" type="curve" smooth="yes"/>
      <point x="963" y="1754"/>
      <point x="944" y="1694"/>
      <point x="910" y="1653" type="curve" smooth="yes"/>
      <point x="876" y="1612"/>
      <point x="826" y="1588"/>
      <point x="765" y="1588" type="curve" smooth="yes"/>
      <point x="718" y="1588"/>
      <point x="675" y="1601"/>
      <point x="618" y="1637" type="curve" smooth="yes"/>
      <point x="564" y="1671" type="line"/>
      <point x="552" y="1678" type="line" smooth="yes"/>
      <point x="525" y="1693"/>
      <point x="503" y="1704"/>
      <point x="480" y="1704" type="curve" smooth="yes"/>
      <point x="437" y="1704"/>
      <point x="408" y="1662"/>
      <point x="408" y="1594" type="curve" smooth="yes"/>
      <point x="408" y="1588" type="line"/>
      <point x="268" y="1588" type="line"/>
    </contour>
    <contour>
      <point x="437" y="-29"/>
      <point x="311" y="14"/>
      <point x="228" y="109" type="curve" smooth="yes"/>
      <point x="144" y="204"/>
      <point x="106" y="348"/>
      <point x="106" y="551" type="curve" smooth="yes"/>
      <point x="106" y="1493" type="line"/>
      <point x="401" y="1493" type="line"/>
      <point x="401" y="477" type="line" smooth="yes"/>
      <point x="401" y="328"/>
      <point x="480" y="238"/>
      <point x="616" y="238" type="curve" smooth="yes"/>
      <point x="752" y="238"/>
      <point x="831" y="328"/>
      <point x="831" y="477" type="curve" smooth="yes"/>
      <point x="831" y="1493" type="line"/>
      <point x="1126" y="1493" type="line"/>
      <point x="1126" y="551" type="line" smooth="yes"/>
      <point x="1126" y="348"/>
      <point x="1088" y="204"/>
      <point x="1005" y="109" type="curve" smooth="yes"/>
      <point x="922" y="14"/>
      <point x="795" y="-29"/>
      <point x="616" y="-29" type="curve" smooth="yes"/>
    </contour>
  </outline>
</glyph>
<glyph name="Umacron" format="1">
  <advance width="1233"/>
  <unicode hex="016A"/>
  <note>
	Umacron
  </note>
  <outline>
    <contour>
      <point x="301" y="1830" type="line"/>
      <point x="932" y="1830" type="line"/>
      <point x="932" y="1642" type="line"/>
      <point x="301" y="1642" type="line"/>
    </contour>
    <contour>
      <point x="437" y="-29"/>
      <point x="311" y="14"/>
      <point x="228" y="109" type="curve" smooth="yes"/>
      <point x="144" y="204"/>
      <point x="106" y="348"/>
      <point x="106" y="551" type="curve" smooth="yes"/>
      <point x="106" y="1493" type="line"/>
      <point x="401" y="1493" type="line"/>
      <point x="401" y="477" type="line" smooth="yes"/>
      <point x="401" y="328"/>
      <point x="480" y="238"/>
      <point x="616" y="238" type="curve" smooth="yes"/>
      <point x="752" y="238"/>
      <point x="831" y="328"/>
      <point x="831" y="477" type="curve" smooth="yes"/>
      <point x="831" y="1493" type="line"/>
      <point x="1126" y="1493" type="line"/>
      <point x="1126" y="551" type="line" smooth="yes"/>
      <point x="1126" y="348"/>
      <point x="1088" y="204"/>
      <point x="1005" y="109" type="curve" smooth="yes"/>
      <point x="922" y="14"/>
      <point x="795" y="-29"/>
      <point x="616" y="-29" type="curve" smooth="yes"/>
    </contour>
  </outline>
</glyph>
<glyph name="Ydieresis" format="1">
  <advance width="1233"/>
  <unicode hex="0178"/>
  <note>
	Ydieresis
  </note>
  <outline>
    <contour>
      <point x="331" y="1606" type="line" smooth="yes"/>
      <point x="311" y="1606"/>
      <point x="301" y="1616"/>
      <point x="301" y="1636" type="curve" smooth="yes"/>
      <point x="301" y="1822" type="line" smooth="yes"/>
      <point x="301" y="1842"/>
      <point x="311" y="1852"/>
      <point x="331" y="1852" type="curve" smooth="yes"/>
      <point x="507" y="1852" type="line" smooth="yes"/>
      <point x="527" y="1852"/>
      <point x="537" y="1842"/>
      <point x="537" y="1822" type="curve" smooth="yes"/>
      <point x="537" y="1636" type="line" smooth="yes"/>
      <point x="537" y="1616"/>
      <point x="527" y="1606"/>
      <point x="507" y="1606" type="curve" smooth="yes"/>
    </contour>
    <contour>
      <point x="726" y="1606" type="line" smooth="yes"/>
      <point x="706" y="1606"/>
      <point x="696" y="1616"/>
      <point x="696" y="1636" type="curve" smooth="yes"/>
      <point x="696" y="1822" type="line" smooth="yes"/>
      <point x="696" y="1842"/>
      <point x="706" y="1852"/>
      <point x="726" y="1852" type="curve" smooth="yes"/>
      <point x="902" y="1852" type="line" smooth="yes"/>
      <point x="922" y="1852"/>
      <point x="932" y="1842"/>
      <point x="932" y="1822" type="curve" smooth="yes"/>
      <point x="932" y="1636" type="line" smooth="yes"/>
      <point x="932" y="1616"/>
      <point x="922" y="1606"/>
      <point x="902" y="1606" type="curve" smooth="yes"/>
    </contour>
    <contour>
      <point x="469" y="588" type="line"/>
      <point x="8" y="1493" type="line"/>
      <point x="326" y="1493" type="line"/>
      <point x="616" y="893" type="line"/>
      <point x="907" y="1493" type="line"/>
      <point x="1225" y="1493" type="line"/>
      <point x="764" y="588" type="line"/>
      <point x="764" y="0" type="line"/>
      <point x="469" y="0" type="line"/>
    </contour>
  </outline>
</glyph>
<glyph name="uni01A4" format="1">
  <advance width="1233"/>
  <unicode hex="01A4"/>
  <outline>
    <contour>
      <point x="538" y="0" type="line"/>
      <point x="538" y="559" type="line"/>
      <point x="648" y="559" type="line" smooth="yes"/>
      <point x="1047" y="559"/>
      <point x="1228" y="723"/>
      <point x="1228" y="1025" type="curve" smooth="yes"/>
      <point x="1228" y="1335"/>
      <point x="1037" y="1493"/>
      <point x="648" y="1493" type="curve" smooth="yes"/>
      <point x="243" y="1493" type="line" smooth="yes"/>
      <point x="200" y="1493"/>
      <point x="157" y="1481"/>
      <point x="124" y="1461" type="curve" smooth="yes"/>
      <point x="57" y="1421"/>
      <point x="5" y="1334"/>
      <point x="5" y="1200" type="curve" smooth="yes"/>
      <point x="5" y="1070" type="line"/>
      <point x="180" y="1070" type="line"/>
      <point x="179" y="1150" type="line" smooth="yes"/>
      <point x="179" y="1177"/>
      <point x="181" y="1196"/>
      <point x="184" y="1209" type="curve" smooth="yes"/>
      <point x="190" y="1234"/>
      <point x="204" y="1245"/>
      <point x="243" y="1245" type="curve"/>
      <point x="243" y="0" type="line"/>
    </contour>
    <contour>
      <point x="538" y="1245" type="line"/>
      <point x="659" y="1245" type="line" smooth="yes"/>
      <point x="725" y="1245"/>
      <point x="777" y="1238"/>
      <point x="815" y="1224" type="curve" smooth="yes"/>
      <point x="893" y="1195"/>
      <point x="921" y="1129"/>
      <point x="921" y="1026" type="curve" smooth="yes"/>
      <point x="921" y="971"/>
      <point x="913" y="928"/>
      <point x="896" y="897" type="curve" smooth="yes"/>
      <point x="861" y="831"/>
      <point x="785" y="807"/>
      <point x="659" y="807" type="curve" smooth="yes"/>
      <point x="538" y="807" type="line"/>
    </contour>
  </outline>
</glyph>
<glyph name="oslashacute" format="1">
  <advance width="1233"/>
  <unicode hex="01FF"/>
  <note>
	oslashacute
  </note>
  <outline>
    <contour>
      <point x="754" y="1674" type="line"/>
      <point x="1036" y="1674" type="line"/>
      <point x="668" y="1298" type="line"/>
      <point x="471" y="1298" type="line"/>
    </contour>
    <contour>
      <point x="27" y="3" type="line"/>
      <point x="190" y="200" type="line"/>
      <point x="130" y="297"/>
      <point x="100" y="417"/>
      <point x="100" y="560" type="curve" smooth="yes"/>
      <point x="100" y="740"/>
      <point x="151" y="888"/>
      <point x="241" y="990" type="curve" smooth="yes"/>
      <point x="331" y="1092"/>
      <point x="459" y="1148"/>
      <point x="618" y="1148" type="curve" smooth="yes"/>
      <point x="731" y="1148"/>
      <point x="828" y="1120"/>
      <point x="917" y="1060" type="curve"/>
      <point x="1065" y="1236" type="line"/>
      <point x="1204" y="1115" type="line"/>
      <point x="1044" y="927" type="line"/>
      <point x="1105" y="826"/>
      <point x="1137" y="704"/>
      <point x="1137" y="560" type="curve" smooth="yes"/>
      <point x="1137" y="380"/>
      <point x="1087" y="233"/>
      <point x="997" y="131" type="curve" smooth="yes"/>
      <point x="907" y="29"/>
      <point x="777" y="-28"/>
      <point x="618" y="-28" type="curve" smooth="yes"/>
      <point x="506" y="-28"/>
      <point x="406" y="2"/>
      <point x="317" y="62" type="curve"/>
      <point x="166" y="-116" type="line"/>
    </contour>
    <contour>
      <point x="747" y="861" type="line"/>
      <point x="712" y="894"/>
      <point x="672" y="910"/>
      <point x="620" y="910" type="curve" smooth="yes"/>
      <point x="549" y="910"/>
      <point x="493" y="877"/>
      <point x="454" y="817" type="curve" smooth="yes"/>
      <point x="414" y="757"/>
      <point x="393" y="669"/>
      <point x="393" y="560" type="curve" smooth="yes"/>
      <point x="393" y="515"/>
      <point x="396" y="482"/>
      <point x="401" y="450" type="curve"/>
    </contour>
    <contour>
      <point x="689" y="210"/>
      <point x="745" y="243"/>
      <point x="784" y="304" type="curve" smooth="yes"/>
      <point x="823" y="364"/>
      <point x="844" y="452"/>
      <point x="844" y="560" type="curve" smooth="yes"/>
      <point x="844" y="599"/>
      <point x="841" y="637"/>
      <point x="833" y="676" type="curve"/>
      <point x="485" y="263" type="line"/>
      <point x="525" y="228"/>
      <point x="570" y="210"/>
      <point x="620" y="210" type="curve" smooth="yes"/>
    </contour>
  </outline>
</glyph>
<glyph name="uni021A" format="1">
  <advance width="1233"/>
  <unicode hex="021A"/>
  <note>
	uni021A
  </note>
  <outline>
    <contour>
      <point x="764" y="0" type="line"/>
      <point x="707" y="0" type="line"/>
      <point x="750" y="-48"/>
      <point x="778" y="-86"/>
      <point x="795" y="-121" type="curve" smooth="yes"/>
      <point x="812" y="-157"/>
      <point x="819" y="-189"/>
      <point x="819" y="-222" type="curve" smooth="yes"/>
      <point x="819" y="-339"/>
      <point x="740" y="-401"/>
      <point x="569" y="-401" type="curve" smooth="yes"/>
      <point x="505" y="-401"/>
      <point x="439" y="-392"/>
      <point x="367" y="-375" type="curve"/>
      <point x="367" y="-219" type="line"/>
      <point x="428" y="-242"/>
      <point x="482" y="-254"/>
      <point x="531" y="-254" type="curve" smooth="yes"/>
      <point x="610" y="-254"/>
      <point x="655" y="-221"/>
      <point x="655" y="-170" type="curve" smooth="yes"/>
      <point x="655" y="-131"/>
      <point x="628" y="-80"/>
      <point x="567" y="0" type="curve"/>
      <point x="469" y="0" type="line"/>
      <point x="469" y="1235" type="line"/>
      <point x="90" y="1235" type="line"/>
      <point x="90" y="1493" type="line"/>
      <point x="1143" y="1493" type="line"/>
      <point x="1143" y="1235" type="line"/>
      <point x="764" y="1235" type="line"/>
    </contour>
  </outline>
</glyph>
<glyph name="uni02C0" format="1">
  <advance width="1233"/>
  <unicode hex="02C0"/>
  <note>
	uni02C0
  </note>
  <outline>
    <contour>
      <point x="442" y="1080" type="line"/>
      <point x="496" y="1080" type="line" smooth="yes"/>
      <point x="579" y="1080"/>
      <point x="637" y="1101"/>
      <point x="670" y="1144" type="curve" smooth="yes"/>
      <point x="692" y="1173"/>
      <point x="703" y="1200"/>
      <point x="703" y="1226" type="curve" smooth="yes"/>
      <point x="703" y="1261"/>
      <point x="692" y="1292"/>
      <point x="670" y="1317" type="curve" smooth="yes"/>
      <point x="632" y="1360"/>
      <point x="579" y="1381"/>
      <point x="510" y="1381" type="curve" smooth="yes"/>
      <point x="449" y="1381"/>
      <point x="388" y="1365"/>
      <point x="328" y="1333" type="curve"/>
      <point x="328" y="1500" type="line"/>
      <point x="357" y="1512"/>
      <point x="383" y="1522"/>
      <point x="419" y="1529" type="curve" smooth="yes"/>
      <point x="454" y="1536"/>
      <point x="499" y="1539"/>
      <point x="570" y="1539" type="curve" smooth="yes"/>
      <point x="662" y="1539"/>
      <point x="746" y="1501"/>
      <point x="807" y="1443" type="curve" smooth="yes"/>
      <point x="867" y="1385"/>
      <point x="905" y="1306"/>
      <point x="905" y="1226" type="curve" smooth="yes"/>
      <point x="905" y="1139"/>
      <point x="877" y="1075"/>
      <point x="831" y="1030" type="curve" smooth="yes"/>
      <point x="785" y="985"/>
      <point x="720" y="958"/>
      <point x="648" y="946" type="curve"/>
      <point x="648" y="668" type="line"/>
      <point x="442" y="668" type="line"/>
    </contour>
  </outline>
</glyph>
<glyph name="dotaccent" format="1">
  <advance width="1233"/>
  <unicode hex="02D9"/>
  <note>
	dotaccent
  </note>
  <outline>
    <contour>
      <point x="489" y="1339"/>
      <point x="479" y="1349"/>
      <point x="479" y="1369" type="curve" smooth="yes"/>
      <point x="479" y="1555" type="line" smooth="yes"/>
      <point x="479" y="1575"/>
      <point x="489" y="1585"/>
      <point x="509" y="1585" type="curve" smooth="yes"/>
      <point x="724" y="1585" type="line" smooth="yes"/>
      <point x="744" y="1585"/>
      <point x="754" y="1575"/>
      <point x="754" y="1555" type="curve" smooth="yes"/>
      <point x="754" y="1369" type="line" smooth="yes"/>
      <point x="754" y="1349"/>
      <point x="744" y="1339"/>
      <point x="724" y="1339" type="curve" smooth="yes"/>
      <point x="509" y="1339" type="line" smooth="yes"/>
    </contour>
  </outline>
</glyph>
<glyph name="tilde" format="1">
  <advance width="1233"/>
  <unicode hex="02DC"/>
  <note>
	tilde
  </note>
  <outline>
    <contour>
      <point x="720" y="1307"/>
      <point x="682" y="1320"/>
      <point x="618" y="1364" type="curve" smooth="yes"/>
      <point x="551" y="1409" type="line" smooth="yes"/>
      <point x="522" y="1428"/>
      <point x="500" y="1438"/>
      <point x="479" y="1438" type="curve" smooth="yes"/>
      <point x="454" y="1438"/>
      <point x="438" y="1426"/>
      <point x="427" y="1407" type="curve" smooth="yes"/>
      <point x="414" y="1386"/>
      <point x="408" y="1356"/>
      <point x="408" y="1317" type="curve" smooth="yes"/>
      <point x="408" y="1309" type="line"/>
      <point x="268" y="1309" type="line"/>
      <point x="268" y="1404"/>
      <point x="287" y="1473"/>
      <point x="320" y="1520" type="curve" smooth="yes"/>
      <point x="351" y="1564"/>
      <point x="398" y="1593"/>
      <point x="465" y="1593" type="curve" smooth="yes"/>
      <point x="514" y="1593"/>
      <point x="551" y="1576"/>
      <point x="575" y="1562" type="curve" smooth="yes"/>
      <point x="587" y="1555"/>
      <point x="600" y="1546"/>
      <point x="614" y="1536" type="curve" smooth="yes"/>
      <point x="676" y="1493" type="line" smooth="yes"/>
      <point x="693" y="1481"/>
      <point x="701" y="1477"/>
      <point x="716" y="1470" type="curve"/>
      <point x="729" y="1465"/>
      <point x="740" y="1462"/>
      <point x="751" y="1462" type="curve" smooth="yes"/>
      <point x="798" y="1462"/>
      <point x="825" y="1506"/>
      <point x="825" y="1583" type="curve" smooth="yes"/>
      <point x="825" y="1591" type="line"/>
      <point x="965" y="1591" type="line"/>
      <point x="965" y="1500"/>
      <point x="948" y="1430"/>
      <point x="914" y="1381" type="curve" smooth="yes"/>
      <point x="882" y="1334"/>
      <point x="833" y="1307"/>
      <point x="768" y="1307" type="curve" smooth="yes"/>
    </contour>
  </outline>
</glyph>
<glyph name="uni0305" format="1">
  <advance width="0"/>
  <unicode hex="0305"/>
  <note>
	uni0305
  </note>
  <outline>
    <contour>
      <point x="-1233" y="1547" type="line"/>
      <point x="0" y="1547" type="line"/>
      <point x="0" y="1357" type="line"/>
      <point x="-1233" y="1357" type="line"/>
    </contour>
  </outline>
</glyph>
<glyph name="uni0307" format="1">
  <advance width="0"/>
  <unicode hex="0307"/>
  <note>
	uni0307
  </note>
  <outline>
    <contour>
      <point x="-754" y="1585" type="line"/>
      <point x="-479" y="1585" type="line"/>
      <point x="-479" y="1339" type="line"/>
      <point x="-754" y="1339" type="line"/>
    </contour>
  </outline>
</glyph>
<glyph name="uni0313" format="1">
  <advance width="0"/>
  <unicode hex="0313"/>
  <note>
	uni0313
  </note>
  <outline>
    <contour>
      <point x="-753" y="1361" type="line"/>
      <point x="-673" y="1361"/>
      <point x="-633" y="1402"/>
      <point x="-633" y="1483" type="curve"/>
      <point x="-753" y="1483" type="line"/>
      <point x="-753" y="1729" type="line"/>
      <point x="-479" y="1729" type="line"/>
      <point x="-479" y="1483" type="line" smooth="yes"/>
      <point x="-479" y="1307"/>
      <point x="-570" y="1219"/>
      <point x="-753" y="1218" type="curve"/>
    </contour>
  </outline>
</glyph>
<glyph name="uni031B" format="1">
  <advance width="0"/>
  <unicode hex="031B"/>
  <note>
	uni031B
  </note>
  <outline>
    <contour>
      <point x="-666" y="739"/>
      <point x="-736" y="774"/>
      <point x="-817" y="850" type="curve"/>
      <point x="-817" y="991" type="line"/>
      <point x="-772" y="958"/>
      <point x="-738" y="935"/>
      <point x="-713" y="922" type="curve"/>
      <point x="-690" y="909"/>
      <point x="-669" y="903"/>
      <point x="-651" y="903" type="curve" smooth="yes"/>
      <point x="-599" y="903"/>
      <point x="-563" y="946"/>
      <point x="-563" y="1011" type="curve" smooth="yes"/>
      <point x="-563" y="1063"/>
      <point x="-573" y="1115"/>
      <point x="-594" y="1167" type="curve"/>
      <point x="-438" y="1167" type="line"/>
      <point x="-423" y="1096"/>
      <point x="-416" y="1032"/>
      <point x="-416" y="977" type="curve" smooth="yes"/>
      <point x="-416" y="824"/>
      <point x="-478" y="739"/>
      <point x="-594" y="739" type="curve" smooth="yes"/>
    </contour>
  </outline>
</glyph>
<glyph name="uni031F" format="1">
  <advance width="0"/>
  <unicode hex="031F"/>
  <note>
	uni031F
  </note>
  <outline>
    <contour>
      <point x="-698" y="-624" type="line"/>
      <point x="-880" y="-624" type="line"/>
      <point x="-880" y="-435" type="line"/>
      <point x="-698" y="-435" type="line"/>
      <point x="-698" y="-252" type="line"/>
      <point x="-508" y="-252" type="line"/>
      <point x="-508" y="-435" type="line"/>
      <point x="-325" y="-435" type="line"/>
      <point x="-325" y="-624" type="line"/>
      <point x="-508" y="-624" type="line"/>
      <point x="-508" y="-807" type="line"/>
      <point x="-698" y="-807" type="line"/>
    </contour>
  </outline>
</glyph>
<glyph name="uni0322" format="1">
  <advance width="0"/>
  <unicode hex="0322"/>
  <note>
	uni0322
  </note>
  <outline>
    <contour>
      <point x="-815" y="-426"/>
      <point x="-912" y="-393"/>
      <point x="-975" y="-317" type="curve" smooth="yes"/>
      <point x="-1039" y="-242"/>
      <point x="-1066" y="-126"/>
      <point x="-1066" y="41" type="curve" smooth="yes"/>
      <point x="-1066" y="166" type="line"/>
      <point x="-775" y="166" type="line"/>
      <point x="-775" y="41" type="line" smooth="yes"/>
      <point x="-775" y="-48"/>
      <point x="-762" y="-109"/>
      <point x="-733" y="-147" type="curve" smooth="yes"/>
      <point x="-704" y="-185"/>
      <point x="-658" y="-201"/>
      <point x="-593" y="-201" type="curve" smooth="yes"/>
      <point x="-554" y="-201" type="line"/>
      <point x="-554" y="-426" type="line"/>
      <point x="-675" y="-426" type="line" smooth="yes"/>
    </contour>
  </outline>
</glyph>
<glyph name="uni0325" format="1">
  <advance width="0"/>
  <unicode hex="0325"/>
  <note>
	uni0325
  </note>
  <outline>
    <contour>
      <point x="-678" y="-502"/>
      <point x="-733" y="-478"/>
      <point x="-772" y="-438" type="curve" smooth="yes"/>
      <point x="-812" y="-398"/>
      <point x="-836" y="-343"/>
      <point x="-836" y="-282" type="curve" smooth="yes"/>
      <point x="-836" y="-221"/>
      <point x="-812" y="-166"/>
      <point x="-772" y="-126" type="curve" smooth="yes"/>
      <point x="-733" y="-87"/>
      <point x="-678" y="-63"/>
      <point x="-617" y="-63" type="curve" smooth="yes"/>
      <point x="-556" y="-63"/>
      <point x="-500" y="-87"/>
      <point x="-460" y="-126" type="curve" smooth="yes"/>
      <point x="-421" y="-166"/>
      <point x="-397" y="-221"/>
      <point x="-397" y="-282" type="curve" smooth="yes"/>
      <point x="-397" y="-343"/>
      <point x="-421" y="-398"/>
      <point x="-460" y="-438" type="curve" smooth="yes"/>
      <point x="-500" y="-478"/>
      <point x="-556" y="-502"/>
      <point x="-617" y="-502" type="curve" smooth="yes"/>
    </contour>
    <contour>
      <point x="-568" y="-370"/>
      <point x="-529" y="-331"/>
      <point x="-529" y="-282" type="curve" smooth="yes"/>
      <point x="-529" y="-234"/>
      <point x="-568" y="-195"/>
      <point x="-617" y="-195" type="curve" smooth="yes"/>
      <point x="-666" y="-195"/>
      <point x="-704" y="-233"/>
      <point x="-704" y="-282" type="curve" smooth="yes"/>
      <point x="-704" y="-333"/>
      <point x="-666" y="-370"/>
      <point x="-617" y="-370" type="curve" smooth="yes"/>
    </contour>
  </outline>
</glyph>
<glyph name="uni0334" format="1">
  <advance width="0"/>
  <unicode hex="0334"/>
  <note>
	uni0334
  </note>
  <outline>
    <contour>
      <point x="-446" y="463"/>
      <point x="-513" y="480"/>
      <point x="-588" y="514" type="curve" smooth="yes"/>
      <point x="-603" y="521"/>
      <point x="-614" y="525"/>
      <point x="-621" y="528" type="curve" smooth="yes"/>
      <point x="-673" y="551"/>
      <point x="-713" y="565"/>
      <point x="-749" y="574" type="curve" smooth="yes"/>
      <point x="-786" y="583"/>
      <point x="-819" y="586"/>
      <point x="-852" y="586" type="curve" smooth="yes"/>
      <point x="-956" y="586"/>
      <point x="-1045" y="549"/>
      <point x="-1145" y="465" type="curve"/>
      <point x="-1145" y="694" type="line"/>
      <point x="-1041" y="775"/>
      <point x="-949" y="809"/>
      <point x="-838" y="809" type="curve" smooth="yes"/>
      <point x="-802" y="809"/>
      <point x="-771" y="806"/>
      <point x="-735" y="798" type="curve" smooth="yes"/>
      <point x="-699" y="790"/>
      <point x="-660" y="776"/>
      <point x="-611" y="756" type="curve"/>
      <point x="-578" y="741" type="line" smooth="yes"/>
      <point x="-502" y="704"/>
      <point x="-432" y="686"/>
      <point x="-369" y="686" type="curve" smooth="yes"/>
      <point x="-276" y="686"/>
      <point x="-185" y="726"/>
      <point x="-88" y="811" type="curve"/>
      <point x="-88" y="578" type="line"/>
      <point x="-188" y="498"/>
      <point x="-280" y="463"/>
      <point x="-385" y="463" type="curve" smooth="yes"/>
    </contour>
  </outline>
</glyph>
<glyph name="uni033D" format="1">
  <advance width="0"/>
  <unicode hex="033D"/>
  <note>
	uni033D
  </note>
  <outline>
    <contour>
      <point x="-880" y="1326" type="line"/>
      <point x="-751" y="1455" type="line"/>
      <point x="-880" y="1584" type="line"/>
      <point x="-746" y="1718" type="line"/>
      <point x="-617" y="1589" type="line"/>
      <point x="-487" y="1718" type="line"/>
      <point x="-353" y="1584" type="line"/>
      <point x="-482" y="1455" type="line"/>
      <point x="-353" y="1326" type="line"/>
      <point x="-487" y="1192" type="line"/>
      <point x="-617" y="1321" type="line"/>
      <point x="-746" y="1192" type="line"/>
    </contour>
  </outline>
</glyph>
<glyph name="tonos" format="1">
  <advance width="1233"/>
  <unicode hex="0384"/>
  <note>
	tonos
  </note>
  <outline>
    <contour>
      <point x="752" y="1638" type="line"/>
      <point x="1034" y="1638" type="line"/>
      <point x="666" y="1262" type="line"/>
      <point x="469" y="1262" type="line"/>
    </contour>
  </outline>
</glyph>
<glyph name="Gamma" format="1">
  <advance width="1233"/>
  <unicode hex="0393"/>
  <note>
	Gamma
  </note>
  <outline>
    <contour>
      <point x="182" y="1493" type="line"/>
      <point x="1112" y="1493" type="line"/>
      <point x="1112" y="1233" type="line"/>
      <point x="477" y="1233" type="line"/>
      <point x="477" y="0" type="line"/>
      <point x="182" y="0" type="line"/>
    </contour>
  </outline>
</glyph>
<glyph name="Theta" format="1">
  <advance width="1233"/>
  <unicode hex="0398"/>
  <note>
	Theta
  </note>
  <outline>
    <contour>
      <point x="1001" y="-24"/>
      <point x="1223" y="187"/>
      <point x="1223" y="675" type="curve" smooth="yes"/>
      <point x="1223" y="1158"/>
      <point x="1005" y="1418"/>
      <point x="618" y="1418" type="curve" smooth="yes"/>
      <point x="230" y="1418"/>
      <point x="10" y="1156"/>
      <point x="10" y="680" type="curve" smooth="yes"/>
      <point x="10" y="214"/>
      <point x="221" y="-24"/>
      <point x="623" y="-24" type="curve" smooth="yes"/>
    </contour>
    <contour>
      <point x="373" y="231"/>
      <point x="293" y="411"/>
      <point x="293" y="686" type="curve" smooth="yes"/>
      <point x="293" y="959"/>
      <point x="372" y="1183"/>
      <point x="623" y="1183" type="curve" smooth="yes"/>
      <point x="874" y="1183"/>
      <point x="940" y="958"/>
      <point x="940" y="686" type="curve" smooth="yes"/>
      <point x="940" y="401"/>
      <point x="868" y="231"/>
      <point x="624" y="231" type="curve" smooth="yes"/>
    </contour>
    <contour>
      <point x="830" y="579" type="line"/>
      <point x="830" y="809" type="line"/>
      <point x="403" y="809" type="line"/>
      <point x="403" y="579" type="line"/>
    </contour>
  </outline>
</glyph>
<glyph name="Xi" format="1">
  <advance width="1233"/>
  <unicode hex="039E"/>
  <note>
	Xi
  </note>
  <outline>
    <contour>
      <point x="137" y="1493" type="line"/>
      <point x="1096" y="1493" type="line"/>
      <point x="1096" y="1233" type="line"/>
      <point x="137" y="1233" type="line"/>
    </contour>
    <contour>
      <point x="377" y="924" type="line"/>
      <point x="856" y="924" type="line"/>
      <point x="856" y="664" type="line"/>
      <point x="377" y="664" type="line"/>
    </contour>
    <contour>
      <point x="137" y="260" type="line"/>
      <point x="1096" y="260" type="line"/>
      <point x="1096" y="0" type="line"/>
      <point x="137" y="0" type="line"/>
    </contour>
  </outline>
</glyph>
<glyph name="Rho" format="1">
  <advance width="1233"/>
  <unicode hex="03A1"/>
  <note>
	Rho
  </note>
  <outline>
    <contour>
      <point x="162" y="1493" type="line"/>
      <point x="567" y="1493" type="line" smooth="yes"/>
      <point x="772" y="1493"/>
      <point x="918" y="1459"/>
      <point x="1012" y="1383" type="curve" smooth="yes"/>
      <point x="1106" y="1307"/>
      <point x="1147" y="1190"/>
      <point x="1147" y="1026" type="curve" smooth="yes"/>
      <point x="1147" y="862"/>
      <point x="1106" y="745"/>
      <point x="1012" y="669" type="curve" smooth="yes"/>
      <point x="918" y="593"/>
      <point x="772" y="559"/>
      <point x="567" y="559" type="curve" smooth="yes"/>
      <point x="457" y="559" type="line"/>
      <point x="457" y="0" type="line"/>
      <point x="162" y="0" type="line"/>
    </contour>
    <contour>
      <point x="578" y="807" type="line" smooth="yes"/>
      <point x="674" y="807"/>
      <point x="740" y="821"/>
      <point x="781" y="856" type="curve" smooth="yes"/>
      <point x="822" y="891"/>
      <point x="840" y="946"/>
      <point x="840" y="1026" type="curve" smooth="yes"/>
      <point x="840" y="1106"/>
      <point x="822" y="1161"/>
      <point x="781" y="1196" type="curve" smooth="yes"/>
      <point x="740" y="1231"/>
      <point x="674" y="1245"/>
      <point x="578" y="1245" type="curve" smooth="yes"/>
      <point x="457" y="1245" type="line"/>
      <point x="457" y="807" type="line"/>
    </contour>
  </outline>
</glyph>
<glyph name="Psi" format="1">
  <advance width="1233"/>
  <unicode hex="03A8"/>
  <note>
	Psi
  </note>
  <outline>
    <contour>
      <point x="350" y="260" type="line"/>
      <point x="469" y="260" type="line"/>
      <point x="469" y="392" type="line"/>
      <point x="270" y="451"/>
      <point x="161" y="623"/>
      <point x="115" y="815" type="curve" smooth="yes"/>
      <point x="92" y="911"/>
      <point x="80" y="1021"/>
      <point x="80" y="1146" type="curve" smooth="yes"/>
      <point x="80" y="1493" type="line"/>
      <point x="375" y="1493" type="line"/>
      <point x="375" y="1146" type="line" smooth="yes"/>
      <point x="375" y="979"/>
      <point x="396" y="849"/>
      <point x="439" y="758" type="curve"/>
      <point x="446" y="745"/>
      <point x="460" y="716"/>
      <point x="469" y="705" type="curve"/>
      <point x="469" y="1493" type="line"/>
      <point x="764" y="1493" type="line"/>
      <point x="764" y="705" type="line"/>
      <point x="773" y="717"/>
      <point x="785" y="739"/>
      <point x="794" y="758" type="curve" smooth="yes"/>
      <point x="837" y="849"/>
      <point x="858" y="979"/>
      <point x="858" y="1146" type="curve" smooth="yes"/>
      <point x="858" y="1493" type="line"/>
      <point x="1153" y="1493" type="line"/>
      <point x="1153" y="1146" type="line" smooth="yes"/>
      <point x="1153" y="887"/>
      <point x="1105" y="701"/>
      <point x="1008" y="568" type="curve" smooth="yes"/>
      <point x="943" y="480"/>
      <point x="862" y="421"/>
      <point x="764" y="392" type="curve"/>
      <point x="764" y="260" type="line"/>
      <point x="883" y="260" type="line"/>
      <point x="883" y="0" type="line"/>
      <point x="350" y="0" type="line"/>
    </contour>
  </outline>
</glyph>
<glyph name="delta" format="1">
  <advance width="1233"/>
  <unicode hex="03B4"/>
  <note>
	delta
  </note>
  <outline>
    <contour>
      <point x="459" y="-29"/>
      <point x="329" y="28"/>
      <point x="239" y="129" type="curve" smooth="yes"/>
      <point x="149" y="230"/>
      <point x="98" y="377"/>
      <point x="98" y="560" type="curve" smooth="yes"/>
      <point x="98" y="739"/>
      <point x="146" y="875"/>
      <point x="238" y="988" type="curve" smooth="yes"/>
      <point x="257" y="1011"/>
      <point x="274" y="1029"/>
      <point x="291" y="1044" type="curve" smooth="yes"/>
      <point x="307" y="1058"/>
      <point x="319" y="1065"/>
      <point x="327" y="1065" type="curve"/>
      <point x="228" y="1108"/>
      <point x="182" y="1181"/>
      <point x="182" y="1277" type="curve" smooth="yes"/>
      <point x="182" y="1369"/>
      <point x="226" y="1442"/>
      <point x="307" y="1492" type="curve" smooth="yes"/>
      <point x="388" y="1542"/>
      <point x="509" y="1569"/>
      <point x="662" y="1569" type="curve" smooth="yes"/>
      <point x="722" y="1569"/>
      <point x="784" y="1565"/>
      <point x="840" y="1557" type="curve"/>
      <point x="841" y="1556"/>
      <point x="843" y="1556"/>
      <point x="845" y="1556" type="curve" smooth="yes"/>
      <point x="847" y="1556"/>
      <point x="849" y="1556"/>
      <point x="850" y="1555" type="curve"/>
      <point x="861" y="1554"/>
      <point x="879" y="1550"/>
      <point x="904" y="1545" type="curve"/>
      <point x="929" y="1539"/>
      <point x="961" y="1531"/>
      <point x="1002" y="1521" type="curve"/>
      <point x="1002" y="1306" type="line"/>
      <point x="1001" y="1307"/>
      <point x="999" y="1307"/>
      <point x="997" y="1308" type="curve" smooth="yes"/>
      <point x="995" y="1309"/>
      <point x="988" y="1311"/>
      <point x="977" y="1314" type="curve" smooth="yes"/>
      <point x="912" y="1334"/>
      <point x="862" y="1348"/>
      <point x="817" y="1356" type="curve" smooth="yes"/>
      <point x="772" y="1364"/>
      <point x="731" y="1367"/>
      <point x="684" y="1367" type="curve" smooth="yes"/>
      <point x="641" y="1367"/>
      <point x="608" y="1364"/>
      <point x="581" y="1359" type="curve" smooth="yes"/>
      <point x="553" y="1354"/>
      <point x="531" y="1345"/>
      <point x="510" y="1333" type="curve"/>
      <point x="488" y="1318" type="line"/>
      <point x="465" y="1301"/>
      <point x="453" y="1279"/>
      <point x="453" y="1246" type="curve" smooth="yes"/>
      <point x="453" y="1202"/>
      <point x="473" y="1179"/>
      <point x="504" y="1166" type="curve" smooth="yes"/>
      <point x="535" y="1153"/>
      <point x="575" y="1150"/>
      <point x="616" y="1147" type="curve" smooth="yes"/>
      <point x="779" y="1135"/>
      <point x="909" y="1083"/>
      <point x="998" y="988" type="curve" smooth="yes"/>
      <point x="1086" y="893"/>
      <point x="1135" y="754"/>
      <point x="1135" y="570" type="curve" smooth="yes"/>
      <point x="1135" y="382"/>
      <point x="1085" y="232"/>
      <point x="995" y="129" type="curve" smooth="yes"/>
      <point x="905" y="26"/>
      <point x="775" y="-29"/>
      <point x="618" y="-29" type="curve" smooth="yes"/>
    </contour>
    <contour>
      <point x="687" y="209"/>
      <point x="743" y="241"/>
      <point x="782" y="301" type="curve" smooth="yes"/>
      <point x="821" y="361"/>
      <point x="842" y="448"/>
      <point x="842" y="559" type="curve" smooth="yes"/>
      <point x="842" y="668"/>
      <point x="821" y="756"/>
      <point x="782" y="816" type="curve" smooth="yes"/>
      <point x="743" y="876"/>
      <point x="687" y="909"/>
      <point x="616" y="909" type="curve" smooth="yes"/>
      <point x="545" y="909"/>
      <point x="490" y="876"/>
      <point x="451" y="816" type="curve" smooth="yes"/>
      <point x="412" y="756"/>
      <point x="391" y="668"/>
      <point x="391" y="559" type="curve" smooth="yes"/>
      <point x="391" y="448"/>
      <point x="412" y="361"/>
      <point x="451" y="301" type="curve" smooth="yes"/>
      <point x="490" y="241"/>
      <point x="545" y="209"/>
      <point x="616" y="209" type="curve" smooth="yes"/>
    </contour>
  </outline>
</glyph>
<glyph name="zeta" format="1">
  <advance width="1233"/>
  <unicode hex="03B6"/>
  <note>
	zeta
  </note>
  <outline>
    <contour>
      <point x="762" y="-201" type="line"/>
      <point x="809" y="-201"/>
      <point x="838" y="-189"/>
      <point x="856" y="-171" type="curve" smooth="yes"/>
      <point x="874" y="-153"/>
      <point x="880" y="-129"/>
      <point x="880" y="-104" type="curve" smooth="yes"/>
      <point x="880" y="-79"/>
      <point x="870" y="-53"/>
      <point x="851" y="-33" type="curve" smooth="yes"/>
      <point x="831" y="-13"/>
      <point x="802" y="0"/>
      <point x="762" y="0" type="curve" smooth="yes"/>
      <point x="563" y="0"/>
      <point x="416" y="56"/>
      <point x="317" y="147" type="curve" smooth="yes"/>
      <point x="217" y="238"/>
      <point x="167" y="364"/>
      <point x="163" y="504" type="curve" smooth="yes"/>
      <point x="159" y="643"/>
      <point x="200" y="796"/>
      <point x="284" y="941" type="curve" smooth="yes"/>
      <point x="368" y="1086"/>
      <point x="493" y="1223"/>
      <point x="660" y="1331" type="curve"/>
      <point x="189" y="1331" type="line"/>
      <point x="189" y="1556" type="line"/>
      <point x="1065" y="1556" type="line"/>
      <point x="1065" y="1331" type="line"/>
      <point x="658" y="1079"/>
      <point x="455" y="813"/>
      <point x="455" y="534" type="curve" smooth="yes"/>
      <point x="455" y="336"/>
      <point x="557" y="233"/>
      <point x="762" y="225" type="curve" smooth="yes"/>
      <point x="855" y="221"/>
      <point x="935" y="192"/>
      <point x="991" y="137" type="curve" smooth="yes"/>
      <point x="1047" y="81"/>
      <point x="1079" y="1"/>
      <point x="1079" y="-104" type="curve" smooth="yes"/>
      <point x="1079" y="-203"/>
      <point x="1047" y="-283"/>
      <point x="992" y="-339" type="curve" smooth="yes"/>
      <point x="936" y="-395"/>
      <point x="857" y="-426"/>
      <point x="762" y="-426" type="curve"/>
    </contour>
  </outline>
</glyph>
<glyph name="eta" format="1">
  <advance width="1233"/>
  <unicode hex="03B7"/>
  <note>
	eta
  </note>
  <outline>
    <contour>
      <point x="780" y="682" type="line" smooth="yes"/>
      <point x="780" y="839"/>
      <point x="737" y="909"/>
      <point x="640" y="909" type="curve" smooth="yes"/>
      <point x="523" y="909"/>
      <point x="463" y="810"/>
      <point x="463" y="641" type="curve" smooth="yes"/>
      <point x="463" y="0" type="line"/>
      <point x="172" y="0" type="line"/>
      <point x="172" y="1120" type="line"/>
      <point x="434" y="1120" type="line"/>
      <point x="463" y="952" type="line"/>
      <point x="506" y="1081"/>
      <point x="610" y="1147"/>
      <point x="753" y="1147" type="curve" smooth="yes"/>
      <point x="961" y="1147"/>
      <point x="1071" y="1008"/>
      <point x="1071" y="727" type="curve" smooth="yes"/>
      <point x="1071" y="-426" type="line"/>
      <point x="780" y="-426" type="line"/>
    </contour>
  </outline>
</glyph>
<glyph name="theta" format="1">
  <advance width="1233"/>
  <unicode hex="03B8"/>
  <note>
	theta
  </note>
  <outline>
    <contour>
      <point x="458" y="-24"/>
      <point x="328" y="54"/>
      <point x="238" y="192" type="curve" smooth="yes"/>
      <point x="148" y="330"/>
      <point x="97" y="529"/>
      <point x="97" y="776" type="curve" smooth="yes"/>
      <point x="97" y="1021"/>
      <point x="148" y="1221"/>
      <point x="238" y="1360" type="curve" smooth="yes"/>
      <point x="328" y="1499"/>
      <point x="457" y="1575"/>
      <point x="616" y="1575" type="curve" smooth="yes"/>
      <point x="775" y="1575"/>
      <point x="905" y="1499"/>
      <point x="995" y="1360" type="curve" smooth="yes"/>
      <point x="1085" y="1221"/>
      <point x="1135" y="1021"/>
      <point x="1135" y="774" type="curve" smooth="yes"/>
      <point x="1135" y="525"/>
      <point x="1084" y="329"/>
      <point x="996" y="192" type="curve" smooth="yes"/>
      <point x="905" y="52"/>
      <point x="777" y="-24"/>
      <point x="617" y="-24" type="curve" smooth="yes"/>
    </contour>
    <contour>
      <point x="839" y="887" type="line"/>
      <point x="831" y="1016"/>
      <point x="810" y="1131"/>
      <point x="774" y="1212" type="curve" smooth="yes"/>
      <point x="738" y="1293"/>
      <point x="687" y="1343"/>
      <point x="616" y="1343" type="curve" smooth="yes"/>
      <point x="545" y="1343"/>
      <point x="494" y="1293"/>
      <point x="458" y="1212" type="curve" smooth="yes"/>
      <point x="422" y="1131"/>
      <point x="401" y="1016"/>
      <point x="393" y="887" type="curve"/>
    </contour>
    <contour>
      <point x="688" y="209"/>
      <point x="740" y="260"/>
      <point x="776" y="343" type="curve" smooth="yes"/>
      <point x="812" y="426"/>
      <point x="831" y="538"/>
      <point x="839" y="662" type="curve"/>
      <point x="393" y="662" type="line"/>
      <point x="401" y="538"/>
      <point x="420" y="426"/>
      <point x="456" y="343" type="curve" smooth="yes"/>
      <point x="492" y="260"/>
      <point x="544" y="209"/>
      <point x="616" y="209" type="curve" smooth="yes"/>
    </contour>
  </outline>
</glyph>
<glyph name="xi" format="1">
  <advance width="1233"/>
  <unicode hex="03BE"/>
  <note>
	xi
  </note>
  <outline>
    <contour>
      <point x="752" y="-201" type="line"/>
      <point x="799" y="-201"/>
      <point x="828" y="-189"/>
      <point x="846" y="-171" type="curve" smooth="yes"/>
      <point x="864" y="-153"/>
      <point x="870" y="-131"/>
      <point x="870" y="-107" type="curve" smooth="yes"/>
      <point x="870" y="-79"/>
      <point x="862" y="-54"/>
      <point x="843" y="-34" type="curve" smooth="yes"/>
      <point x="824" y="-15"/>
      <point x="795" y="-3"/>
      <point x="752" y="0" type="curve" smooth="yes"/>
      <point x="741" y="1"/>
      <point x="724" y="1"/>
      <point x="701" y="2" type="curve"/>
      <point x="655" y="2"/>
      <point x="594" y="6"/>
      <point x="524" y="19" type="curve" smooth="yes"/>
      <point x="454" y="31"/>
      <point x="383" y="55"/>
      <point x="319" y="93" type="curve" smooth="yes"/>
      <point x="255" y="131"/>
      <point x="204" y="188"/>
      <point x="175" y="268" type="curve" smooth="yes"/>
      <point x="160" y="307"/>
      <point x="153" y="354"/>
      <point x="153" y="407" type="curve" smooth="yes"/>
      <point x="153" y="610"/>
      <point x="268" y="734"/>
      <point x="524" y="779" type="curve"/>
      <point x="316" y="804"/>
      <point x="206" y="917"/>
      <point x="206" y="1078" type="curve" smooth="yes"/>
      <point x="206" y="1138"/>
      <point x="221" y="1185"/>
      <point x="256" y="1226" type="curve" smooth="yes"/>
      <point x="291" y="1266"/>
      <point x="346" y="1300"/>
      <point x="426" y="1331" type="curve"/>
      <point x="179" y="1331" type="line"/>
      <point x="179" y="1556" type="line"/>
      <point x="1055" y="1556" type="line"/>
      <point x="1055" y="1331" type="line"/>
      <point x="870" y="1331"/>
      <point x="731" y="1310"/>
      <point x="638" y="1268" type="curve" smooth="yes"/>
      <point x="545" y="1225"/>
      <point x="498" y="1165"/>
      <point x="498" y="1087" type="curve" smooth="yes"/>
      <point x="498" y="1022"/>
      <point x="531" y="973"/>
      <point x="604" y="938" type="curve" smooth="yes"/>
      <point x="677" y="903"/>
      <point x="791" y="884"/>
      <point x="954" y="880" type="curve"/>
      <point x="954" y="657" type="line"/>
      <point x="621" y="652"/>
      <point x="445" y="570"/>
      <point x="445" y="409" type="curve" smooth="yes"/>
      <point x="445" y="333"/>
      <point x="485" y="290"/>
      <point x="544" y="265" type="curve" smooth="yes"/>
      <point x="603" y="240"/>
      <point x="679" y="232"/>
      <point x="752" y="225" type="curve" smooth="yes"/>
      <point x="959" y="205"/>
      <point x="1069" y="102"/>
      <point x="1069" y="-95" type="curve" smooth="yes"/>
      <point x="1069" y="-200"/>
      <point x="1037" y="-283"/>
      <point x="982" y="-339" type="curve" smooth="yes"/>
      <point x="926" y="-396"/>
      <point x="847" y="-426"/>
      <point x="752" y="-426" type="curve"/>
    </contour>
  </outline>
</glyph>
<glyph name="uni03C2" format="1">
  <advance width="1233"/>
  <unicode hex="03C2"/>
  <note>
	sigma1
  </note>
  <outline>
    <contour>
      <point x="749" y="-201" type="line"/>
      <point x="796" y="-201"/>
      <point x="825" y="-189"/>
      <point x="843" y="-171" type="curve" smooth="yes"/>
      <point x="861" y="-153"/>
      <point x="867" y="-130"/>
      <point x="867" y="-105" type="curve" smooth="yes"/>
      <point x="867" y="-50"/>
      <point x="836" y="-7"/>
      <point x="749" y="0" type="curve" smooth="yes"/>
      <point x="734" y="1"/>
      <point x="715" y="2"/>
      <point x="690" y="3" type="curve" smooth="yes"/>
      <point x="641" y="4"/>
      <point x="580" y="10"/>
      <point x="513" y="26" type="curve" smooth="yes"/>
      <point x="446" y="41"/>
      <point x="380" y="72"/>
      <point x="321" y="123" type="curve" smooth="yes"/>
      <point x="261" y="174"/>
      <point x="215" y="251"/>
      <point x="188" y="359" type="curve" smooth="yes"/>
      <point x="175" y="412"/>
      <point x="168" y="475"/>
      <point x="168" y="547" type="curve" smooth="yes"/>
      <point x="168" y="740"/>
      <point x="220" y="892"/>
      <point x="315" y="994" type="curve" smooth="yes"/>
      <point x="410" y="1096"/>
      <point x="548" y="1149"/>
      <point x="720" y="1149" type="curve" smooth="yes"/>
      <point x="843" y="1149"/>
      <point x="949" y="1123"/>
      <point x="1061" y="1063" type="curve"/>
      <point x="1061" y="795" type="line"/>
      <point x="976" y="868"/>
      <point x="871" y="909"/>
      <point x="762" y="909" type="curve" smooth="yes"/>
      <point x="570" y="909"/>
      <point x="465" y="787"/>
      <point x="465" y="551" type="curve" smooth="yes"/>
      <point x="465" y="455"/>
      <point x="483" y="388"/>
      <point x="512" y="341" type="curve" smooth="yes"/>
      <point x="540" y="294"/>
      <point x="580" y="267"/>
      <point x="622" y="251" type="curve" smooth="yes"/>
      <point x="664" y="235"/>
      <point x="708" y="229"/>
      <point x="749" y="225" type="curve" smooth="yes"/>
      <point x="845" y="214"/>
      <point x="924" y="187"/>
      <point x="980" y="136" type="curve" smooth="yes"/>
      <point x="1035" y="85"/>
      <point x="1066" y="11"/>
      <point x="1066" y="-93" type="curve" smooth="yes"/>
      <point x="1066" y="-200"/>
      <point x="1034" y="-282"/>
      <point x="979" y="-339" type="curve" smooth="yes"/>
      <point x="923" y="-396"/>
      <point x="844" y="-426"/>
      <point x="749" y="-426" type="curve"/>
    </contour>
  </outline>
</glyph>
<glyph name="sigma" format="1">
  <advance width="1233"/>
  <unicode hex="03C3"/>
  <note>
	sigma
  </note>
  <outline>
    <contour>
      <point x="438" y="-29"/>
      <point x="309" y="28"/>
      <point x="219" y="130" type="curve" smooth="yes"/>
      <point x="129" y="232"/>
      <point x="78" y="379"/>
      <point x="78" y="559" type="curve" smooth="yes"/>
      <point x="78" y="727"/>
      <point x="122" y="868"/>
      <point x="209" y="966" type="curve" smooth="yes"/>
      <point x="296" y="1064"/>
      <point x="425" y="1120"/>
      <point x="596" y="1120" type="curve" smooth="yes"/>
      <point x="1148" y="1120" type="line"/>
      <point x="1148" y="895" type="line"/>
      <point x="936" y="895" type="line"/>
      <point x="1000" y="847"/>
      <point x="1045" y="799"/>
      <point x="1074" y="743" type="curve" smooth="yes"/>
      <point x="1102" y="686"/>
      <point x="1115" y="620"/>
      <point x="1115" y="537" type="curve" smooth="yes"/>
      <point x="1115" y="373"/>
      <point x="1065" y="231"/>
      <point x="974" y="131" type="curve" smooth="yes"/>
      <point x="883" y="30"/>
      <point x="754" y="-29"/>
      <point x="594" y="-29" type="curve" smooth="yes"/>
    </contour>
    <contour>
      <point x="666" y="209"/>
      <point x="723" y="245"/>
      <point x="763" y="304" type="curve" smooth="yes"/>
      <point x="802" y="363"/>
      <point x="822" y="443"/>
      <point x="822" y="534" type="curve" smooth="yes"/>
      <point x="822" y="594"/>
      <point x="813" y="644"/>
      <point x="786" y="692" type="curve" smooth="yes"/>
      <point x="758" y="739"/>
      <point x="713" y="781"/>
      <point x="641" y="828" type="curve" smooth="yes"/>
      <point x="613" y="847"/>
      <point x="567" y="872"/>
      <point x="534" y="887" type="curve"/>
      <point x="446" y="862"/>
      <point x="407" y="790"/>
      <point x="387" y="706" type="curve" smooth="yes"/>
      <point x="376" y="664"/>
      <point x="371" y="615"/>
      <point x="371" y="559" type="curve" smooth="yes"/>
      <point x="371" y="448"/>
      <point x="392" y="361"/>
      <point x="431" y="301" type="curve" smooth="yes"/>
      <point x="470" y="241"/>
      <point x="526" y="209"/>
      <point x="594" y="209" type="curve" smooth="yes"/>
    </contour>
  </outline>
</glyph>
<glyph name="uni0401" format="1">
  <advance width="1233"/>
  <unicode hex="0401"/>
  <note>
	uni0401
  </note>
  <outline>
    <contour>
      <point x="352" y="1604" type="line" smooth="yes"/>
      <point x="332" y="1604"/>
      <point x="322" y="1614"/>
      <point x="322" y="1634" type="curve" smooth="yes"/>
      <point x="322" y="1820" type="line" smooth="yes"/>
      <point x="322" y="1840"/>
      <point x="332" y="1850"/>
      <point x="352" y="1850" type="curve" smooth="yes"/>
      <point x="528" y="1850" type="line" smooth="yes"/>
      <point x="548" y="1850"/>
      <point x="558" y="1840"/>
      <point x="558" y="1820" type="curve" smooth="yes"/>
      <point x="558" y="1634" type="line" smooth="yes"/>
      <point x="558" y="1614"/>
      <point x="548" y="1604"/>
      <point x="528" y="1604" type="curve" smooth="yes"/>
    </contour>
    <contour>
      <point x="747" y="1604" type="line" smooth="yes"/>
      <point x="727" y="1604"/>
      <point x="717" y="1614"/>
      <point x="717" y="1634" type="curve" smooth="yes"/>
      <point x="717" y="1820" type="line" smooth="yes"/>
      <point x="717" y="1840"/>
      <point x="727" y="1850"/>
      <point x="747" y="1850" type="curve" smooth="yes"/>
      <point x="923" y="1850" type="line" smooth="yes"/>
      <point x="943" y="1850"/>
      <point x="953" y="1840"/>
      <point x="953" y="1820" type="curve" smooth="yes"/>
      <point x="953" y="1634" type="line" smooth="yes"/>
      <point x="953" y="1614"/>
      <point x="943" y="1604"/>
      <point x="923" y="1604" type="curve" smooth="yes"/>
    </contour>
    <contour>
      <point x="158" y="1493" type="line"/>
      <point x="1088" y="1493" type="line"/>
      <point x="1088" y="1233" type="line"/>
      <point x="453" y="1233" type="line"/>
      <point x="453" y="911" type="line"/>
      <point x="1028" y="911" type="line"/>
      <point x="1028" y="651" type="line"/>
      <point x="453" y="651" type="line"/>
      <point x="453" y="260" type="line"/>
      <point x="1088" y="260" type="line"/>
      <point x="1088" y="0" type="line"/>
      <point x="158" y="0" type="line"/>
    </contour>
  </outline>
</glyph>
<glyph name="uni040A" format="1">
  <advance width="1233"/>
  <unicode hex="040A"/>
  <note>
	uni040A
  </note>
  <outline>
    <contour>
      <point x="30" y="1493" type="line"/>
      <point x="270" y="1493" type="line"/>
      <point x="270" y="924" type="line"/>
      <point x="592" y="924" type="line"/>
      <point x="592" y="1493" type="line"/>
      <point x="832" y="1493" type="line"/>
      <point x="832" y="913" type="line"/>
      <point x="854" y="913" type="line" smooth="yes"/>
      <point x="903" y="913"/>
      <point x="961" y="897"/>
      <point x="1018" y="865" type="curve" smooth="yes"/>
      <point x="1074" y="832"/>
      <point x="1128" y="782"/>
      <point x="1168" y="715" type="curve" smooth="yes"/>
      <point x="1207" y="647"/>
      <point x="1233" y="561"/>
      <point x="1233" y="457" type="curve" smooth="yes"/>
      <point x="1233" y="298"/>
      <point x="1174" y="185"/>
      <point x="1098" y="110" type="curve" smooth="yes"/>
      <point x="1021" y="35"/>
      <point x="926" y="0"/>
      <point x="854" y="0" type="curve" smooth="yes"/>
      <point x="592" y="0" type="line"/>
      <point x="592" y="664" type="line"/>
      <point x="270" y="664" type="line"/>
      <point x="270" y="0" type="line"/>
      <point x="30" y="0" type="line"/>
    </contour>
    <contour>
      <point x="840" y="236" type="line" smooth="yes"/>
      <point x="864" y="236"/>
      <point x="903" y="250"/>
      <point x="935" y="285" type="curve" smooth="yes"/>
      <point x="967" y="320"/>
      <point x="993" y="374"/>
      <point x="993" y="457" type="curve" smooth="yes"/>
      <point x="993" y="540"/>
      <point x="967" y="594"/>
      <point x="935" y="629" type="curve" smooth="yes"/>
      <point x="903" y="664"/>
      <point x="864" y="678"/>
      <point x="840" y="678" type="curve" smooth="yes"/>
      <point x="832" y="678" type="line"/>
      <point x="832" y="236" type="line"/>
    </contour>
  </outline>
</glyph>
<glyph name="uni040C" format="1">
  <advance width="1233"/>
  <unicode hex="040C"/>
  <note>
	uni040C
  </note>
  <outline>
    <contour>
      <point x="689" y="1850" type="line"/>
      <point x="973" y="1850" type="line"/>
      <point x="687" y="1586" type="line"/>
      <point x="490" y="1586" type="line"/>
    </contour>
    <contour>
      <point x="107" y="1493" type="line"/>
      <point x="402" y="1493" type="line"/>
      <point x="402" y="903" type="line"/>
      <point x="864" y="1493" type="line"/>
      <point x="1198" y="1493" type="line"/>
      <point x="727" y="905" type="line"/>
      <point x="1215" y="0" type="line"/>
      <point x="887" y="0" type="line"/>
      <point x="533" y="672" type="line"/>
      <point x="402" y="506" type="line"/>
      <point x="402" y="0" type="line"/>
      <point x="107" y="0" type="line"/>
    </contour>
  </outline>
</glyph>
<glyph name="uni0417" format="1">
  <advance width="1233"/>
  <unicode hex="0417"/>
  <note>
	uni0417
  </note>
  <outline>
    <contour>
      <point x="407" y="-29"/>
      <point x="258" y="-3"/>
      <point x="125" y="45" type="curve"/>
      <point x="125" y="319" type="line"/>
      <point x="189" y="286"/>
      <point x="263" y="262"/>
      <point x="335" y="246" type="curve" smooth="yes"/>
      <point x="407" y="230"/>
      <point x="478" y="223"/>
      <point x="538" y="223" type="curve" smooth="yes"/>
      <point x="731" y="223"/>
      <point x="817" y="303"/>
      <point x="817" y="435" type="curve" smooth="yes"/>
      <point x="817" y="578"/>
      <point x="721" y="668"/>
      <point x="549" y="668" type="curve" smooth="yes"/>
      <point x="391" y="668" type="line"/>
      <point x="391" y="928" type="line"/>
      <point x="549" y="928" type="line" smooth="yes"/>
      <point x="697" y="928"/>
      <point x="780" y="988"/>
      <point x="780" y="1097" type="curve" smooth="yes"/>
      <point x="780" y="1205"/>
      <point x="697" y="1270"/>
      <point x="544" y="1270" type="curve" smooth="yes"/>
      <point x="440" y="1270"/>
      <point x="307" y="1241"/>
      <point x="170" y="1188" type="curve"/>
      <point x="170" y="1456" type="line"/>
      <point x="307" y="1497"/>
      <point x="441" y="1520"/>
      <point x="566" y="1520" type="curve" smooth="yes"/>
      <point x="723" y="1520"/>
      <point x="848" y="1484"/>
      <point x="933" y="1417" type="curve" smooth="yes"/>
      <point x="1018" y="1350"/>
      <point x="1065" y="1254"/>
      <point x="1065" y="1135" type="curve" smooth="yes"/>
      <point x="1065" y="952"/>
      <point x="960" y="840"/>
      <point x="772" y="805" type="curve"/>
      <point x="875" y="786"/>
      <point x="957" y="746"/>
      <point x="1013" y="681" type="curve" smooth="yes"/>
      <point x="1069" y="616"/>
      <point x="1100" y="527"/>
      <point x="1100" y="412" type="curve" smooth="yes"/>
      <point x="1100" y="125"/>
      <point x="913" y="-29"/>
      <point x="554" y="-29" type="curve" smooth="yes"/>
    </contour>
  </outline>
</glyph>
<glyph name="uni042B" format="1">
  <advance width="1233"/>
  <unicode hex="042B"/>
  <note>
	uni042B
  </note>
  <outline>
    <contour>
      <point x="40" y="1493" type="line"/>
      <point x="295" y="1493" type="line"/>
      <point x="295" y="913" type="line"/>
      <point x="305" y="913" type="line" smooth="yes"/>
      <point x="480" y="913"/>
      <point x="615" y="879"/>
      <point x="705" y="804" type="curve" smooth="yes"/>
      <point x="795" y="729"/>
      <point x="841" y="615"/>
      <point x="841" y="456" type="curve" smooth="yes"/>
      <point x="841" y="143"/>
      <point x="661" y="0"/>
      <point x="305" y="0" type="curve" smooth="yes"/>
      <point x="40" y="0" type="line"/>
    </contour>
    <contour>
      <point x="938" y="1493" type="line"/>
      <point x="1193" y="1493" type="line"/>
      <point x="1193" y="0" type="line"/>
      <point x="938" y="0" type="line"/>
    </contour>
    <contour>
      <point x="316" y="236" type="line" smooth="yes"/>
      <point x="420" y="236"/>
      <point x="488" y="250"/>
      <point x="529" y="285" type="curve" smooth="yes"/>
      <point x="570" y="320"/>
      <point x="586" y="375"/>
      <point x="586" y="455" type="curve" smooth="yes"/>
      <point x="586" y="539"/>
      <point x="569" y="595"/>
      <point x="527" y="630" type="curve" smooth="yes"/>
      <point x="485" y="665"/>
      <point x="417" y="678"/>
      <point x="316" y="678" type="curve" smooth="yes"/>
      <point x="295" y="678" type="line"/>
      <point x="295" y="236" type="line"/>
    </contour>
  </outline>
</glyph>
<glyph name="uni042D" format="1">
  <advance width="1233"/>
  <unicode hex="042D"/>
  <note>
	uni042D
  </note>
  <outline>
    <contour>
      <point x="386" y="-29"/>
      <point x="287" y="-5"/>
      <point x="192" y="43" type="curve"/>
      <point x="192" y="371" type="line"/>
      <point x="289" y="281"/>
      <point x="390" y="236"/>
      <point x="496" y="236" type="curve" smooth="yes"/>
      <point x="677" y="236"/>
      <point x="780" y="362"/>
      <point x="807" y="615" type="curve"/>
      <point x="265" y="615" type="line"/>
      <point x="265" y="875" type="line"/>
      <point x="807" y="875" type="line"/>
      <point x="780" y="1128"/>
      <point x="676" y="1255"/>
      <point x="495" y="1255" type="curve" smooth="yes"/>
      <point x="390" y="1255"/>
      <point x="289" y="1210"/>
      <point x="192" y="1120" type="curve"/>
      <point x="192" y="1448" type="line"/>
      <point x="282" y="1496"/>
      <point x="386" y="1520"/>
      <point x="503" y="1520" type="curve" smooth="yes"/>
      <point x="703" y="1520"/>
      <point x="858" y="1452"/>
      <point x="962" y="1321" type="curve" smooth="yes"/>
      <point x="1066" y="1190"/>
      <point x="1121" y="997"/>
      <point x="1121" y="746" type="curve" smooth="yes"/>
      <point x="1121" y="495"/>
      <point x="1066" y="301"/>
      <point x="962" y="170" type="curve" smooth="yes"/>
      <point x="858" y="39"/>
      <point x="704" y="-29"/>
      <point x="505" y="-29" type="curve" smooth="yes"/>
    </contour>
  </outline>
</glyph>
<glyph name="uni042E" format="1">
  <advance width="1233"/>
  <unicode hex="042E"/>
  <note>
	uni042E
  </note>
  <outline>
    <contour>
      <point x="708" y="-29"/>
      <point x="606" y="31"/>
      <point x="537" y="167" type="curve"/>
      <point x="465" y="296"/>
      <point x="423" y="458"/>
      <point x="412" y="651" type="curve"/>
      <point x="301" y="651" type="line"/>
      <point x="301" y="0" type="line"/>
      <point x="6" y="0" type="line"/>
      <point x="6" y="1493" type="line"/>
      <point x="301" y="1493" type="line"/>
      <point x="301" y="911" type="line"/>
      <point x="416" y="911" type="line"/>
      <point x="425" y="1003"/>
      <point x="444" y="1100"/>
      <point x="476" y="1191" type="curve" smooth="yes"/>
      <point x="507" y="1282"/>
      <point x="552" y="1363"/>
      <point x="612" y="1423" type="curve" smooth="yes"/>
      <point x="672" y="1483"/>
      <point x="748" y="1520"/>
      <point x="843" y="1520" type="curve" smooth="yes"/>
      <point x="972" y="1520"/>
      <point x="1071" y="1452"/>
      <point x="1134" y="1324" type="curve" smooth="yes"/>
      <point x="1166" y="1260"/>
      <point x="1191" y="1174"/>
      <point x="1208" y="1075" type="curve" smooth="yes"/>
      <point x="1224" y="975"/>
      <point x="1233" y="862"/>
      <point x="1232" y="745" type="curve" smooth="yes"/>
      <point x="1229" y="496"/>
      <point x="1186" y="302"/>
      <point x="1114" y="171" type="curve" smooth="yes"/>
      <point x="1041" y="40"/>
      <point x="939" y="-29"/>
      <point x="820" y="-29" type="curve" smooth="yes"/>
    </contour>
    <contour>
      <point x="763" y="284"/>
      <point x="795" y="246"/>
      <point x="827" y="246" type="curve" smooth="yes"/>
      <point x="859" y="245"/>
      <point x="890" y="281"/>
      <point x="910" y="356" type="curve"/>
      <point x="927" y="411"/>
      <point x="940" y="492"/>
      <point x="947" y="584" type="curve" smooth="yes"/>
      <point x="950" y="629"/>
      <point x="952" y="677"/>
      <point x="952" y="727" type="curve" smooth="yes"/>
      <point x="952" y="827"/>
      <point x="947" y="926"/>
      <point x="935" y="1015" type="curve" smooth="yes"/>
      <point x="922" y="1103"/>
      <point x="900" y="1184"/>
      <point x="872" y="1225" type="curve" smooth="yes"/>
      <point x="858" y="1245"/>
      <point x="841" y="1255"/>
      <point x="822" y="1255" type="curve" smooth="yes"/>
      <point x="783" y="1255"/>
      <point x="756" y="1211"/>
      <point x="739" y="1134" type="curve"/>
      <point x="711" y="1031"/>
      <point x="697" y="907"/>
      <point x="697" y="740" type="curve" smooth="yes"/>
      <point x="697" y="573"/>
      <point x="711" y="441"/>
      <point x="739" y="356" type="curve" smooth="yes"/>
    </contour>
  </outline>
</glyph>
<glyph name="uni0437" format="1">
  <advance width="1233"/>
  <unicode hex="0437"/>
  <note>
	uni0437
  </note>
  <outline>
    <contour>
      <point x="459" y="-22"/>
      <point x="405" y="-18"/>
      <point x="349" y="-8" type="curve" smooth="yes"/>
      <point x="292" y="2"/>
      <point x="234" y="17"/>
      <point x="165" y="44" type="curve"/>
      <point x="165" y="280" type="line"/>
      <point x="230" y="248"/>
      <point x="286" y="228"/>
      <point x="344" y="216" type="curve" smooth="yes"/>
      <point x="402" y="204"/>
      <point x="463" y="201"/>
      <point x="543" y="201" type="curve" smooth="yes"/>
      <point x="616" y="201"/>
      <point x="681" y="204"/>
      <point x="726" y="220" type="curve" smooth="yes"/>
      <point x="771" y="236"/>
      <point x="798" y="266"/>
      <point x="798" y="319" type="curve" smooth="yes"/>
      <point x="798" y="379"/>
      <point x="764" y="415"/>
      <point x="718" y="436" type="curve" smooth="yes"/>
      <point x="672" y="456"/>
      <point x="615" y="462"/>
      <point x="568" y="462" type="curve" smooth="yes"/>
      <point x="405" y="462" type="line"/>
      <point x="405" y="681" type="line"/>
      <point x="542" y="681" type="line" smooth="yes"/>
      <point x="598" y="681"/>
      <point x="655" y="688"/>
      <point x="699" y="708" type="curve" smooth="yes"/>
      <point x="742" y="727"/>
      <point x="771" y="758"/>
      <point x="771" y="805" type="curve" smooth="yes"/>
      <point x="771" y="887"/>
      <point x="686" y="928"/>
      <point x="516" y="928" type="curve" smooth="yes"/>
      <point x="409" y="928"/>
      <point x="304" y="911"/>
      <point x="202" y="876" type="curve"/>
      <point x="202" y="1099" type="line"/>
      <point x="274" y="1120"/>
      <point x="403" y="1147"/>
      <point x="559" y="1147" type="curve" smooth="yes"/>
      <point x="724" y="1147"/>
      <point x="847" y="1116"/>
      <point x="930" y="1061" type="curve" smooth="yes"/>
      <point x="1013" y="1005"/>
      <point x="1054" y="925"/>
      <point x="1054" y="825" type="curve" smooth="yes"/>
      <point x="1054" y="748"/>
      <point x="1029" y="691"/>
      <point x="993" y="651" type="curve" smooth="yes"/>
      <point x="957" y="611"/>
      <point x="910" y="586"/>
      <point x="869" y="573" type="curve"/>
      <point x="922" y="558"/>
      <point x="979" y="524"/>
      <point x="1021" y="476" type="curve" smooth="yes"/>
      <point x="1063" y="427"/>
      <point x="1091" y="362"/>
      <point x="1091" y="287" type="curve" smooth="yes"/>
      <point x="1091" y="183"/>
      <point x="1036" y="106"/>
      <point x="937" y="55" type="curve" smooth="yes"/>
      <point x="837" y="3"/>
      <point x="695" y="-22"/>
      <point x="522" y="-22" type="curve" smooth="yes"/>
    </contour>
  </outline>
</glyph>
<glyph name="uni0441" format="1">
  <advance width="1233"/>
  <unicode hex="0441"/>
  <note>
	uni0441
  </note>
  <outline>
    <contour>
      <point x="148" y="374"/>
      <point x="199" y="228"/>
      <point x="294" y="127" type="curve" smooth="yes"/>
      <point x="389" y="26"/>
      <point x="527" y="-29"/>
      <point x="702" y="-29" type="curve" smooth="yes"/>
      <point x="829" y="-29"/>
      <point x="942" y="0"/>
      <point x="1041" y="57" type="curve"/>
      <point x="1041" y="326" type="line"/>
      <point x="957" y="251"/>
      <point x="858" y="211"/>
      <point x="745" y="211" type="curve" smooth="yes"/>
      <point x="549" y="211"/>
      <point x="445" y="334"/>
      <point x="445" y="558" type="curve" smooth="yes"/>
      <point x="445" y="785"/>
      <point x="550" y="909"/>
      <point x="742" y="909" type="curve" smooth="yes"/>
      <point x="851" y="909"/>
      <point x="956" y="868"/>
      <point x="1041" y="795" type="curve"/>
      <point x="1041" y="1375" type="line" smooth="yes"/>
      <point x="1041" y="1381"/>
      <point x="1037" y="1385"/>
      <point x="1031" y="1385" type="curve" smooth="yes"/>
      <point x="783" y="1385" type="line" smooth="yes"/>
      <point x="777" y="1385"/>
      <point x="773" y="1381"/>
      <point x="773" y="1375" type="curve" smooth="yes"/>
      <point x="773" y="1161" type="line" smooth="yes"/>
      <point x="773" y="1151"/>
      <point x="767" y="1146"/>
      <point x="757" y="1147" type="curve" smooth="yes"/>
      <point x="739" y="1148"/>
      <point x="720" y="1149"/>
      <point x="701" y="1149" type="curve" smooth="yes"/>
      <point x="529" y="1149"/>
      <point x="390" y="1093"/>
      <point x="295" y="992" type="curve" smooth="yes"/>
      <point x="200" y="891"/>
      <point x="148" y="743"/>
      <point x="148" y="558" type="curve" smooth="yes"/>
    </contour>
  </outline>
</glyph>
<glyph name="uni0447" format="1">
  <advance width="1233"/>
  <unicode hex="0447"/>
  <note>
	uni0447
  </note>
  <outline>
    <contour>
      <point x="760" y="416" type="line"/>
      <point x="570" y="416" type="line" smooth="yes"/>
      <point x="439" y="416"/>
      <point x="330" y="436"/>
      <point x="252" y="496" type="curve" smooth="yes"/>
      <point x="174" y="555"/>
      <point x="128" y="654"/>
      <point x="128" y="813" type="curve" smooth="yes"/>
      <point x="128" y="1120" type="line"/>
      <point x="427" y="1120" type="line"/>
      <point x="427" y="783" type="line" smooth="yes"/>
      <point x="427" y="723"/>
      <point x="439" y="685"/>
      <point x="473" y="663" type="curve" smooth="yes"/>
      <point x="507" y="641"/>
      <point x="564" y="633"/>
      <point x="653" y="633" type="curve" smooth="yes"/>
      <point x="760" y="633" type="line"/>
      <point x="760" y="1121" type="line"/>
      <point x="1050" y="1121" type="line"/>
      <point x="1050" y="0" type="line"/>
      <point x="760" y="0" type="line"/>
    </contour>
  </outline>
</glyph>
<glyph name="uni044B" format="1">
  <advance width="1233"/>
  <unicode hex="044B"/>
  <note>
	uni044B
  </note>
  <outline>
    <contour>
      <point x="31" y="1120" type="line"/>
      <point x="322" y="1120" type="line"/>
      <point x="322" y="698" type="line"/>
      <point x="343" y="698" type="line" smooth="yes"/>
      <point x="484" y="698"/>
      <point x="599" y="669"/>
      <point x="677" y="612" type="curve" smooth="yes"/>
      <point x="755" y="555"/>
      <point x="798" y="467"/>
      <point x="798" y="350" type="curve" smooth="yes"/>
      <point x="798" y="233"/>
      <point x="755" y="145"/>
      <point x="677" y="87" type="curve" smooth="yes"/>
      <point x="599" y="29"/>
      <point x="484" y="0"/>
      <point x="343" y="0" type="curve" smooth="yes"/>
      <point x="31" y="0" type="line"/>
    </contour>
    <contour>
      <point x="908" y="1120" type="line"/>
      <point x="1201" y="1120" type="line"/>
      <point x="1201" y="0" type="line"/>
      <point x="908" y="0" type="line"/>
    </contour>
    <contour>
      <point x="349" y="219" type="line" smooth="yes"/>
      <point x="382" y="219"/>
      <point x="421" y="229"/>
      <point x="452" y="250" type="curve" smooth="yes"/>
      <point x="483" y="270"/>
      <point x="505" y="303"/>
      <point x="505" y="350" type="curve" smooth="yes"/>
      <point x="505" y="397"/>
      <point x="483" y="429"/>
      <point x="452" y="450" type="curve" smooth="yes"/>
      <point x="421" y="470"/>
      <point x="382" y="479"/>
      <point x="349" y="479" type="curve" smooth="yes"/>
      <point x="322" y="479" type="line"/>
      <point x="322" y="219" type="line"/>
    </contour>
  </outline>
</glyph>
<glyph name="uni044C" format="1">
  <advance width="1233"/>
  <unicode hex="044C"/>
  <note>
	uni044C
  </note>
  <outline>
    <contour>
      <point x="217" y="1120" type="line"/>
      <point x="508" y="1120" type="line"/>
      <point x="508" y="698" type="line"/>
      <point x="685" y="698" type="line" smooth="yes"/>
      <point x="826" y="698"/>
      <point x="941" y="669"/>
      <point x="1019" y="612" type="curve" smooth="yes"/>
      <point x="1097" y="555"/>
      <point x="1140" y="467"/>
      <point x="1140" y="350" type="curve" smooth="yes"/>
      <point x="1140" y="233"/>
      <point x="1097" y="145"/>
      <point x="1019" y="87" type="curve" smooth="yes"/>
      <point x="941" y="29"/>
      <point x="826" y="0"/>
      <point x="685" y="0" type="curve" smooth="yes"/>
      <point x="217" y="0" type="line"/>
    </contour>
    <contour>
      <point x="631" y="219" type="line" smooth="yes"/>
      <point x="779" y="219"/>
      <point x="847" y="257"/>
      <point x="847" y="350" type="curve" smooth="yes"/>
      <point x="847" y="443"/>
      <point x="779" y="479"/>
      <point x="631" y="479" type="curve" smooth="yes"/>
      <point x="508" y="479" type="line"/>
      <point x="508" y="219" type="line"/>
    </contour>
  </outline>
</glyph>
<glyph name="uni0451" format="1">
  <advance width="1233"/>
  <unicode hex="0451"/>
  <note>
	uni0451
  </note>
  <outline>
    <contour>
      <point x="370" y="1349" type="line" smooth="yes"/>
      <point x="350" y="1349"/>
      <point x="340" y="1359"/>
      <point x="340" y="1379" type="curve" smooth="yes"/>
      <point x="340" y="1565" type="line" smooth="yes"/>
      <point x="340" y="1585"/>
      <point x="350" y="1595"/>
      <point x="370" y="1595" type="curve" smooth="yes"/>
      <point x="546" y="1595" type="line" smooth="yes"/>
      <point x="566" y="1595"/>
      <point x="576" y="1585"/>
      <point x="576" y="1565" type="curve" smooth="yes"/>
      <point x="576" y="1379" type="line" smooth="yes"/>
      <point x="576" y="1359"/>
      <point x="566" y="1349"/>
      <point x="546" y="1349" type="curve" smooth="yes"/>
    </contour>
    <contour>
      <point x="765" y="1349" type="line" smooth="yes"/>
      <point x="745" y="1349"/>
      <point x="735" y="1359"/>
      <point x="735" y="1379" type="curve" smooth="yes"/>
      <point x="735" y="1565" type="line" smooth="yes"/>
      <point x="735" y="1585"/>
      <point x="745" y="1595"/>
      <point x="765" y="1595" type="curve" smooth="yes"/>
      <point x="941" y="1595" type="line" smooth="yes"/>
      <point x="961" y="1595"/>
      <point x="971" y="1585"/>
      <point x="971" y="1565" type="curve" smooth="yes"/>
      <point x="971" y="1379" type="line" smooth="yes"/>
      <point x="971" y="1359"/>
      <point x="961" y="1349"/>
      <point x="941" y="1349" type="curve" smooth="yes"/>
    </contour>
    <contour>
      <point x="486" y="-29"/>
      <point x="340" y="22"/>
      <point x="241" y="121" type="curve" smooth="yes"/>
      <point x="142" y="220"/>
      <point x="92" y="363"/>
      <point x="92" y="550" type="curve" smooth="yes"/>
      <point x="92" y="735"/>
      <point x="142" y="884"/>
      <point x="234" y="987" type="curve" smooth="yes"/>
      <point x="326" y="1090"/>
      <point x="460" y="1147"/>
      <point x="631" y="1147" type="curve" smooth="yes"/>
      <point x="792" y="1147"/>
      <point x="922" y="1095"/>
      <point x="1011" y="999" type="curve" smooth="yes"/>
      <point x="1100" y="903"/>
      <point x="1149" y="763"/>
      <point x="1149" y="584" type="curve" smooth="yes"/>
      <point x="1149" y="465" type="line"/>
      <point x="390" y="465" type="line"/>
      <point x="391" y="290"/>
      <point x="493" y="203"/>
      <point x="698" y="203" type="curve" smooth="yes"/>
      <point x="834" y="203"/>
      <point x="958" y="240"/>
      <point x="1102" y="324" type="curve"/>
      <point x="1102" y="55" type="line"/>
      <point x="969" y="-1"/>
      <point x="824" y="-29"/>
      <point x="679" y="-29" type="curve" smooth="yes"/>
    </contour>
    <contour>
      <point x="854" y="685" type="line"/>
      <point x="851" y="840"/>
      <point x="771" y="920"/>
      <point x="630" y="920" type="curve" smooth="yes"/>
      <point x="486" y="920"/>
      <point x="409" y="837"/>
      <point x="393" y="684" type="curve"/>
    </contour>
  </outline>
</glyph>
<glyph name="uni0459" format="1">
  <advance width="1233"/>
  <unicode hex="0459"/>
  <note>
	uni0459
  </note>
  <outline>
    <contour>
      <point x="11" y="240" type="line"/>
      <point x="21" y="240" type="line" smooth="yes"/>
      <point x="90" y="240"/>
      <point x="134" y="248"/>
      <point x="163" y="277" type="curve" smooth="yes"/>
      <point x="191" y="306"/>
      <point x="204" y="355"/>
      <point x="212" y="439" type="curve" smooth="yes"/>
      <point x="216" y="478"/>
      <point x="218" y="523"/>
      <point x="220" y="569" type="curve" smooth="yes"/>
      <point x="222" y="615"/>
      <point x="222" y="660"/>
      <point x="222" y="700" type="curve" smooth="yes"/>
      <point x="222" y="1120" type="line"/>
      <point x="820" y="1120" type="line"/>
      <point x="820" y="698" type="line"/>
      <point x="831" y="698" type="line" smooth="yes"/>
      <point x="936" y="698"/>
      <point x="1038" y="669"/>
      <point x="1112" y="612" type="curve" smooth="yes"/>
      <point x="1186" y="555"/>
      <point x="1233" y="467"/>
      <point x="1233" y="350" type="curve" smooth="yes"/>
      <point x="1233" y="233"/>
      <point x="1186" y="145"/>
      <point x="1112" y="87" type="curve" smooth="yes"/>
      <point x="1038" y="29"/>
      <point x="936" y="0"/>
      <point x="831" y="0" type="curve" smooth="yes"/>
      <point x="580" y="0" type="line"/>
      <point x="580" y="901" type="line"/>
      <point x="462" y="901" type="line"/>
      <point x="462" y="704" type="line" smooth="yes"/>
      <point x="462" y="607"/>
      <point x="460" y="493"/>
      <point x="445" y="387" type="curve" smooth="yes"/>
      <point x="430" y="281"/>
      <point x="403" y="182"/>
      <point x="354" y="115" type="curve" smooth="yes"/>
      <point x="294" y="35"/>
      <point x="204" y="0"/>
      <point x="55" y="0" type="curve" smooth="yes"/>
      <point x="11" y="0" type="line"/>
    </contour>
    <contour>
      <point x="837" y="219" type="line" smooth="yes"/>
      <point x="870" y="219"/>
      <point x="909" y="229"/>
      <point x="940" y="250" type="curve" smooth="yes"/>
      <point x="971" y="270"/>
      <point x="993" y="303"/>
      <point x="993" y="350" type="curve" smooth="yes"/>
      <point x="993" y="397"/>
      <point x="971" y="429"/>
      <point x="940" y="450" type="curve" smooth="yes"/>
      <point x="909" y="470"/>
      <point x="870" y="479"/>
      <point x="837" y="479" type="curve" smooth="yes"/>
      <point x="820" y="479" type="line"/>
      <point x="820" y="219" type="line"/>
    </contour>
  </outline>
</glyph>
<glyph name="uni0472" format="1">
  <advance width="1233"/>
  <unicode hex="0472"/>
  <note>
	uni0472
  </note>
  <outline>
    <contour>
      <point x="453" y="-29"/>
      <point x="342" y="24"/>
      <point x="264" y="105" type="curve" smooth="yes"/>
      <point x="186" y="185"/>
      <point x="143" y="294"/>
      <point x="120" y="403" type="curve" smooth="yes"/>
      <point x="96" y="512"/>
      <point x="92" y="624"/>
      <point x="92" y="712" type="curve" smooth="yes"/>
      <point x="92" y="1160"/>
      <point x="200" y="1413"/>
      <point x="440" y="1493" type="curve" smooth="yes"/>
      <point x="494" y="1511"/>
      <point x="553" y="1520"/>
      <point x="617" y="1520" type="curve" smooth="yes"/>
      <point x="965" y="1520"/>
      <point x="1141" y="1259"/>
      <point x="1141" y="743" type="curve" smooth="yes"/>
      <point x="1141" y="310"/>
      <point x="1014" y="65"/>
      <point x="777" y="-7" type="curve" smooth="yes"/>
      <point x="729" y="-22"/>
      <point x="675" y="-29"/>
      <point x="616" y="-29" type="curve" smooth="yes"/>
    </contour>
    <contour>
      <point x="828" y="911" type="line"/>
      <point x="816" y="1042"/>
      <point x="791" y="1134"/>
      <point x="752" y="1187" type="curve" smooth="yes"/>
      <point x="717" y="1234"/>
      <point x="672" y="1255"/>
      <point x="616" y="1255" type="curve" smooth="yes"/>
      <point x="517" y="1255"/>
      <point x="453" y="1184"/>
      <point x="423" y="1041" type="curve" smooth="yes"/>
      <point x="416" y="1008"/>
      <point x="410" y="965"/>
      <point x="405" y="911" type="curve"/>
    </contour>
    <contour>
      <point x="693" y="236"/>
      <point x="743" y="273"/>
      <point x="776" y="343" type="curve" smooth="yes"/>
      <point x="809" y="413"/>
      <point x="825" y="516"/>
      <point x="832" y="651" type="curve"/>
      <point x="401" y="651" type="line"/>
      <point x="406" y="518"/>
      <point x="423" y="414"/>
      <point x="457" y="344" type="curve" smooth="yes"/>
      <point x="491" y="274"/>
      <point x="541" y="236"/>
      <point x="617" y="236" type="curve" smooth="yes"/>
    </contour>
  </outline>
</glyph>
<glyph name="uni0494" format="1">
  <advance width="1233"/>
  <unicode hex="0494"/>
  <note>
	uni0494
  </note>
  <outline>
    <contour>
      <point x="528" y="-199" type="line"/>
      <point x="664" y="-199" type="line" smooth="yes"/>
      <point x="729" y="-199"/>
      <point x="775" y="-183"/>
      <point x="804" y="-144" type="curve" smooth="yes"/>
      <point x="832" y="-105"/>
      <point x="844" y="-45"/>
      <point x="844" y="43" type="curve" smooth="yes"/>
      <point x="844" y="464" type="line" smooth="yes"/>
      <point x="844" y="545"/>
      <point x="832" y="602"/>
      <point x="809" y="637" type="curve" smooth="yes"/>
      <point x="789" y="666"/>
      <point x="758" y="686"/>
      <point x="690" y="686" type="curve" smooth="yes"/>
      <point x="457" y="686" type="line"/>
      <point x="457" y="0" type="line"/>
      <point x="162" y="0" type="line"/>
      <point x="162" y="1493" type="line"/>
      <point x="1092" y="1493" type="line"/>
      <point x="1092" y="1233" type="line"/>
      <point x="457" y="1233" type="line"/>
      <point x="457" y="952" type="line"/>
      <point x="766" y="952" type="line" smooth="yes"/>
      <point x="849" y="952"/>
      <point x="925" y="934"/>
      <point x="992" y="899" type="curve" smooth="yes"/>
      <point x="1017" y="886"/>
      <point x="1042" y="869"/>
      <point x="1058" y="846" type="curve"/>
      <point x="1112" y="776"/>
      <point x="1139" y="671"/>
      <point x="1139" y="532" type="curve" smooth="yes"/>
      <point x="1139" y="43" type="line" smooth="yes"/>
      <point x="1139" y="-125"/>
      <point x="1112" y="-241"/>
      <point x="1049" y="-316" type="curve" smooth="yes"/>
      <point x="985" y="-392"/>
      <point x="887" y="-424"/>
      <point x="746" y="-424" type="curve" smooth="yes"/>
      <point x="528" y="-424" type="line"/>
    </contour>
  </outline>
</glyph>
<glyph name="uni04AA" format="1">
  <advance width="1233"/>
  <unicode hex="04AA"/>
  <note>
	uni04AA
  </note>
  <outline>
    <contour>
      <point x="559" y="1255"/>
      <point x="448" y="1084"/>
      <point x="448" y="745" type="curve" smooth="yes"/>
      <point x="448" y="406"/>
      <point x="559" y="236"/>
      <point x="772" y="236" type="curve" smooth="yes"/>
      <point x="877" y="236"/>
      <point x="969" y="278"/>
      <point x="1070" y="371" type="curve"/>
      <point x="1070" y="43" type="line"/>
      <point x="998" y="6"/>
      <point x="922" y="-17"/>
      <point x="835" y="-25" type="curve"/>
      <point x="870" y="-65"/>
      <point x="892" y="-100"/>
      <point x="906" y="-131" type="curve" smooth="yes"/>
      <point x="920" y="-163"/>
      <point x="925" y="-193"/>
      <point x="925" y="-222" type="curve" smooth="yes"/>
      <point x="925" y="-339"/>
      <point x="846" y="-401"/>
      <point x="675" y="-401" type="curve" smooth="yes"/>
      <point x="611" y="-401"/>
      <point x="545" y="-392"/>
      <point x="473" y="-375" type="curve"/>
      <point x="473" y="-219" type="line"/>
      <point x="534" y="-242"/>
      <point x="588" y="-254"/>
      <point x="637" y="-254" type="curve" smooth="yes"/>
      <point x="716" y="-254"/>
      <point x="761" y="-221"/>
      <point x="761" y="-170" type="curve" smooth="yes"/>
      <point x="761" y="-135"/>
      <point x="740" y="-92"/>
      <point x="693" y="-27" type="curve"/>
      <point x="514" y="-12"/>
      <point x="376" y="63"/>
      <point x="283" y="193" type="curve" smooth="yes"/>
      <point x="190" y="323"/>
      <point x="141" y="509"/>
      <point x="141" y="745" type="curve" smooth="yes"/>
      <point x="141" y="997"/>
      <point x="196" y="1190"/>
      <point x="300" y="1321" type="curve" smooth="yes"/>
      <point x="404" y="1452"/>
      <point x="558" y="1520"/>
      <point x="757" y="1520" type="curve" smooth="yes"/>
      <point x="874" y="1520"/>
      <point x="979" y="1496"/>
      <point x="1070" y="1448" type="curve"/>
      <point x="1070" y="1120" type="line"/>
      <point x="969" y="1213"/>
      <point x="877" y="1255"/>
      <point x="772" y="1255" type="curve" smooth="yes"/>
    </contour>
  </outline>
</glyph>
<glyph name="uni04AD" format="1">
  <advance width="1233"/>
  <unicode hex="04AD"/>
  <note>
	uni04AD
  </note>
  <outline>
    <contour>
      <point x="763" y="0" type="line"/>
      <point x="472" y="0" type="line"/>
      <point x="472" y="911" type="line"/>
      <point x="164" y="911" type="line"/>
      <point x="164" y="1120" type="line"/>
      <point x="1071" y="1120" type="line"/>
      <point x="1071" y="911" type="line"/>
      <point x="763" y="911" type="line"/>
      <point x="763" y="209" type="line"/>
      <point x="1052" y="209" type="line"/>
      <point x="1052" y="-286" type="line"/>
      <point x="763" y="-286" type="line"/>
    </contour>
  </outline>
</glyph>
<glyph name="uni04B3" format="1">
  <advance width="1233"/>
  <unicode hex="04B3"/>
  <note>
	uni04B3
  </note>
  <outline>
    <contour>
      <point x="889" y="0" type="line"/>
      <point x="836" y="0" type="line"/>
      <point x="616" y="377" type="line"/>
      <point x="397" y="0" type="line"/>
      <point x="55" y="0" type="line"/>
      <point x="469" y="584" type="line"/>
      <point x="88" y="1120" type="line"/>
      <point x="430" y="1120" type="line"/>
      <point x="616" y="786" type="line"/>
      <point x="803" y="1120" type="line"/>
      <point x="1145" y="1120" type="line"/>
      <point x="768" y="584" type="line"/>
      <point x="1031" y="209" type="line"/>
      <point x="1178" y="209" type="line"/>
      <point x="1178" y="-286" type="line"/>
      <point x="889" y="-286" type="line"/>
    </contour>
  </outline>
</glyph>
<glyph name="uni04C4" format="1">
  <advance width="1233"/>
  <unicode hex="04C4"/>
  <note>
	uni04C4
  </note>
  <outline>
    <contour>
      <point x="442" y="-199" type="line"/>
      <point x="555" y="-199" type="line" smooth="yes"/>
      <point x="620" y="-199"/>
      <point x="665" y="-183"/>
      <point x="694" y="-144" type="curve" smooth="yes"/>
      <point x="722" y="-105"/>
      <point x="734" y="-45"/>
      <point x="734" y="43" type="curve" smooth="yes"/>
      <point x="734" y="180" type="line" smooth="yes"/>
      <point x="734" y="263"/>
      <point x="722" y="319"/>
      <point x="698" y="355" type="curve" smooth="yes"/>
      <point x="674" y="390"/>
      <point x="638" y="405"/>
      <point x="587" y="405" type="curve" smooth="yes"/>
      <point x="467" y="405" type="line"/>
      <point x="467" y="0" type="line"/>
      <point x="174" y="0" type="line"/>
      <point x="174" y="1120" type="line"/>
      <point x="467" y="1120" type="line"/>
      <point x="467" y="739" type="line"/>
      <point x="819" y="1120" type="line"/>
      <point x="1174" y="1120" type="line"/>
      <point x="691" y="645" type="line"/>
      <point x="704" y="645" type="line" smooth="yes"/>
      <point x="917" y="645"/>
      <point x="1025" y="508"/>
      <point x="1025" y="225" type="curve" smooth="yes"/>
      <point x="1025" y="43" type="line" smooth="yes"/>
      <point x="1025" y="-125"/>
      <point x="998" y="-242"/>
      <point x="935" y="-317" type="curve" smooth="yes"/>
      <point x="872" y="-392"/>
      <point x="776" y="-424"/>
      <point x="637" y="-424" type="curve" smooth="yes"/>
      <point x="442" y="-424" type="line"/>
    </contour>
  </outline>
</glyph>
<glyph name="uni04CB" format="1">
  <advance width="1233"/>
  <unicode hex="04CB"/>
  <note>
	uni04CB
  </note>
  <outline>
    <contour>
      <point x="537" y="260" type="line"/>
      <point x="830" y="260" type="line"/>
      <point x="830" y="766" type="line"/>
      <point x="819" y="733"/>
      <point x="799" y="708"/>
      <point x="771" y="689" type="curve" smooth="yes"/>
      <point x="724" y="658" type="line" smooth="yes"/>
      <point x="705" y="646"/>
      <point x="675" y="635"/>
      <point x="639" y="627" type="curve" smooth="yes"/>
      <point x="603" y="618"/>
      <point x="561" y="611"/>
      <point x="521" y="610" type="curve" smooth="yes"/>
      <point x="464" y="607" type="line"/>
      <point x="385" y="607"/>
      <point x="303" y="624"/>
      <point x="239" y="660" type="curve" smooth="yes"/>
      <point x="190" y="688"/>
      <point x="145" y="734"/>
      <point x="117" y="839" type="curve" smooth="yes"/>
      <point x="102" y="892"/>
      <point x="95" y="954"/>
      <point x="95" y="1027" type="curve" smooth="yes"/>
      <point x="95" y="1556" type="line"/>
      <point x="386" y="1556" type="line"/>
      <point x="386" y="1095" type="line" smooth="yes"/>
      <point x="386" y="934"/>
      <point x="412" y="889"/>
      <point x="540" y="873" type="curve" smooth="yes"/>
      <point x="555" y="871"/>
      <point x="569" y="870"/>
      <point x="582" y="870" type="curve" smooth="yes"/>
      <point x="628" y="870"/>
      <point x="675" y="880"/>
      <point x="723" y="899" type="curve" smooth="yes"/>
      <point x="754" y="911"/>
      <point x="770" y="922"/>
      <point x="785" y="941" type="curve" smooth="yes"/>
      <point x="816" y="982"/>
      <point x="830" y="1056"/>
      <point x="830" y="1136" type="curve" smooth="yes"/>
      <point x="830" y="1556" type="line"/>
      <point x="1121" y="1556" type="line"/>
      <point x="1121" y="0" type="line"/>
      <point x="830" y="0" type="line"/>
      <point x="830" y="-322" type="line"/>
      <point x="537" y="-322" type="line"/>
    </contour>
  </outline>
</glyph>
<glyph name="uni04D5" format="1">
  <advance width="1233"/>
  <unicode hex="04D5"/>
  <note>
	uni04D5
  </note>
  <outline>
    <contour>
      <point x="134" y="-29"/>
      <point x="14" y="97"/>
      <point x="14" y="329" type="curve" smooth="yes"/>
      <point x="14" y="572"/>
      <point x="149" y="694"/>
      <point x="420" y="694" type="curve" smooth="yes"/>
      <point x="496" y="694" type="line"/>
      <point x="496" y="745" type="line" smooth="yes"/>
      <point x="496" y="870"/>
      <point x="445" y="932"/>
      <point x="342" y="932" type="curve" smooth="yes"/>
      <point x="265" y="932"/>
      <point x="176" y="896"/>
      <point x="76" y="823" type="curve"/>
      <point x="76" y="1069" type="line"/>
      <point x="179" y="1122"/>
      <point x="265" y="1147"/>
      <point x="361" y="1147" type="curve" smooth="yes"/>
      <point x="493" y="1147"/>
      <point x="569" y="1100"/>
      <point x="612" y="1020" type="curve"/>
      <point x="655" y="1105"/>
      <point x="742" y="1147"/>
      <point x="869" y="1147" type="curve" smooth="yes"/>
      <point x="985" y="1147"/>
      <point x="1064" y="1111"/>
      <point x="1115" y="1027" type="curve" smooth="yes"/>
      <point x="1166" y="942"/>
      <point x="1188" y="806"/>
      <point x="1188" y="606" type="curve" smooth="yes"/>
      <point x="1188" y="479" type="line"/>
      <point x="737" y="479" type="line"/>
      <point x="737" y="286"/>
      <point x="804" y="184"/>
      <point x="932" y="184" type="curve" smooth="yes"/>
      <point x="1011" y="184"/>
      <point x="1091" y="223"/>
      <point x="1171" y="301" type="curve"/>
      <point x="1171" y="57" type="line"/>
      <point x="1107" y="0"/>
      <point x="1023" y="-29"/>
      <point x="919" y="-29" type="curve" smooth="yes"/>
      <point x="776" y="-29"/>
      <point x="678" y="23"/>
      <point x="618" y="135" type="curve"/>
      <point x="563" y="23"/>
      <point x="479" y="-29"/>
      <point x="346" y="-29" type="curve" smooth="yes"/>
    </contour>
    <contour>
      <point x="963" y="690" type="line"/>
      <point x="963" y="713" type="line" smooth="yes"/>
      <point x="963" y="797"/>
      <point x="955" y="854"/>
      <point x="938" y="885" type="curve" smooth="yes"/>
      <point x="921" y="916"/>
      <point x="891" y="932"/>
      <point x="850" y="932" type="curve" smooth="yes"/>
      <point x="809" y="932"/>
      <point x="779" y="916"/>
      <point x="762" y="885" type="curve" smooth="yes"/>
      <point x="745" y="854"/>
      <point x="737" y="797"/>
      <point x="737" y="713" type="curve" smooth="yes"/>
      <point x="737" y="690" type="line"/>
    </contour>
    <contour>
      <point x="448" y="184"/>
      <point x="489" y="242"/>
      <point x="489" y="358" type="curve" smooth="yes"/>
      <point x="489" y="483" type="line"/>
      <point x="416" y="483" type="line" smooth="yes"/>
      <point x="299" y="483"/>
      <point x="240" y="431"/>
      <point x="240" y="327" type="curve" smooth="yes"/>
      <point x="240" y="236"/>
      <point x="284" y="184"/>
      <point x="365" y="184" type="curve" smooth="yes"/>
    </contour>
  </outline>
</glyph>
<glyph name="uni04E8" format="1">
  <advance width="1233"/>
  <unicode hex="04E8"/>
  <note>
	uni04E8
  </note>
  <outline>
    <contour>
      <point x="270" y="-29"/>
      <point x="92" y="237"/>
      <point x="92" y="746" type="curve" smooth="yes"/>
      <point x="92" y="1255"/>
      <point x="270" y="1520"/>
      <point x="617" y="1520" type="curve" smooth="yes"/>
      <point x="962" y="1520"/>
      <point x="1141" y="1257"/>
      <point x="1141" y="746" type="curve" smooth="yes"/>
      <point x="1141" y="235"/>
      <point x="962" y="-29"/>
      <point x="617" y="-29" type="curve" smooth="yes"/>
    </contour>
    <contour>
      <point x="828" y="911" type="line"/>
      <point x="819" y="1010"/>
      <point x="804" y="1096"/>
      <point x="772" y="1157" type="curve" smooth="yes"/>
      <point x="740" y="1218"/>
      <point x="692" y="1255"/>
      <point x="616" y="1255" type="curve" smooth="yes"/>
      <point x="540" y="1255"/>
      <point x="493" y="1219"/>
      <point x="462" y="1159" type="curve" smooth="yes"/>
      <point x="430" y="1098"/>
      <point x="414" y="1011"/>
      <point x="405" y="911" type="curve"/>
    </contour>
    <contour>
      <point x="693" y="236"/>
      <point x="743" y="273"/>
      <point x="776" y="343" type="curve" smooth="yes"/>
      <point x="809" y="413"/>
      <point x="825" y="516"/>
      <point x="832" y="651" type="curve"/>
      <point x="401" y="651" type="line"/>
      <point x="406" y="518"/>
      <point x="423" y="414"/>
      <point x="457" y="344" type="curve" smooth="yes"/>
      <point x="491" y="274"/>
      <point x="541" y="236"/>
      <point x="617" y="236" type="curve" smooth="yes"/>
    </contour>
  </outline>
</glyph>
<glyph name="uni04E9" format="1">
  <advance width="1233"/>
  <unicode hex="04E9"/>
  <note>
	uni04E9
  </note>
  <outline>
    <contour>
      <point x="457" y="-29"/>
      <point x="332" y="24"/>
      <point x="238" y="130" type="curve" smooth="yes"/>
      <point x="145" y="235"/>
      <point x="98" y="379"/>
      <point x="98" y="556" type="curve" smooth="yes"/>
      <point x="98" y="739"/>
      <point x="149" y="887"/>
      <point x="239" y="989" type="curve" smooth="yes"/>
      <point x="329" y="1091"/>
      <point x="457" y="1147"/>
      <point x="616" y="1147" type="curve" smooth="yes"/>
      <point x="775" y="1147"/>
      <point x="905" y="1091"/>
      <point x="995" y="989" type="curve" smooth="yes"/>
      <point x="1085" y="887"/>
      <point x="1135" y="739"/>
      <point x="1135" y="559" type="curve" smooth="yes"/>
      <point x="1135" y="379"/>
      <point x="1085" y="232"/>
      <point x="995" y="130" type="curve" smooth="yes"/>
      <point x="905" y="28"/>
      <point x="774" y="-29"/>
      <point x="614" y="-29" type="curve" smooth="yes"/>
    </contour>
    <contour>
      <point x="839" y="632" type="line"/>
      <point x="831" y="708"/>
      <point x="811" y="776"/>
      <point x="775" y="827" type="curve" smooth="yes"/>
      <point x="739" y="878"/>
      <point x="687" y="909"/>
      <point x="616" y="909" type="curve" smooth="yes"/>
      <point x="545" y="909"/>
      <point x="494" y="878"/>
      <point x="458" y="827" type="curve" smooth="yes"/>
      <point x="422" y="776"/>
      <point x="402" y="708"/>
      <point x="394" y="632" type="curve"/>
    </contour>
    <contour>
      <point x="687" y="209"/>
      <point x="736" y="239"/>
      <point x="770" y="283" type="curve" smooth="yes"/>
      <point x="804" y="327"/>
      <point x="823" y="383"/>
      <point x="832" y="438" type="curve"/>
      <point x="401" y="438" type="line"/>
      <point x="410" y="383"/>
      <point x="430" y="327"/>
      <point x="464" y="283" type="curve" smooth="yes"/>
      <point x="498" y="239"/>
      <point x="545" y="209"/>
      <point x="616" y="209" type="curve" smooth="yes"/>
    </contour>
  </outline>
</glyph>
<glyph name="uni04F0" format="1">
  <advance width="1233"/>
  <unicode hex="04F0"/>
  <note>
	uni04F0
  </note>
  <outline>
    <contour>
      <point x="331" y="1606" type="line" smooth="yes"/>
      <point x="311" y="1606"/>
      <point x="301" y="1616"/>
      <point x="301" y="1636" type="curve" smooth="yes"/>
      <point x="301" y="1822" type="line" smooth="yes"/>
      <point x="301" y="1842"/>
      <point x="311" y="1852"/>
      <point x="331" y="1852" type="curve" smooth="yes"/>
      <point x="507" y="1852" type="line" smooth="yes"/>
      <point x="527" y="1852"/>
      <point x="537" y="1842"/>
      <point x="537" y="1822" type="curve" smooth="yes"/>
      <point x="537" y="1636" type="line" smooth="yes"/>
      <point x="537" y="1616"/>
      <point x="527" y="1606"/>
      <point x="507" y="1606" type="curve" smooth="yes"/>
    </contour>
    <contour>
      <point x="726" y="1606" type="line" smooth="yes"/>
      <point x="706" y="1606"/>
      <point x="696" y="1616"/>
      <point x="696" y="1636" type="curve" smooth="yes"/>
      <point x="696" y="1822" type="line" smooth="yes"/>
      <point x="696" y="1842"/>
      <point x="706" y="1852"/>
      <point x="726" y="1852" type="curve" smooth="yes"/>
      <point x="902" y="1852" type="line" smooth="yes"/>
      <point x="922" y="1852"/>
      <point x="932" y="1842"/>
      <point x="932" y="1822" type="curve" smooth="yes"/>
      <point x="932" y="1636" type="line" smooth="yes"/>
      <point x="932" y="1616"/>
      <point x="922" y="1606"/>
      <point x="902" y="1606" type="curve" smooth="yes"/>
    </contour>
    <contour>
      <point x="185" y="260" type="line"/>
      <point x="265" y="260" type="line" smooth="yes"/>
      <point x="304" y="260"/>
      <point x="339" y="259"/>
      <point x="372" y="275" type="curve" smooth="yes"/>
      <point x="404" y="291"/>
      <point x="433" y="325"/>
      <point x="460" y="396" type="curve" smooth="yes"/>
      <point x="515" y="541" type="line"/>
      <point x="28" y="1493" type="line"/>
      <point x="333" y="1493" type="line"/>
      <point x="649" y="873" type="line"/>
      <point x="900" y="1493" type="line"/>
      <point x="1205" y="1493" type="line"/>
      <point x="727" y="303" type="line" smooth="yes"/>
      <point x="644" y="98"/>
      <point x="541" y="0"/>
      <point x="385" y="0" type="curve" smooth="yes"/>
      <point x="185" y="0" type="line"/>
    </contour>
  </outline>
</glyph>
<glyph name="uni04F7" format="1">
  <advance width="1233"/>
  <unicode hex="04F7"/>
  <note>
	uni04F7
  </note>
  <outline>
    <contour>
      <point x="523" y="0" type="line"/>
      <point x="232" y="0" type="line"/>
      <point x="232" y="1120" type="line"/>
      <point x="1031" y="1120" type="line"/>
      <point x="1031" y="911" type="line"/>
      <point x="523" y="911" type="line"/>
      <point x="523" y="209" type="line"/>
      <point x="812" y="209" type="line"/>
      <point x="812" y="-286" type="line"/>
      <point x="523" y="-286" type="line"/>
    </contour>
  </outline>
</glyph>
<glyph name="uni051B" format="1">
  <advance width="1233"/>
  <unicode hex="051B"/>
  <note>
	uni051B
  </note>
  <outline>
    <contour>
      <point x="791" y="158" type="line"/>
      <point x="714" y="27"/>
      <point x="624" y="-29"/>
      <point x="495" y="-29" type="curve" smooth="yes"/>
      <point x="370" y="-29"/>
      <point x="269" y="23"/>
      <point x="199" y="123" type="curve" smooth="yes"/>
      <point x="129" y="223"/>
      <point x="90" y="370"/>
      <point x="90" y="559" type="curve" smooth="yes"/>
      <point x="90" y="746"/>
      <point x="127" y="893"/>
      <point x="196" y="993" type="curve" smooth="yes"/>
      <point x="265" y="1093"/>
      <point x="364" y="1147"/>
      <point x="491" y="1147" type="curve" smooth="yes"/>
      <point x="635" y="1147"/>
      <point x="728" y="1079"/>
      <point x="791" y="952" type="curve"/>
      <point x="820" y="1120" type="line"/>
      <point x="1083" y="1120" type="line"/>
      <point x="1083" y="-426" type="line"/>
      <point x="791" y="-426" type="line"/>
    </contour>
    <contour>
      <point x="650" y="215"/>
      <point x="701" y="247"/>
      <point x="737" y="307" type="curve" smooth="yes"/>
      <point x="772" y="367"/>
      <point x="791" y="453"/>
      <point x="791" y="561" type="curve" smooth="yes"/>
      <point x="791" y="669"/>
      <point x="772" y="755"/>
      <point x="737" y="815" type="curve" smooth="yes"/>
      <point x="701" y="875"/>
      <point x="650" y="907"/>
      <point x="586" y="907" type="curve" smooth="yes"/>
      <point x="522" y="907"/>
      <point x="472" y="875"/>
      <point x="437" y="815" type="curve" smooth="yes"/>
      <point x="402" y="755"/>
      <point x="383" y="669"/>
      <point x="383" y="561" type="curve" smooth="yes"/>
      <point x="383" y="453"/>
      <point x="402" y="367"/>
      <point x="437" y="307" type="curve" smooth="yes"/>
      <point x="472" y="247"/>
      <point x="522" y="215"/>
      <point x="586" y="215" type="curve" smooth="yes"/>
    </contour>
  </outline>
</glyph>
<glyph name="uni0531" format="1">
  <advance width="1233"/>
  <unicode hex="0531"/>
  <note>
	uni0531
  </note>
  <outline>
    <contour>
      <point x="944" y="-41"/>
      <point x="897" y="-12"/>
      <point x="852" y="21" type="curve"/>
      <point x="780" y="-12"/>
      <point x="689" y="-29"/>
      <point x="580" y="-29" type="curve" smooth="yes"/>
      <point x="401" y="-29"/>
      <point x="276" y="14"/>
      <point x="192" y="109" type="curve" smooth="yes"/>
      <point x="108" y="204"/>
      <point x="71" y="346"/>
      <point x="71" y="551" type="curve" smooth="yes"/>
      <point x="71" y="1493" type="line"/>
      <point x="366" y="1493" type="line"/>
      <point x="366" y="477" type="line" smooth="yes"/>
      <point x="366" y="328"/>
      <point x="444" y="238"/>
      <point x="581" y="238" type="curve" smooth="yes"/>
      <point x="596" y="238"/>
      <point x="611" y="239"/>
      <point x="625" y="241" type="curve"/>
      <point x="582" y="294"/>
      <point x="547" y="346"/>
      <point x="522" y="391" type="curve"/>
      <point x="700" y="535" type="line"/>
      <point x="723" y="492"/>
      <point x="753" y="455"/>
      <point x="792" y="420" type="curve"/>
      <point x="795" y="439"/>
      <point x="796" y="457"/>
      <point x="796" y="477" type="curve" smooth="yes"/>
      <point x="796" y="1493" type="line"/>
      <point x="1091" y="1493" type="line"/>
      <point x="1091" y="551" type="line" smooth="yes"/>
      <point x="1091" y="430"/>
      <point x="1078" y="332"/>
      <point x="1050" y="252" type="curve"/>
      <point x="1086" y="233"/>
      <point x="1123" y="216"/>
      <point x="1162" y="199" type="curve"/>
      <point x="993" y="-64" type="line"/>
    </contour>
  </outline>
</glyph>
<glyph name="uni0539" format="1">
  <advance width="1233"/>
  <unicode hex="0539"/>
  <note>
	uni0539
  </note>
  <outline>
    <contour>
      <point x="635" y="-29"/>
      <point x="548" y="2"/>
      <point x="485" y="75" type="curve" smooth="yes"/>
      <point x="422" y="148"/>
      <point x="391" y="259"/>
      <point x="391" y="412" type="curve" smooth="yes"/>
      <point x="391" y="572"/>
      <point x="426" y="686"/>
      <point x="486" y="762" type="curve" smooth="yes"/>
      <point x="547" y="838"/>
      <point x="635" y="875"/>
      <point x="743" y="875" type="curve" smooth="yes"/>
      <point x="850" y="875" type="line"/>
      <point x="850" y="1016" type="line" smooth="yes"/>
      <point x="850" y="1105"/>
      <point x="832" y="1176"/>
      <point x="788" y="1223" type="curve" smooth="yes"/>
      <point x="744" y="1270"/>
      <point x="674" y="1295"/>
      <point x="573" y="1295" type="curve" smooth="yes"/>
      <point x="472" y="1295"/>
      <point x="403" y="1270"/>
      <point x="359" y="1223" type="curve" smooth="yes"/>
      <point x="315" y="1176"/>
      <point x="297" y="1105"/>
      <point x="297" y="1016" type="curve" smooth="yes"/>
      <point x="297" y="0" type="line"/>
      <point x="43" y="0" type="line"/>
      <point x="43" y="942" type="line" smooth="yes"/>
      <point x="43" y="1147"/>
      <point x="86" y="1290"/>
      <point x="174" y="1385" type="curve" smooth="yes"/>
      <point x="262" y="1480"/>
      <point x="393" y="1522"/>
      <point x="573" y="1522" type="curve" smooth="yes"/>
      <point x="753" y="1522"/>
      <point x="884" y="1480"/>
      <point x="972" y="1385" type="curve" smooth="yes"/>
      <point x="1060" y="1290"/>
      <point x="1103" y="1147"/>
      <point x="1103" y="942" type="curve" smooth="yes"/>
      <point x="1103" y="875" type="line"/>
      <point x="1190" y="875" type="line"/>
      <point x="1190" y="615" type="line"/>
      <point x="1103" y="615" type="line"/>
      <point x="1103" y="413" type="line" smooth="yes"/>
      <point x="1103" y="269"/>
      <point x="1069" y="161"/>
      <point x="1005" y="85" type="curve" smooth="yes"/>
      <point x="941" y="9"/>
      <point x="852" y="-29"/>
      <point x="739" y="-29" type="curve" smooth="yes"/>
    </contour>
    <contour>
      <point x="783" y="218"/>
      <point x="809" y="231"/>
      <point x="826" y="263" type="curve" smooth="yes"/>
      <point x="843" y="294"/>
      <point x="850" y="341"/>
      <point x="850" y="413" type="curve" smooth="yes"/>
      <point x="850" y="615" type="line"/>
      <point x="743" y="615" type="line" smooth="yes"/>
      <point x="659" y="615"/>
      <point x="619" y="555"/>
      <point x="619" y="416" type="curve" smooth="yes"/>
      <point x="619" y="273"/>
      <point x="663" y="218"/>
      <point x="744" y="218" type="curve" smooth="yes"/>
    </contour>
  </outline>
</glyph>
<glyph name="uni053F" format="1">
  <advance width="1233"/>
  <unicode hex="053F"/>
  <note>
	uni053F
  </note>
  <outline>
    <contour>
      <point x="831" y="400" type="line"/>
      <point x="768" y="369"/>
      <point x="706" y="352"/>
      <point x="605" y="352" type="curve" smooth="yes"/>
      <point x="441" y="352"/>
      <point x="311" y="395"/>
      <point x="227" y="490" type="curve" smooth="yes"/>
      <point x="143" y="585"/>
      <point x="106" y="727"/>
      <point x="106" y="932" type="curve" smooth="yes"/>
      <point x="106" y="1493" type="line"/>
      <point x="401" y="1493" type="line"/>
      <point x="401" y="858" type="line" smooth="yes"/>
      <point x="401" y="709"/>
      <point x="480" y="619"/>
      <point x="615" y="619" type="curve" smooth="yes"/>
      <point x="682" y="619"/>
      <point x="736" y="641"/>
      <point x="773" y="681" type="curve" smooth="yes"/>
      <point x="810" y="721"/>
      <point x="831" y="778"/>
      <point x="831" y="847" type="curve" smooth="yes"/>
      <point x="831" y="1120" type="line"/>
      <point x="1126" y="1120" type="line"/>
      <point x="1126" y="0" type="line"/>
      <point x="831" y="0" type="line"/>
    </contour>
  </outline>
</glyph>
<glyph name="uni0540" format="1">
  <advance width="1233"/>
  <unicode hex="0540"/>
  <note>
	uni0540
  </note>
  <outline>
    <contour>
      <point x="329" y="251" type="line" smooth="yes"/>
      <point x="250" y="282"/>
      <point x="193" y="313"/>
      <point x="144" y="356" type="curve" smooth="yes"/>
      <point x="95" y="399"/>
      <point x="64" y="450"/>
      <point x="64" y="510" type="curve" smooth="yes"/>
      <point x="64" y="701"/>
      <point x="346" y="900"/>
      <point x="506" y="1008" type="curve" smooth="yes"/>
      <point x="586" y="1061"/>
      <point x="674" y="1115"/>
      <point x="770" y="1169" type="curve"/>
      <point x="586" y="1493" type="line"/>
      <point x="926" y="1493" type="line"/>
      <point x="1169" y="1073" type="line"/>
      <point x="1167" y="1073" type="line"/>
      <point x="1168" y="1072" type="line"/>
      <point x="1039" y="1008"/>
      <point x="898" y="934"/>
      <point x="773" y="858" type="curve" smooth="yes"/>
      <point x="721" y="826"/>
      <point x="663" y="790"/>
      <point x="611" y="754" type="curve" smooth="yes"/>
      <point x="559" y="718"/>
      <point x="511" y="684"/>
      <point x="482" y="657" type="curve" smooth="yes"/>
      <point x="462" y="638"/>
      <point x="442" y="618"/>
      <point x="433" y="603" type="curve"/>
      <point x="423" y="588"/>
      <point x="418" y="574"/>
      <point x="418" y="563" type="curve" smooth="yes"/>
      <point x="418" y="540"/>
      <point x="436" y="528"/>
      <point x="459" y="519" type="curve" smooth="yes"/>
      <point x="1146" y="236" type="line"/>
      <point x="1146" y="-75" type="line"/>
    </contour>
  </outline>
</glyph>
<glyph name="uni0543" format="1">
  <advance width="1233"/>
  <unicode hex="0543"/>
  <note>
	uni0543
  </note>
  <outline>
    <contour>
      <point x="380" y="0" type="line" smooth="yes"/>
      <point x="283" y="0"/>
      <point x="211" y="22"/>
      <point x="159" y="63" type="curve" smooth="yes"/>
      <point x="107" y="104"/>
      <point x="71" y="167"/>
      <point x="71" y="262" type="curve" smooth="yes"/>
      <point x="71" y="378"/>
      <point x="123" y="525"/>
      <point x="236" y="718" type="curve" smooth="yes"/>
      <point x="252" y="746"/>
      <point x="277" y="788"/>
      <point x="305" y="833" type="curve" smooth="yes"/>
      <point x="333" y="878"/>
      <point x="365" y="926"/>
      <point x="394" y="969" type="curve"/>
      <point x="93" y="1493" type="line"/>
      <point x="424" y="1493" type="line"/>
      <point x="584" y="1214" type="line"/>
      <point x="671" y="1309"/>
      <point x="755" y="1380"/>
      <point x="852" y="1435" type="curve" smooth="yes"/>
      <point x="948" y="1488"/>
      <point x="1048" y="1518"/>
      <point x="1161" y="1518" type="curve"/>
      <point x="1161" y="1253" type="line"/>
      <point x="1110" y="1253"/>
      <point x="1054" y="1245"/>
      <point x="983" y="1202" type="curve" smooth="yes"/>
      <point x="914" y="1161"/>
      <point x="830" y="1088"/>
      <point x="730" y="960" type="curve"/>
      <point x="1156" y="218" type="line"/>
      <point x="1156" y="0" type="line"/>
    </contour>
    <contour>
      <point x="799" y="265" type="line"/>
      <point x="548" y="701" type="line"/>
      <point x="545" y="696"/>
      <point x="541" y="689"/>
      <point x="536" y="682" type="curve"/>
      <point x="531" y="674"/>
      <point x="525" y="665"/>
      <point x="520" y="656" type="curve"/>
      <point x="514" y="647"/>
      <point x="508" y="637"/>
      <point x="502" y="628" type="curve" smooth="yes"/>
      <point x="496" y="619"/>
      <point x="491" y="610"/>
      <point x="486" y="602" type="curve" smooth="yes"/>
      <point x="446" y="535"/>
      <point x="417" y="480"/>
      <point x="400" y="435" type="curve" smooth="yes"/>
      <point x="383" y="390"/>
      <point x="374" y="356"/>
      <point x="374" y="331" type="curve" smooth="yes"/>
      <point x="374" y="280"/>
      <point x="407" y="265"/>
      <point x="499" y="265" type="curve" smooth="yes"/>
    </contour>
  </outline>
</glyph>
<glyph name="uni0554" format="1">
  <advance width="1233"/>
  <unicode hex="0554"/>
  <note>
	uni0554
  </note>
  <outline>
    <contour>
      <point x="197" y="154" type="line"/>
      <point x="51" y="154" type="line"/>
      <point x="51" y="414" type="line"/>
      <point x="197" y="414" type="line"/>
      <point x="197" y="1057" type="line" smooth="yes"/>
      <point x="197" y="1190"/>
      <point x="234" y="1305"/>
      <point x="314" y="1388" type="curve" smooth="yes"/>
      <point x="391" y="1468"/>
      <point x="508" y="1518"/>
      <point x="684" y="1518" type="curve" smooth="yes"/>
      <point x="859" y="1518"/>
      <point x="981" y="1469"/>
      <point x="1062" y="1385" type="curve" smooth="yes"/>
      <point x="1143" y="1301"/>
      <point x="1182" y="1188"/>
      <point x="1182" y="1055" type="curve" smooth="yes"/>
      <point x="1182" y="918"/>
      <point x="1141" y="803"/>
      <point x="1062" y="723" type="curve" smooth="yes"/>
      <point x="978" y="639"/>
      <point x="851" y="591"/>
      <point x="698" y="591" type="curve" smooth="yes"/>
      <point x="635" y="591"/>
      <point x="571" y="599"/>
      <point x="492" y="640" type="curve"/>
      <point x="492" y="414" type="line"/>
      <point x="1161" y="414" type="line"/>
      <point x="1161" y="154" type="line"/>
      <point x="492" y="154" type="line"/>
      <point x="492" y="0" type="line"/>
      <point x="197" y="0" type="line"/>
    </contour>
    <contour>
      <point x="767" y="846"/>
      <point x="813" y="866"/>
      <point x="842" y="902" type="curve" smooth="yes"/>
      <point x="871" y="938"/>
      <point x="881" y="992"/>
      <point x="881" y="1052" type="curve" smooth="yes"/>
      <point x="881" y="1109"/>
      <point x="872" y="1167"/>
      <point x="841" y="1206" type="curve"/>
      <point x="810" y="1242"/>
      <point x="763" y="1263"/>
      <point x="687" y="1263" type="curve" smooth="yes"/>
      <point x="606" y="1263"/>
      <point x="560" y="1241"/>
      <point x="532" y="1206" type="curve" smooth="yes"/>
      <point x="503" y="1170"/>
      <point x="493" y="1118"/>
      <point x="493" y="1057" type="curve" smooth="yes"/>
      <point x="493" y="993"/>
      <point x="504" y="942"/>
      <point x="535" y="905" type="curve" smooth="yes"/>
      <point x="566" y="868"/>
      <point x="615" y="846"/>
      <point x="692" y="846" type="curve" smooth="yes"/>
    </contour>
  </outline>
</glyph>
<glyph name="uni0562" format="1">
  <advance width="1233"/>
  <unicode hex="0562"/>
  <note>
	uni0562
  </note>
  <outline>
    <contour>
      <point x="149" y="1120" type="line"/>
      <point x="440" y="1120" type="line"/>
      <point x="440" y="952" type="line"/>
      <point x="481" y="1076"/>
      <point x="581" y="1147"/>
      <point x="730" y="1147" type="curve" smooth="yes"/>
      <point x="939" y="1147"/>
      <point x="1048" y="1010"/>
      <point x="1048" y="727" type="curve" smooth="yes"/>
      <point x="1048" y="450" type="line"/>
      <point x="757" y="450" type="line"/>
      <point x="757" y="682" type="line" smooth="yes"/>
      <point x="757" y="841"/>
      <point x="714" y="909"/>
      <point x="617" y="909" type="curve" smooth="yes"/>
      <point x="500" y="909"/>
      <point x="440" y="810"/>
      <point x="440" y="641" type="curve" smooth="yes"/>
      <point x="440" y="225" type="line"/>
      <point x="1084" y="225" type="line"/>
      <point x="1084" y="0" type="line"/>
      <point x="440" y="0" type="line"/>
      <point x="440" y="-426" type="line"/>
      <point x="149" y="-426" type="line"/>
    </contour>
  </outline>
</glyph>
<glyph name="uni0570" format="1">
  <advance width="1233"/>
  <unicode hex="0570"/>
  <note>
	uni0570
  </note>
  <outline>
    <contour>
      <point x="168" y="1556" type="line"/>
      <point x="459" y="1556" type="line"/>
      <point x="459" y="952" type="line"/>
      <point x="502" y="1081"/>
      <point x="606" y="1147"/>
      <point x="749" y="1147" type="curve" smooth="yes"/>
      <point x="957" y="1147"/>
      <point x="1067" y="1008"/>
      <point x="1067" y="727" type="curve" smooth="yes"/>
      <point x="1067" y="0" type="line"/>
      <point x="776" y="0" type="line"/>
      <point x="776" y="682" type="line" smooth="yes"/>
      <point x="776" y="839"/>
      <point x="734" y="907"/>
      <point x="635" y="907" type="curve" smooth="yes"/>
      <point x="518" y="907"/>
      <point x="459" y="810"/>
      <point x="459" y="641" type="curve" smooth="yes"/>
      <point x="459" y="0" type="line"/>
      <point x="168" y="0" type="line"/>
    </contour>
  </outline>
</glyph>
<glyph name="uni057D" format="1">
  <advance width="1233"/>
  <unicode hex="057D"/>
  <note>
	uni057D
  </note>
  <outline>
    <contour>
      <point x="277" y="-29"/>
      <point x="166" y="112"/>
      <point x="166" y="391" type="curve" smooth="yes"/>
      <point x="166" y="1120" type="line"/>
      <point x="459" y="1120" type="line"/>
      <point x="459" y="436" type="line" smooth="yes"/>
      <point x="459" y="280"/>
      <point x="500" y="211"/>
      <point x="599" y="211" type="curve" smooth="yes"/>
      <point x="716" y="211"/>
      <point x="774" y="308"/>
      <point x="774" y="477" type="curve" smooth="yes"/>
      <point x="774" y="1120" type="line"/>
      <point x="1067" y="1120" type="line"/>
      <point x="1067" y="0" type="line"/>
      <point x="803" y="0" type="line"/>
      <point x="774" y="166" type="line"/>
      <point x="733" y="43"/>
      <point x="635" y="-29"/>
      <point x="486" y="-29" type="curve" smooth="yes"/>
    </contour>
  </outline>
</glyph>
<glyph name="uni057F" format="1">
  <advance width="1233"/>
  <unicode hex="057F"/>
  <note>
	uni057F
  </note>
  <outline>
    <contour>
      <point x="149" y="-27"/>
      <point x="81" y="117"/>
      <point x="81" y="401" type="curve" smooth="yes"/>
      <point x="81" y="1120" type="line"/>
      <point x="318" y="1120" type="line"/>
      <point x="318" y="401" type="line" smooth="yes"/>
      <point x="318" y="317"/>
      <point x="324" y="266"/>
      <point x="339" y="235" type="curve" smooth="yes"/>
      <point x="354" y="203"/>
      <point x="375" y="192"/>
      <point x="408" y="192" type="curve" smooth="yes"/>
      <point x="439" y="192"/>
      <point x="460" y="201"/>
      <point x="475" y="229" type="curve"/>
      <point x="488" y="256"/>
      <point x="496" y="304"/>
      <point x="496" y="376" type="curve" smooth="yes"/>
      <point x="496" y="1120" type="line"/>
      <point x="709" y="1120" type="line"/>
      <point x="709" y="1004" type="line"/>
      <point x="742" y="1091"/>
      <point x="813" y="1147"/>
      <point x="917" y="1147" type="curve" smooth="yes"/>
      <point x="1081" y="1147"/>
      <point x="1151" y="1003"/>
      <point x="1151" y="719" type="curve" smooth="yes"/>
      <point x="1151" y="0" type="line"/>
      <point x="914" y="0" type="line"/>
      <point x="914" y="719" type="line" smooth="yes"/>
      <point x="914" y="803"/>
      <point x="909" y="854"/>
      <point x="894" y="886" type="curve" smooth="yes"/>
      <point x="879" y="917"/>
      <point x="857" y="928"/>
      <point x="824" y="928" type="curve" smooth="yes"/>
      <point x="789" y="928"/>
      <point x="770" y="916"/>
      <point x="758" y="892" type="curve" smooth="yes"/>
      <point x="743" y="864"/>
      <point x="736" y="810"/>
      <point x="736" y="743" type="curve" smooth="yes"/>
      <point x="736" y="0" type="line"/>
      <point x="523" y="0" type="line"/>
      <point x="523" y="116" type="line"/>
      <point x="490" y="29"/>
      <point x="418" y="-27"/>
      <point x="314" y="-27" type="curve" smooth="yes"/>
    </contour>
  </outline>
</glyph>
<glyph name="uni0581" format="1">
  <advance width="1233"/>
  <unicode hex="0581"/>
  <note>
	uni0581
  </note>
  <outline>
    <contour>
      <point x="474" y="-424"/>
      <point x="359" y="-406"/>
      <point x="234" y="-369" type="curve"/>
      <point x="234" y="-100" type="line"/>
      <point x="345" y="-161"/>
      <point x="464" y="-190"/>
      <point x="573" y="-190" type="curve" smooth="yes"/>
      <point x="745" y="-190"/>
      <point x="822" y="-117"/>
      <point x="822" y="51" type="curve" smooth="yes"/>
      <point x="822" y="172" type="line"/>
      <point x="763" y="61"/>
      <point x="664" y="14"/>
      <point x="539" y="14" type="curve" smooth="yes"/>
      <point x="407" y="14"/>
      <point x="302" y="68"/>
      <point x="230" y="165" type="curve" smooth="yes"/>
      <point x="157" y="261"/>
      <point x="117" y="401"/>
      <point x="117" y="574" type="curve" smooth="yes"/>
      <point x="117" y="750"/>
      <point x="158" y="894"/>
      <point x="231" y="994" type="curve" smooth="yes"/>
      <point x="303" y="1093"/>
      <point x="406" y="1149"/>
      <point x="530" y="1149" type="curve" smooth="yes"/>
      <point x="663" y="1149"/>
      <point x="765" y="1086"/>
      <point x="822" y="977" type="curve"/>
      <point x="851" y="1120" type="line"/>
      <point x="1115" y="1120" type="line"/>
      <point x="1115" y="84" type="line" smooth="yes"/>
      <point x="1115" y="-95"/>
      <point x="1077" y="-222"/>
      <point x="994" y="-304" type="curve" smooth="yes"/>
      <point x="910" y="-386"/>
      <point x="782" y="-424"/>
      <point x="601" y="-424" type="curve" smooth="yes"/>
    </contour>
    <contour>
      <point x="676" y="246"/>
      <point x="729" y="279"/>
      <point x="765" y="337" type="curve" smooth="yes"/>
      <point x="801" y="395"/>
      <point x="822" y="478"/>
      <point x="822" y="578" type="curve" smooth="yes"/>
      <point x="822" y="678"/>
      <point x="801" y="761"/>
      <point x="765" y="819" type="curve" smooth="yes"/>
      <point x="729" y="877"/>
      <point x="676" y="909"/>
      <point x="615" y="909" type="curve" smooth="yes"/>
      <point x="554" y="909"/>
      <point x="502" y="877"/>
      <point x="466" y="819" type="curve" smooth="yes"/>
      <point x="430" y="761"/>
      <point x="410" y="678"/>
      <point x="410" y="577" type="curve" smooth="yes"/>
      <point x="410" y="476"/>
      <point x="430" y="393"/>
      <point x="466" y="336" type="curve" smooth="yes"/>
      <point x="502" y="279"/>
      <point x="554" y="246"/>
      <point x="615" y="246" type="curve" smooth="yes"/>
    </contour>
  </outline>
</glyph>
<glyph name="uni10D4" format="1">
  <advance width="1233"/>
  <unicode hex="10D4"/>
  <note>
	uni10D4
  </note>
  <outline>
    <contour>
      <point x="454" y="-402"/>
      <point x="320" y="-364"/>
      <point x="231" y="-295" type="curve" smooth="yes"/>
      <point x="142" y="-227"/>
      <point x="97" y="-127"/>
      <point x="97" y="-3" type="curve" smooth="yes"/>
      <point x="97" y="58"/>
      <point x="109" y="104"/>
      <point x="135" y="149" type="curve" smooth="yes"/>
      <point x="161" y="193"/>
      <point x="202" y="236"/>
      <point x="263" y="291" type="curve"/>
      <point x="441" y="196" type="line"/>
      <point x="421" y="159"/>
      <point x="408" y="133"/>
      <point x="401" y="106" type="curve" smooth="yes"/>
      <point x="394" y="78"/>
      <point x="392" y="48"/>
      <point x="392" y="25" type="curve" smooth="yes"/>
      <point x="392" y="-51"/>
      <point x="415" y="-105"/>
      <point x="456" y="-140" type="curve" smooth="yes"/>
      <point x="496" y="-176"/>
      <point x="556" y="-191"/>
      <point x="629" y="-191" type="curve" smooth="yes"/>
      <point x="773" y="-191"/>
      <point x="842" y="-132"/>
      <point x="842" y="0" type="curve" smooth="yes"/>
      <point x="842" y="639" type="line" smooth="yes"/>
      <point x="842" y="788"/>
      <point x="774" y="854"/>
      <point x="635" y="854" type="curve" smooth="yes"/>
      <point x="514" y="854"/>
      <point x="450" y="802"/>
      <point x="450" y="665" type="curve" smooth="yes"/>
      <point x="450" y="610"/>
      <point x="460" y="561"/>
      <point x="477" y="526" type="curve"/>
      <point x="263" y="436" type="line"/>
      <point x="226" y="481"/>
      <point x="203" y="516"/>
      <point x="190" y="552" type="curve" smooth="yes"/>
      <point x="177" y="588"/>
      <point x="172" y="629"/>
      <point x="172" y="668" type="curve" smooth="yes"/>
      <point x="172" y="801"/>
      <point x="233" y="902"/>
      <point x="323" y="969" type="curve" smooth="yes"/>
      <point x="413" y="1036"/>
      <point x="534" y="1070"/>
      <point x="654" y="1068" type="curve" smooth="yes"/>
      <point x="774" y="1066"/>
      <point x="896" y="1030"/>
      <point x="986" y="959" type="curve" smooth="yes"/>
      <point x="1076" y="887"/>
      <point x="1136" y="780"/>
      <point x="1136" y="637" type="curve" smooth="yes"/>
      <point x="1136" y="8" type="line" smooth="yes"/>
      <point x="1136" y="-265"/>
      <point x="968" y="-402"/>
      <point x="631" y="-402" type="curve" smooth="yes"/>
    </contour>
  </outline>
</glyph>
